<svg width="233" height="233" viewBox="0 0 233 233" fill="none" xmlns="http://www.w3.org/2000/svg">
<path d="M233 178.199H0V178.316H233V178.199Z" fill="#EBEBEB"/>
<path d="M206.853 184.914H178.944V185.031H206.853V184.914Z" fill="#EBEBEB"/>
<path d="M157.927 182.391H133.43V182.507H157.927V182.391Z" fill="#EBEBEB"/>
<path d="M176.423 184.855H168.804V184.972H176.423V184.855Z" fill="#EBEBEB"/>
<path d="M48.8277 182.336H26.1475V182.452H48.8277V182.336Z" fill="#EBEBEB"/>
<path d="M55.7569 182.336H50.8965V182.452H55.7569V182.336Z" fill="#EBEBEB"/>
<path d="M94.2864 183.336H78.6055V183.452H94.2864V183.336Z" fill="#EBEBEB"/>
<path d="M110.442 157.414H20.4619C19.757 157.412 19.0814 157.132 18.5834 156.633C18.0854 156.134 17.8057 155.458 17.8057 154.753V28.2665C17.8118 27.5656 18.0942 26.8955 18.5915 26.4016C19.0889 25.9078 19.761 25.6301 20.4619 25.6289H110.442C111.148 25.6289 111.824 25.9092 112.323 26.4083C112.822 26.9073 113.103 27.5841 113.103 28.2898V154.753C113.103 155.459 112.822 156.135 112.323 156.634C111.824 157.133 111.148 157.414 110.442 157.414ZM20.4619 25.7221C19.7879 25.7233 19.1419 25.992 18.6657 26.469C18.1896 26.946 17.9222 27.5925 17.9222 28.2665V154.753C17.9222 155.427 18.1896 156.073 18.6657 156.55C19.1419 157.027 19.7879 157.296 20.4619 157.297H110.442C111.116 157.296 111.763 157.028 112.24 156.551C112.716 156.074 112.985 155.427 112.986 154.753V28.2665C112.985 27.592 112.716 26.9456 112.24 26.4687C111.763 25.9918 111.116 25.7233 110.442 25.7221H20.4619Z" fill="#EBEBEB"/>
<path d="M211.242 157.414H121.258C120.552 157.412 119.876 157.132 119.377 156.633C118.879 156.134 118.598 155.458 118.597 154.753V28.2665C118.604 27.5652 118.887 26.8951 119.386 26.4013C119.884 25.9076 120.556 25.6301 121.258 25.6289H211.242C211.942 25.6313 212.613 25.9096 213.109 26.4033C213.606 26.897 213.888 27.5664 213.894 28.2665V154.753C213.894 155.457 213.615 156.132 213.118 156.631C212.621 157.13 211.946 157.411 211.242 157.414ZM121.258 25.7221C120.583 25.7233 119.937 25.9918 119.46 26.4687C118.983 26.9456 118.714 27.592 118.713 28.2665V154.753C118.714 155.427 118.983 156.074 119.46 156.551C119.937 157.028 120.583 157.296 121.258 157.297H211.242C211.917 157.296 212.563 157.028 213.04 156.551C213.517 156.074 213.785 155.427 213.786 154.753V28.2665C213.785 27.592 213.517 26.9456 213.04 26.4687C212.563 25.9918 211.917 25.7233 211.242 25.7221H121.258Z" fill="#EBEBEB"/>
<path d="M197.733 45.6328H147.787V122.84H197.733V45.6328Z" fill="#E6E6E6"/>
<path d="M200.202 45.6328H148.942V122.84H200.202V45.6328Z" fill="#F0F0F0"/>
<path d="M197.733 122.84H147.787V124.797H198.889L197.733 122.84Z" fill="#E6E6E6"/>
<path d="M204.318 122.84H153.058L153.896 124.797H205.054L204.318 122.84Z" fill="#F0F0F0"/>
<path d="M196.745 119.381V49.0898H152.401V119.381H196.745Z" fill="#FAFAFA"/>
<path d="M157.857 119.381L172.289 49.0898H181.87L167.438 119.381H157.857Z" fill="white"/>
<path d="M169.498 119.381L183.925 49.0898H187.663L173.231 119.381H169.498Z" fill="white"/>
<path d="M196.745 119.381V49.0898H196.307V119.381H196.745Z" fill="#E6E6E6"/>
<path d="M142.788 169.086H16.0264V178.196H142.788V169.086Z" fill="#E0E0E0"/>
<path d="M142.788 149.035H16.0264V169.087H142.788V149.035Z" fill="#F5F5F5"/>
<path d="M121.57 48.3438H16.0215V149.037H142.787L121.57 48.3438Z" fill="#F5F5F5"/>
<path d="M116.533 152.809H42.2754V159.64H116.533V152.809Z" fill="white"/>
<path d="M143.686 147.594H15.126V150.469H143.686V147.594Z" fill="#E0E0E0"/>
<path d="M142.186 164.137H16.627C15.5666 164.137 14.707 164.996 14.707 166.057V172.115C14.707 173.175 15.5666 174.035 16.627 174.035H142.186C143.246 174.035 144.106 173.175 144.106 172.115V166.057C144.106 164.996 143.246 164.137 142.186 164.137Z" fill="#EBEBEB"/>
<path d="M121.84 39.7109H16.1139C15.5683 39.7109 15.126 40.1532 15.126 40.6989V48.9704C15.126 49.516 15.5683 49.9583 16.1139 49.9583H121.84C122.386 49.9583 122.828 49.516 122.828 48.9704V40.6989C122.828 40.1532 122.386 39.7109 121.84 39.7109Z" fill="#E0E0E0"/>
<path d="M119.282 53.1992H19.2598V80.2925H124.991L119.282 53.1992Z" fill="#E0E0E0"/>
<path d="M125.862 84.4219H19.2598V111.515H131.57L125.862 84.4219Z" fill="#E0E0E0"/>
<path d="M132.447 115.652H19.2598V142.741H138.15L132.447 115.652Z" fill="#E0E0E0"/>
<path d="M39.7636 62.4961H30.9189V80.288H39.7636V62.4961Z" fill="#FAFAFA"/>
<path d="M27.1863 80.2891H30.9189L30.9189 62.4972H27.1863L27.1863 80.2891Z" fill="#F0F0F0"/>
<path d="M48.8136 101.547H37.2148V111.51H48.8136V101.547Z" fill="#FAFAFA"/>
<path d="M32.3172 111.52H37.2148V101.556H32.3172V111.52Z" fill="#F0F0F0"/>
<path d="M67.5509 101.547H55.9521V111.51H67.5509V101.547Z" fill="#FAFAFA"/>
<path d="M51.0594 111.52H55.957V101.556H51.0594V111.52Z" fill="#F0F0F0"/>
<path d="M58.3898 91.5859H46.791V101.549H58.3898V91.5859Z" fill="#FAFAFA"/>
<path d="M41.8934 101.555H46.791V91.5916H41.8934V101.555Z" fill="#F0F0F0"/>
<path d="M92.4591 101.547H80.8604V111.51H92.4591V101.547Z" fill="#FAFAFA"/>
<path d="M75.9627 111.52H80.8604V101.556H75.9627V111.52Z" fill="#F0F0F0"/>
<path d="M111.196 101.547H99.5977V111.51H111.196V101.547Z" fill="#FAFAFA"/>
<path d="M94.7049 111.52H99.6025V101.556H94.7049V111.52Z" fill="#F0F0F0"/>
<path d="M102.035 91.5859H90.4365V101.549H102.035V91.5859Z" fill="#FAFAFA"/>
<path d="M85.5389 101.555H90.4365V91.5916H85.5389V101.555Z" fill="#F0F0F0"/>
<path d="M54.6201 65.4492H45.7754V80.2913H54.6201V65.4492Z" fill="#FAFAFA"/>
<path d="M42.0427 80.2852H45.7754V65.4431H42.0427V80.2852Z" fill="#F0F0F0"/>
<path d="M69.4804 62.4961H60.6357V80.288H69.4804V62.4961Z" fill="#FAFAFA"/>
<path d="M56.9031 80.2891H60.6357V62.4972H56.9031V80.2891Z" fill="#F0F0F0"/>
<path d="M84.3369 65.4492H75.4922V80.2913H84.3369V65.4492Z" fill="#FAFAFA"/>
<path d="M71.7595 80.2852H75.4922V65.4431H71.7595V80.2852Z" fill="#F0F0F0"/>
<path d="M99.1972 62.4961H90.3525V80.288H99.1972V62.4961Z" fill="#FAFAFA"/>
<path d="M86.6199 80.2891H90.3525V62.4972H86.6199V80.2891Z" fill="#F0F0F0"/>
<path d="M114.054 65.4492H105.209V80.2913H114.054V65.4492Z" fill="#FAFAFA"/>
<path d="M101.476 80.2852H105.209V65.4431H101.476V80.2852Z" fill="#F0F0F0"/>
<path d="M45.0439 139.932C44.699 137.224 44.1119 133.175 43.562 130.612C42.9329 127.848 41.232 123.948 38.6271 122.834V121.814C38.6271 121.723 38.5914 121.636 38.5277 121.571C38.464 121.507 38.3775 121.47 38.2869 121.469H36.0687C35.9776 121.47 35.8906 121.507 35.8262 121.571C35.7618 121.635 35.7251 121.723 35.7239 121.814V122.806C35.2141 123.002 34.7329 123.265 34.2933 123.589C29.9315 126.73 32.6063 130.882 33.8273 133.664C32.9605 135.551 32.7275 138.212 32.6902 140.16C32.6828 140.493 32.7419 140.824 32.864 141.134C32.9861 141.444 33.1688 141.726 33.4015 141.964C33.6341 142.202 33.9119 142.392 34.2187 142.521C34.5255 142.651 34.855 142.718 35.188 142.718H42.5648C42.917 142.718 43.2652 142.643 43.5865 142.499C43.9078 142.355 44.1949 142.144 44.4291 141.881C44.6632 141.618 44.839 141.308 44.9449 140.972C45.0509 140.636 45.0846 140.282 45.0439 139.932ZM35.9476 133.273C35.73 133.35 35.4905 133.339 35.2817 133.24C35.0728 133.141 34.9118 132.963 34.8338 132.746L33.2541 128.352C33.1761 128.135 33.1872 127.896 33.285 127.687C33.3828 127.478 33.5594 127.317 33.776 127.238C33.8717 127.203 33.9724 127.184 34.0742 127.182C34.2534 127.184 34.4277 127.241 34.5735 127.345C34.7193 127.449 34.8297 127.596 34.8897 127.764L36.4695 132.159C36.5475 132.376 36.5364 132.615 36.4385 132.823C36.3407 133.032 36.1642 133.194 35.9476 133.273Z" fill="#FAFAFA"/>
<path d="M38.5617 120.844H35.7984C35.5899 120.844 35.4209 121.013 35.4209 121.221V122.176C35.4209 122.385 35.5899 122.554 35.7984 122.554H38.5617C38.7702 122.554 38.9392 122.385 38.9392 122.176V121.221C38.9392 121.013 38.7702 120.844 38.5617 120.844Z" fill="#F0F0F0"/>
<path d="M61.0459 139.932C60.7011 137.224 60.1419 133.175 59.564 130.612C58.9396 127.848 57.234 123.948 54.6338 122.834V121.814C54.6325 121.723 54.5958 121.635 54.5314 121.571C54.467 121.507 54.38 121.47 54.2889 121.469H52.0521C51.9615 121.47 51.875 121.507 51.8113 121.571C51.7476 121.636 51.7119 121.723 51.7119 121.814V122.806C51.2006 123.002 50.7179 123.265 50.2767 123.589C45.9149 126.73 48.5897 130.882 49.8107 133.664C48.9439 135.551 48.7156 138.212 48.6783 140.16C48.6702 140.493 48.7288 140.824 48.8507 141.134C48.9726 141.445 49.1553 141.727 49.3881 141.965C49.6208 142.204 49.8989 142.393 50.206 142.523C50.513 142.652 50.8429 142.718 51.176 142.718H58.5715C58.9233 142.717 59.271 142.642 59.5917 142.498C59.9125 142.353 60.199 142.142 60.4326 141.879C60.6662 141.616 60.8416 141.306 60.9473 140.971C61.053 140.635 61.0866 140.281 61.0459 139.932ZM51.931 133.273C51.7134 133.35 51.4739 133.339 51.2651 133.24C51.0562 133.141 50.8951 132.963 50.8172 132.746L49.2375 128.352C49.1597 128.134 49.1715 127.895 49.2702 127.686C49.369 127.477 49.5466 127.316 49.7641 127.238C49.8583 127.204 49.9574 127.185 50.0576 127.182C50.2375 127.184 50.4124 127.24 50.5591 127.345C50.7057 127.449 50.8169 127.595 50.8778 127.764L52.4575 132.159C52.534 132.376 52.5217 132.615 52.4231 132.824C52.3245 133.032 52.1477 133.194 51.931 133.273Z" fill="#FAFAFA"/>
<path d="M54.5451 120.844H51.7818C51.5733 120.844 51.4043 121.013 51.4043 121.221V122.176C51.4043 122.385 51.5733 122.554 51.7818 122.554H54.5451C54.7536 122.554 54.9226 122.385 54.9226 122.176V121.221C54.9226 121.013 54.7536 120.844 54.5451 120.844Z" fill="#F0F0F0"/>
<path d="M77.0158 139.932C76.6709 137.224 76.0838 133.175 75.5339 130.612C74.9048 127.848 73.2039 123.948 70.599 122.834V121.814C70.599 121.722 70.5626 121.634 70.498 121.57C70.4333 121.505 70.3456 121.469 70.2541 121.469H68.036C67.9445 121.469 67.8568 121.505 67.7921 121.57C67.7275 121.634 67.6911 121.722 67.6911 121.814V122.806C67.1809 123.001 66.6996 123.264 66.2605 123.589C61.8987 126.73 64.5689 130.882 65.7665 133.664C64.9044 135.551 64.6714 138.212 64.6342 140.16C64.6267 140.493 64.6858 140.824 64.8079 141.134C64.9301 141.444 65.1128 141.726 65.3454 141.964C65.578 142.202 65.8559 142.392 66.1626 142.521C66.4694 142.651 66.7989 142.718 67.1319 142.718H74.56C74.91 142.714 75.2553 142.636 75.5734 142.49C75.8916 142.344 76.1755 142.133 76.407 141.871C76.6384 141.608 76.8122 141.3 76.9171 140.966C77.022 140.632 77.0556 140.279 77.0158 139.932ZM67.9148 133.273C67.6973 133.35 67.4578 133.339 67.2489 133.24C67.0401 133.141 66.879 132.963 66.8011 132.746L65.24 128.356C65.1635 128.139 65.1758 127.9 65.2744 127.691C65.373 127.483 65.5498 127.321 65.7665 127.242C65.8608 127.208 65.9599 127.189 66.0601 127.187C66.2401 127.188 66.4154 127.244 66.5621 127.348C66.7089 127.453 66.82 127.599 66.8803 127.769L68.46 132.163C68.4974 132.272 68.5129 132.387 68.5057 132.502C68.4985 132.616 68.4687 132.728 68.418 132.831C68.3674 132.934 68.2968 133.026 68.2105 133.102C68.1241 133.178 68.0236 133.236 67.9148 133.273Z" fill="#FAFAFA"/>
<path d="M70.5285 120.844H67.7652C67.5567 120.844 67.3877 121.013 67.3877 121.221V122.176C67.3877 122.385 67.5567 122.554 67.7652 122.554H70.5285C70.737 122.554 70.906 122.385 70.906 122.176V121.221C70.906 121.013 70.737 120.844 70.5285 120.844Z" fill="#F0F0F0"/>
<path d="M92.9996 139.932C92.6548 137.224 92.0909 133.175 91.5177 130.612C90.8886 127.848 89.1877 123.948 86.5828 122.834V121.814C86.5828 121.723 86.5471 121.636 86.4835 121.571C86.4198 121.507 86.3333 121.47 86.2426 121.469H84.0245C83.9334 121.47 83.8464 121.507 83.782 121.571C83.7175 121.635 83.6808 121.723 83.6796 121.814V122.806C83.1698 123.002 82.6887 123.265 82.249 123.589C77.8872 126.73 80.5621 130.882 81.7597 133.664C80.8929 135.551 80.6599 138.212 80.6227 140.16C80.6152 140.493 80.6743 140.824 80.7964 141.134C80.9186 141.444 81.1013 141.726 81.3339 141.964C81.5665 142.202 81.8444 142.392 82.1511 142.521C82.4579 142.651 82.7874 142.718 83.1204 142.718H90.5205C90.8727 142.718 91.2209 142.643 91.5422 142.499C91.8635 142.355 92.1507 142.144 92.3848 141.881C92.6189 141.618 92.7947 141.308 92.9007 140.972C93.0066 140.636 93.0404 140.282 92.9996 139.932ZM83.9033 133.273C83.6858 133.35 83.4463 133.339 83.2374 133.24C83.0286 133.141 82.8675 132.963 82.7896 132.746L81.2098 128.352C81.1318 128.135 81.1429 127.896 81.2408 127.687C81.3386 127.478 81.5151 127.317 81.7317 127.238C81.8276 127.204 81.9282 127.185 82.03 127.182C82.2092 127.184 82.3834 127.241 82.5292 127.345C82.6751 127.449 82.7854 127.596 82.8455 127.764L84.4252 132.159C84.5032 132.376 84.4921 132.615 84.3943 132.823C84.2965 133.032 84.1199 133.194 83.9033 133.273Z" fill="#FAFAFA"/>
<path d="M86.5178 120.844H83.7544C83.5459 120.844 83.377 121.013 83.377 121.221V122.176C83.377 122.385 83.5459 122.554 83.7544 122.554H86.5178C86.7263 122.554 86.8953 122.385 86.8953 122.176V121.221C86.8953 121.013 86.7263 120.844 86.5178 120.844Z" fill="#F0F0F0"/>
<path d="M108.983 139.932C108.638 137.224 108.079 133.175 107.501 130.612C106.877 127.848 105.171 123.948 102.571 122.834V121.814C102.571 121.768 102.562 121.723 102.545 121.682C102.527 121.64 102.502 121.602 102.47 121.57C102.438 121.538 102.4 121.512 102.358 121.495C102.316 121.478 102.271 121.469 102.226 121.469H100.013C99.9211 121.469 99.8334 121.505 99.7687 121.57C99.704 121.634 99.6677 121.722 99.6677 121.814V122.806C99.1564 123.002 98.6737 123.265 98.2324 123.589C93.8706 126.73 96.5455 130.882 97.7431 133.664C96.8763 135.551 96.648 138.212 96.6107 140.16C96.6026 140.493 96.6613 140.824 96.7832 141.134C96.9051 141.445 97.0878 141.727 97.3205 141.965C97.5533 142.204 97.8314 142.393 98.1384 142.523C98.4455 142.652 98.7753 142.718 99.1085 142.718H106.504C106.856 142.718 107.204 142.643 107.526 142.499C107.847 142.355 108.134 142.144 108.368 141.881C108.602 141.618 108.778 141.308 108.884 140.972C108.99 140.636 109.024 140.282 108.983 139.932ZM99.8867 133.273C99.6692 133.35 99.4297 133.339 99.2208 133.24C99.012 133.141 98.8509 132.963 98.773 132.746L97.1932 128.352C97.1154 128.134 97.1272 127.895 97.226 127.686C97.3247 127.477 97.5023 127.316 97.7198 127.238C97.814 127.204 97.9131 127.185 98.0134 127.182C98.1932 127.184 98.3682 127.24 98.5148 127.345C98.6614 127.449 98.7726 127.595 98.8335 127.764L100.413 132.159C100.491 132.376 100.479 132.616 100.381 132.825C100.282 133.034 100.104 133.195 99.8867 133.273Z" fill="#FAFAFA"/>
<path d="M102.501 120.844H99.7378C99.5293 120.844 99.3604 121.013 99.3604 121.221V122.176C99.3604 122.385 99.5293 122.554 99.7378 122.554H102.501C102.71 122.554 102.879 122.385 102.879 122.176V121.221C102.879 121.013 102.71 120.844 102.501 120.844Z" fill="#F0F0F0"/>
<path d="M124.972 139.932C124.627 137.224 124.063 133.175 123.49 130.612C122.861 127.848 121.16 123.948 118.555 122.834V121.814C118.555 121.722 118.519 121.634 118.454 121.57C118.39 121.505 118.302 121.469 118.21 121.469H115.997C115.905 121.469 115.818 121.505 115.753 121.57C115.688 121.634 115.652 121.722 115.652 121.814V122.806C115.142 123.001 114.661 123.264 114.221 123.589C109.86 126.73 112.53 130.882 113.727 133.664C112.865 135.551 112.632 138.212 112.595 140.16C112.588 140.493 112.647 140.824 112.769 141.134C112.891 141.444 113.074 141.726 113.306 141.964C113.539 142.202 113.817 142.392 114.124 142.521C114.43 142.651 114.76 142.718 115.093 142.718H122.493C122.845 142.717 123.193 142.642 123.514 142.497C123.835 142.353 124.122 142.142 124.355 141.879C124.589 141.616 124.765 141.307 124.872 140.971C124.978 140.636 125.012 140.281 124.972 139.932ZM115.871 133.273C115.654 133.35 115.414 133.339 115.205 133.24C114.996 133.141 114.835 132.963 114.757 132.746L113.178 128.352C113.101 128.134 113.113 127.895 113.212 127.687C113.311 127.478 113.487 127.317 113.704 127.238C113.798 127.204 113.898 127.185 113.998 127.182C114.178 127.183 114.353 127.239 114.5 127.344C114.647 127.448 114.758 127.595 114.818 127.764L116.398 132.159C116.475 132.376 116.464 132.616 116.365 132.825C116.266 133.034 116.089 133.195 115.871 133.273Z" fill="#FAFAFA"/>
<path d="M118.486 120.844H115.722C115.514 120.844 115.345 121.013 115.345 121.221V122.176C115.345 122.385 115.514 122.554 115.722 122.554H118.486C118.694 122.554 118.863 122.385 118.863 122.176V121.221C118.863 121.013 118.694 120.844 118.486 120.844Z" fill="#F0F0F0"/>
<path d="M116.5 199.242C166.401 199.242 206.853 196.88 206.853 193.967C206.853 191.053 166.401 188.691 116.5 188.691C66.5998 188.691 26.1475 191.053 26.1475 193.967C26.1475 196.88 66.5998 199.242 116.5 199.242Z" fill="#F5F5F5"/>
<path d="M145.108 52.9615C145.112 49.8912 144.261 46.8805 142.649 44.2671C141.038 41.6537 138.73 39.5411 135.985 38.1664C133.239 36.7917 130.165 36.2093 127.107 36.4845C124.049 36.7597 121.129 37.8816 118.673 39.7244C116.217 41.5671 114.324 44.0578 113.205 46.9169C112.086 49.776 111.786 52.8904 112.338 55.9106C112.891 58.9307 114.274 61.7371 116.333 64.0149C118.391 66.2926 121.044 67.9515 123.993 68.8055L128.588 73.4003L133.178 68.8055C136.613 67.8111 139.633 65.7292 141.784 62.8723C143.935 60.0153 145.102 56.5377 145.108 52.9615Z" fill="#353958"/>
<path opacity="0.6" d="M129.38 41.9062H127.791V63.6964H129.38C132.27 63.6964 135.041 62.5485 137.084 60.5053C139.127 58.4621 140.275 55.6909 140.275 52.8013C140.275 49.9118 139.127 47.1406 137.084 45.0973C135.041 43.0541 132.27 41.9063 129.38 41.9062Z" fill="#FAFAFA"/>
<path d="M135.496 60.5087C139.751 56.2539 139.751 49.3555 135.496 45.1007C131.241 40.8459 124.343 40.8459 120.088 45.1007C115.833 49.3555 115.833 56.2539 120.088 60.5087C124.343 64.7635 131.241 64.7635 135.496 60.5087Z" fill="#FAFAFA"/>
<path opacity="0.2" d="M133.984 47.0677C132.385 45.593 130.279 44.7912 128.104 44.8288C125.929 44.8665 123.852 45.7407 122.305 47.2699C120.758 48.7991 119.859 50.8656 119.796 53.0401C119.733 55.2145 120.51 57.3297 121.966 58.946C121.144 58.1663 120.487 57.2293 120.034 56.1906C119.582 55.1519 119.342 54.0328 119.331 52.8997C119.319 51.7667 119.535 50.6429 119.966 49.5951C120.398 48.5473 121.035 47.5969 121.841 46.8004C122.647 46.0039 123.605 45.3775 124.657 44.9585C125.71 44.5395 126.837 44.3365 127.969 44.3614C129.102 44.3864 130.218 44.6388 131.252 45.1037C132.285 45.5686 133.214 46.2365 133.984 47.0677Z" fill="#353958"/>
<g opacity="0.2">
<path opacity="0.2" d="M131.02 50.5279L128.937 50.8541C128.867 50.6592 128.771 50.4743 128.653 50.3042C128.534 50.1752 128.392 50.0694 128.234 49.992V51.6136C129.05 51.7742 129.824 52.1009 130.508 52.5736C130.754 52.7863 130.949 53.0508 131.081 53.3481C131.212 53.6455 131.276 53.9682 131.267 54.2931C131.272 54.6847 131.177 55.0709 130.992 55.4162C130.822 55.7449 130.585 56.0351 130.298 56.269C130.032 56.4884 129.727 56.656 129.399 56.7629C129.02 56.8755 128.628 56.9367 128.234 56.9447V57.2289C128.234 57.2826 128.224 57.3358 128.204 57.3855C128.184 57.4352 128.154 57.4805 128.117 57.5186C128.079 57.5568 128.034 57.5871 127.985 57.6077C127.935 57.6284 127.882 57.639 127.828 57.639C127.774 57.6396 127.721 57.6295 127.671 57.6091C127.621 57.5887 127.575 57.5585 127.537 57.5203C127.499 57.4821 127.469 57.4366 127.448 57.3866C127.428 57.3366 127.418 57.283 127.418 57.2289V56.9447C126.962 56.9176 126.512 56.8282 126.081 56.6791C125.754 56.5585 125.454 56.3766 125.195 56.1432C124.962 55.9339 124.768 55.6845 124.622 55.4069C124.474 55.1055 124.372 54.7835 124.319 54.4516L126.584 54.1906C126.621 54.4729 126.713 54.7453 126.854 54.9921C127.002 55.1828 127.196 55.3321 127.418 55.4255V53.4497C126.869 53.3113 126.331 53.129 125.811 52.9045C125.448 52.7202 125.146 52.4364 124.94 52.0863C124.734 51.7363 124.632 51.3347 124.646 50.9286C124.638 50.6182 124.696 50.3097 124.816 50.0231C124.936 49.7365 125.114 49.4783 125.34 49.265C125.921 48.775 126.658 48.5103 127.418 48.5194V48.3749C127.418 48.3209 127.428 48.2673 127.448 48.2173C127.469 48.1672 127.499 48.1218 127.537 48.0836C127.575 48.0454 127.621 48.0152 127.671 47.9948C127.721 47.9744 127.774 47.9642 127.828 47.9649C127.882 47.9649 127.935 47.9755 127.985 47.9962C128.034 48.0168 128.079 48.0471 128.117 48.0853C128.154 48.1234 128.184 48.1686 128.204 48.2184C128.224 48.2681 128.234 48.3213 128.234 48.3749V48.5194C128.919 48.5214 129.588 48.7292 130.154 49.1159C130.603 49.4668 130.911 49.9682 131.02 50.5279ZM127.418 49.964C127.227 50.0124 127.055 50.1143 126.92 50.2576C126.826 50.3736 126.777 50.5188 126.78 50.6677C126.776 50.8238 126.825 50.9766 126.92 51.101C127.054 51.247 127.227 51.3519 127.418 51.4039V49.964ZM128.234 55.4814C128.497 55.4394 128.741 55.3174 128.933 55.1319C129.074 54.9841 129.153 54.7869 129.152 54.5821C129.146 54.4097 129.08 54.2448 128.965 54.1161C128.76 53.9201 128.508 53.7791 128.234 53.706V55.4814Z" fill="#353958"/>
</g>
<path d="M90.2455 67.6577C91.4105 62.555 88.8755 59.6845 84.9891 58.0488C81.1026 56.4132 73.2645 57.1168 73.9775 63.9717C74.0807 65.1599 74.3964 66.32 74.9095 67.3968C73.0968 70.0157 73.5115 74.028 77.0205 74.8528C80.9861 75.7848 90.0219 74.5965 92.7153 73.1006C90.9445 73.4361 89.3229 71.7026 90.2455 67.6577Z" fill="#263238"/>
<path d="M92.8314 72.6963C92.3109 72.6963 91.8103 72.4961 91.4334 72.1371C90.8835 71.6198 90.0354 70.3057 90.5434 67.2581C91.2983 62.7658 89.4156 59.8021 84.7789 58.1431C84.7652 58.137 84.7543 58.1259 84.7482 58.1121C84.7422 58.0984 84.7415 58.0828 84.7463 58.0686C84.7484 58.061 84.752 58.0539 84.757 58.0478C84.762 58.0417 84.7682 58.0368 84.7753 58.0332C84.7823 58.0297 84.79 58.0277 84.7979 58.0274C84.8057 58.0271 84.8136 58.0284 84.8209 58.0313C89.5135 59.6949 91.4241 62.7192 90.6599 67.2767C90.1566 70.2684 90.9767 71.5546 91.5126 72.0486C91.7528 72.2776 92.0479 72.4408 92.3695 72.5224C92.6912 72.6041 93.0284 72.6013 93.3487 72.5146C93.3641 72.5118 93.38 72.5151 93.393 72.5238C93.4061 72.5325 93.4152 72.5459 93.4186 72.5612C93.4207 72.5685 93.4212 72.5762 93.4202 72.5838C93.4192 72.5914 93.4167 72.5986 93.4127 72.6052C93.4088 72.6117 93.4036 72.6174 93.3974 72.6219C93.3912 72.6263 93.3841 72.6294 93.3766 72.6311C93.198 72.6735 93.0151 72.6954 92.8314 72.6963Z" fill="#263238"/>
<path d="M76.4566 74.5595C75.8053 74.4892 75.1903 74.2244 74.6916 73.7997C74.1929 73.375 73.8337 72.81 73.6606 72.1782C73.385 71.3243 73.3587 70.4094 73.5849 69.541C73.811 68.6727 74.2802 67.8869 74.9374 67.2759C74.9429 67.271 74.9493 67.2672 74.9563 67.2648C74.9633 67.2624 74.9706 67.2614 74.978 67.2618C74.9854 67.2622 74.9926 67.2641 74.9992 67.2673C75.0058 67.2706 75.0117 67.275 75.0166 67.2806C75.0215 67.2861 75.0253 67.2925 75.0277 67.2994C75.0301 67.3064 75.0312 67.3138 75.0307 67.3211C75.0303 67.3285 75.0284 67.3357 75.0252 67.3423C75.022 67.3489 75.0175 67.3549 75.012 67.3598C74.3725 67.9566 73.9163 68.7233 73.6968 69.5701C73.4773 70.4168 73.5035 71.3086 73.7724 72.1409C73.9352 72.7507 74.2788 73.297 74.7578 73.7078C75.2369 74.1187 75.8291 74.375 76.4566 74.443C76.4714 74.4462 76.4846 74.4545 76.4939 74.4664C76.5033 74.4783 76.5082 74.4931 76.5078 74.5082C76.506 74.5211 76.5 74.5331 76.4907 74.5424C76.4815 74.5516 76.4695 74.5576 76.4566 74.5595Z" fill="#263238"/>
<path d="M94.1781 84.4609C94.2806 85.5747 94.4157 86.7909 94.5835 87.9513C94.7513 89.1116 94.919 90.2813 95.152 91.4556C95.5765 93.7547 96.17 96.0194 96.9275 98.2312L97.235 99.0328L97.3748 99.4009C97.3748 99.4009 97.3748 99.4009 97.3376 99.4009C97.247 99.3114 97.1287 99.2555 97.002 99.2425C96.9321 99.2425 97.0253 99.2751 97.1745 99.2425C97.6047 99.1268 98.0171 98.9528 98.4 98.7252C98.8821 98.4528 99.3488 98.1541 99.798 97.8305C100.73 97.1641 101.662 96.4325 102.552 95.6356C103.442 94.8388 104.356 94.0326 105.218 93.2217L106.765 94.5312C105.309 96.6151 103.64 98.5408 101.783 100.277C101.277 100.728 100.745 101.15 100.189 101.54C99.5567 101.998 98.8594 102.359 98.1204 102.612C97.5906 102.785 97.0298 102.844 96.4755 102.784C95.7344 102.691 95.0531 102.329 94.5602 101.768C94.3528 101.529 94.1774 101.265 94.0383 100.981C94.0117 100.934 93.9884 100.886 93.9684 100.836L93.9171 100.724L93.8146 100.501L93.4138 99.6059C92.443 97.2342 91.6958 94.7771 91.1817 92.2664C90.9114 91.0269 90.6784 89.7827 90.5013 88.5384C90.3243 87.2942 90.1751 86.0547 90.1006 84.7266L94.1781 84.4609Z" fill="#FFC3BD"/>
<path d="M92.6316 79.8538C94.0296 80.2126 94.8404 89.5466 94.8404 89.5466L91.0844 91.802C91.0844 91.802 88.815 84.9052 89.1645 81.9275C89.4162 79.7699 91.5691 79.5835 92.6316 79.8538Z" fill="#FFC3BD"/>
<path d="M105.171 92.9619L107.328 89.5508L108.554 93.4279C108.554 93.4279 106.783 95.2919 105.18 94.8259L105.171 92.9619Z" fill="#FFC3BD"/>
<path d="M110.498 88.4219L111.346 91.7212L108.555 93.4267L107.329 89.5496L110.498 88.4219Z" fill="#FFC3BD"/>
<path d="M84.6064 189.57H88.6047L90.3056 174.887H84.8161L84.6064 189.57Z" fill="#FFC3BD"/>
<path d="M59.499 184.177L63.3715 185.179L69.3176 171.702L63.9586 170.188L59.499 184.177Z" fill="#FFC3BD"/>
<path d="M63.9856 184.534L59.8522 182.778C59.7815 182.746 59.7018 182.741 59.628 182.765C59.5541 182.788 59.4913 182.837 59.4514 182.903L57.5874 185.974C57.5429 186.053 57.5157 186.14 57.5075 186.23C57.4993 186.32 57.5103 186.411 57.5399 186.497C57.5694 186.582 57.6167 186.66 57.6787 186.726C57.7408 186.792 57.8161 186.844 57.8996 186.878C59.3489 187.466 60.0805 187.675 61.8979 188.449C63.0163 188.915 64.6007 189.735 66.1432 190.392C67.6856 191.049 68.4219 189.558 67.8348 189.143C65.2158 187.279 65.1226 186.249 64.4982 185.024C64.3903 184.805 64.2087 184.632 63.9856 184.534Z" fill="#263238"/>
<path d="M88.7445 189.105H84.2523C84.1745 189.105 84.099 189.132 84.0399 189.183C83.9808 189.233 83.942 189.303 83.9307 189.38L83.4135 192.922C83.4043 193.012 83.4142 193.102 83.4424 193.188C83.4705 193.274 83.5165 193.353 83.5771 193.42C83.6378 193.486 83.7118 193.54 83.7944 193.576C83.877 193.612 83.9663 193.631 84.0566 193.63C85.6223 193.602 86.3866 193.514 88.3531 193.514C89.5693 193.514 92.0811 193.64 93.7587 193.64C95.4363 193.64 95.5248 191.981 94.8258 191.832C91.6943 191.156 90.4594 190.224 89.4062 189.338C89.2188 189.187 88.9852 189.105 88.7445 189.105Z" fill="#263238"/>
<path d="M92.8824 79.8455C92.8824 79.8455 94.7883 80.5165 90.9718 103.975H74.7317C75.0066 97.3671 75.0159 93.2943 71.8564 79.743C74.1286 79.268 76.4319 78.9565 78.7486 78.811C81.2044 78.6359 83.6696 78.6359 86.1254 78.811C89.2895 79.1139 92.8824 79.8455 92.8824 79.8455Z" fill="#263238"/>
<path d="M79.4806 70.5195C79.9466 72.8915 80.4126 77.2392 78.749 78.819C80.8229 81.0201 83.2383 82.8722 85.9021 84.3038C88.2088 80.5758 86.1258 78.8236 86.1258 78.8236C83.4789 78.1899 83.5488 76.228 84.0055 74.3827L79.4806 70.5195Z" fill="#FFC3BD"/>
<path opacity="0.2" d="M81.3261 72.0938L84.0056 74.3818C83.8912 74.8107 83.8148 75.2489 83.7773 75.6913C82.7661 75.5421 81.3774 74.4331 81.2702 73.3613C81.2149 72.9387 81.2338 72.5098 81.3261 72.0938Z" fill="black"/>
<path d="M76.9777 66.1721C77.9097 70.0306 78.222 71.6802 80.5426 73.3345C84.0423 75.823 88.5765 73.8331 88.8141 69.779C89.0332 66.1255 87.4767 60.431 83.3852 59.5549C82.4838 59.3576 81.5469 59.3939 80.6634 59.6605C79.78 59.927 78.9793 60.4149 78.3373 61.0778C77.6954 61.7407 77.2336 62.5567 76.9956 63.4483C76.7577 64.3399 76.7515 65.2775 76.9777 66.1721Z" fill="#FFC3BD"/>
<path d="M90.9724 103.973C90.9724 103.973 94.1272 134.771 93.8616 146.961C93.5913 159.646 91.0656 175.327 91.0656 175.327H84.0942C84.0942 175.327 84.3925 160.387 83.9172 147.93C83.3952 134.356 79.0801 103.973 79.0801 103.973H90.9724Z" fill="#353958"/>
<path d="M83.4973 176.024H91.3587L91.9365 173.997L83.1338 173.75L83.4973 176.024Z" fill="#263238"/>
<path opacity="0.2" d="M83.9682 111.64C87.9571 119.66 84.7697 134.297 83.3577 139.74C82.6354 131.562 81.4145 121.566 80.4639 114.226C81.0836 110.074 82.1275 107.94 83.9682 111.64Z" fill="black"/>
<path d="M86.6758 103.973C86.6758 103.973 82.9944 135.992 80.2171 146.271C76.9225 158.476 70.1795 171.948 70.1795 171.948L63.1895 169.977C63.1895 169.977 67.1085 153.527 69.6296 147.096C75.0119 133.377 70.4078 112.929 74.7043 103.973H86.6758Z" fill="#353958"/>
<path d="M62.7832 171.041L70.0342 173.05L71.339 171.195L63.3005 168.516L62.7832 171.041Z" fill="#263238"/>
<path d="M83.4932 66.2447C83.5538 66.5616 83.7635 66.7899 83.9592 66.7527C84.1549 66.7154 84.2901 66.4265 84.2341 66.1096C84.1782 65.7927 83.9639 65.5644 83.7681 65.6016C83.5724 65.6389 83.4373 65.9278 83.4932 66.2447Z" fill="#263238"/>
<path d="M87.086 65.6072C87.1419 65.9288 87.3562 66.1525 87.552 66.1198C87.7477 66.0872 87.8828 65.7936 87.8269 65.4768C87.771 65.1599 87.5566 64.9316 87.3609 64.9688C87.1652 65.0061 87.03 65.2904 87.086 65.6072Z" fill="#263238"/>
<path d="M87.2676 65.0026L87.9945 64.6484C87.9945 64.6484 87.7056 65.3148 87.2676 65.0026Z" fill="#263238"/>
<path d="M86.0654 66.2891C86.477 66.963 86.9787 67.5776 87.5566 68.1158C87.4162 68.2601 87.2456 68.3716 87.0572 68.4425C86.8687 68.5134 86.6669 68.5418 86.4662 68.5259L86.0654 66.2891Z" fill="#ED847E"/>
<path d="M84.7833 70.0235C84.9646 70.0217 85.1455 70.0046 85.3239 69.9722C85.3362 69.9705 85.348 69.9664 85.3587 69.96C85.3694 69.9537 85.3787 69.9453 85.3861 69.9353C85.3934 69.9253 85.3987 69.9139 85.4017 69.9019C85.4046 69.8898 85.4051 69.8773 85.4031 69.865C85.3986 69.8398 85.3843 69.8174 85.3634 69.8026C85.3425 69.7878 85.3166 69.7817 85.2913 69.7858C84.8981 69.8654 84.4918 69.8507 84.1054 69.743C83.7191 69.6352 83.3637 69.4375 83.0685 69.166C83.0498 69.1497 83.0258 69.1406 83.0009 69.1406C82.976 69.1406 82.952 69.1497 82.9333 69.166C82.9159 69.1842 82.9063 69.2084 82.9062 69.2336C82.9063 69.2588 82.9159 69.283 82.9333 69.3012C83.4329 69.7729 84.0963 70.032 84.7833 70.0235Z" fill="#263238"/>
<path d="M81.6245 58.7991C84.1083 59.4468 85.5343 59.7917 86.3405 60.5093C88.6705 62.5784 80.0448 62.8393 80.3058 63.1795C81.5733 67.8861 78.4138 71.4324 76.5778 67.5226C74.7417 63.6129 73.4416 61.7256 76.424 60.1132C79.4064 58.5009 81.6245 58.7991 81.6245 58.7991Z" fill="#263238"/>
<path d="M76.8148 69.0759C76.9611 69.4266 77.1751 69.745 77.4446 70.0128C77.714 70.2807 78.0337 70.4928 78.3853 70.637C79.3173 71.0191 79.9091 70.1989 79.7413 69.239C79.5922 68.3862 78.9165 67.1606 77.9239 67.1839C77.7055 67.192 77.4926 67.2551 77.3049 67.3672C77.1173 67.4794 76.9609 67.6371 76.8504 67.8257C76.7398 68.0143 76.6786 68.2277 76.6724 68.4462C76.6662 68.6647 76.7152 68.8813 76.8148 69.0759Z" fill="#FFC3BD"/>
<path d="M82.1038 64.1204C82.1301 64.121 82.1562 64.1159 82.1804 64.1055C82.2045 64.095 82.2261 64.0794 82.2436 64.0598C82.4013 63.8827 82.599 63.7459 82.8203 63.6608C83.0416 63.5756 83.2801 63.5447 83.5158 63.5705C83.5657 63.5788 83.6169 63.5674 83.6586 63.5387C83.7003 63.51 83.7293 63.4663 83.7395 63.4167C83.7476 63.3674 83.7361 63.3168 83.7073 63.2758C83.6786 63.2348 83.6349 63.2068 83.5857 63.1977C83.2873 63.1608 82.9844 63.1966 82.7028 63.3021C82.4213 63.4076 82.1694 63.5796 81.9687 63.8035C81.9511 63.8208 81.9371 63.8415 81.9275 63.8643C81.918 63.8871 81.9131 63.9116 81.9131 63.9363C81.9131 63.961 81.918 63.9855 81.9275 64.0083C81.9371 64.0311 81.9511 64.0518 81.9687 64.0691C82.0058 64.1024 82.054 64.1207 82.1038 64.1204Z" fill="#263238"/>
<path d="M87.981 63.637C88.0178 63.6362 88.0537 63.6247 88.0842 63.6039C88.1146 63.5832 88.1384 63.554 88.1527 63.52C88.167 63.486 88.1712 63.4486 88.1647 63.4123C88.1582 63.376 88.1413 63.3424 88.1161 63.3155C87.9145 63.0917 87.6616 62.9201 87.3792 62.8154C87.0968 62.7107 86.7932 62.6761 86.4944 62.7143C86.4451 62.7245 86.4018 62.7536 86.3739 62.7955C86.346 62.8374 86.3357 62.8886 86.3453 62.938C86.3498 62.9622 86.359 62.9853 86.3725 63.006C86.3859 63.0266 86.4034 63.0444 86.4237 63.0583C86.4441 63.0721 86.467 63.0818 86.4911 63.0868C86.5153 63.0917 86.5402 63.0919 86.5643 63.0871C86.8014 63.0625 87.0408 63.0939 87.2635 63.1789C87.4861 63.2639 87.6856 63.4001 87.8458 63.5764C87.8632 63.595 87.8841 63.6099 87.9073 63.6203C87.9305 63.6308 87.9556 63.6364 87.981 63.637Z" fill="#263238"/>
<path d="M73.8843 85.5464C73.0781 87.6527 72.3046 89.8662 71.6242 92.0424C70.9368 94.1886 70.4042 96.3813 70.0305 98.6037C69.9792 98.8786 69.9559 99.1396 69.928 99.4052L69.886 99.8013V99.9737C69.9325 100.283 70.0453 100.579 70.2169 100.84C70.7697 101.74 71.4113 102.581 72.1322 103.352C73.628 105.021 75.3522 106.614 77.0531 108.189L75.8788 109.834C73.7576 108.611 71.7559 107.191 69.9 105.594C68.8972 104.748 68.0005 103.784 67.2298 102.723C66.7038 102.022 66.3567 101.203 66.2186 100.337C66.2058 100.182 66.2058 100.026 66.2186 99.8712C66.2186 99.7733 66.2186 99.7687 66.2186 99.7174V99.5963V99.1303C66.2186 98.8041 66.2512 98.4825 66.2885 98.1703C66.5494 95.7077 67.0361 93.2742 67.7424 90.9007C68.3979 88.558 69.1883 86.2553 70.1097 84.0039L73.8843 85.5464Z" fill="#FFC3BD"/>
<path d="M71.8707 79.7292C70.2816 80.3816 68.2871 89.1005 68.2871 89.1005L71.6749 91.8965C71.6749 91.8965 74.8624 85.3958 75.0022 82.3994C75.1094 80.1533 73.2826 79.156 71.8707 79.7292Z" fill="#FFC3BD"/>
<path d="M65.8088 185.793C65.8828 185.756 65.9473 185.703 65.9974 185.638C66.0475 185.572 66.0819 185.496 66.0977 185.415C66.1157 185.361 66.1187 185.303 66.1064 185.247C66.0941 185.191 66.067 185.14 66.0279 185.098C65.683 184.721 64.2571 184.968 64.0986 184.996C64.08 185 64.0628 185.009 64.0488 185.022C64.0349 185.035 64.0248 185.052 64.0194 185.07C64.0172 185.088 64.0194 185.107 64.0259 185.124C64.0324 185.141 64.043 185.156 64.0567 185.168C64.4854 185.48 65.2776 185.984 65.7576 185.816L65.8088 185.793ZM64.3549 185.15C64.9281 185.066 65.7063 185.028 65.8881 185.224C65.9052 185.243 65.9169 185.267 65.9218 185.293C65.9267 185.318 65.9247 185.344 65.916 185.369C65.905 185.429 65.8786 185.486 65.8395 185.533C65.8003 185.58 65.7496 185.617 65.6923 185.639C65.436 185.732 64.9421 185.546 64.3549 185.15Z" fill="#353958"/>
<path d="M64.7733 184.972C65.1881 184.772 65.6121 184.46 65.6727 184.175C65.6885 184.101 65.6781 184.024 65.6432 183.957C65.6084 183.89 65.5513 183.837 65.4817 183.807C65.4188 183.771 65.3489 183.748 65.2765 183.741C65.2042 183.734 65.1311 183.742 65.0623 183.765C64.517 183.952 64.0604 185.01 64.0417 185.052C64.0336 185.067 64.0293 185.083 64.0293 185.1C64.0293 185.118 64.0336 185.134 64.0417 185.149C64.0528 185.162 64.0665 185.172 64.0818 185.178C64.0971 185.184 64.1137 185.187 64.1303 185.187C64.3542 185.148 64.5711 185.076 64.7733 184.972ZM65.0669 183.97L65.1228 183.947C65.1661 183.931 65.2123 183.925 65.2583 183.929C65.3042 183.933 65.3487 183.947 65.3885 183.97C65.4957 184.031 65.4956 184.092 65.4863 184.138C65.4304 184.413 64.7594 184.828 64.2934 184.958C64.4546 184.568 64.7167 184.227 65.053 183.97H65.0669Z" fill="#353958"/>
<path d="M90.245 189.804C90.5862 189.834 90.9278 189.749 91.2143 189.561C91.2784 189.503 91.3271 189.431 91.3564 189.349C91.3857 189.268 91.3945 189.181 91.3821 189.095C91.38 189.043 91.3643 188.993 91.3365 188.948C91.3087 188.904 91.2698 188.868 91.2236 188.844C90.7576 188.573 89.1406 189.389 88.9589 189.482C88.9419 189.492 88.928 189.506 88.9189 189.524C88.9099 189.541 88.9059 189.56 88.9076 189.58C88.9122 189.599 88.9221 189.617 88.936 189.631C88.95 189.645 88.9676 189.655 88.9868 189.659C89.401 189.746 89.8221 189.794 90.245 189.804ZM90.958 188.979C91.0173 188.976 91.0764 188.987 91.1304 189.011C91.1494 189.021 91.1654 189.036 91.1768 189.054C91.1883 189.072 91.1948 189.093 91.1957 189.114C91.2042 189.169 91.1988 189.226 91.1801 189.279C91.1614 189.332 91.1299 189.379 91.0885 189.417C90.8415 189.636 90.1845 189.673 89.2991 189.529C89.8162 189.251 90.3775 189.065 90.958 188.979Z" fill="#353958"/>
<path d="M89.0061 189.662C89.0182 189.666 89.0313 189.666 89.0434 189.662C89.5094 189.448 90.4414 188.585 90.3902 188.133C90.3902 188.026 90.297 187.891 90.0313 187.868C89.9378 187.857 89.8429 187.866 89.753 187.894C89.6631 187.922 89.5801 187.969 89.5094 188.031C89.0061 188.45 88.9129 189.522 88.9083 189.569C88.9077 189.585 88.9112 189.601 88.9185 189.616C88.9259 189.631 88.9368 189.643 88.9502 189.653C88.9669 189.663 88.987 189.666 89.0061 189.662ZM89.9381 188.04H89.9941C90.1665 188.04 90.1805 188.129 90.1851 188.147C90.2271 188.422 89.5886 189.079 89.104 189.392C89.141 188.939 89.3186 188.509 89.6119 188.161C89.7017 188.082 89.8185 188.04 89.9381 188.045V188.04Z" fill="#353958"/>
<path d="M74.4899 103.021L74.0938 104.475C74.0379 104.587 74.173 104.703 74.3594 104.703H91.0702C91.2146 104.703 91.3358 104.629 91.3451 104.535L91.4942 103.086C91.4942 102.984 91.3778 102.9 91.2147 102.9H74.7555C74.7045 102.895 74.6532 102.904 74.6066 102.925C74.56 102.946 74.5198 102.979 74.4899 103.021Z" fill="#353958"/>
<path opacity="0.8" d="M74.4899 103.021L74.0938 104.475C74.0379 104.587 74.173 104.703 74.3594 104.703H91.0702C91.2146 104.703 91.3358 104.629 91.3451 104.535L91.4942 103.086C91.4942 102.984 91.3778 102.9 91.2147 102.9H74.7555C74.7045 102.895 74.6532 102.904 74.6066 102.925C74.56 102.946 74.5198 102.979 74.4899 103.021Z" fill="white"/>
<path d="M76.6987 104.849H76.2607C76.1721 104.849 76.1069 104.807 76.1116 104.752L76.3166 102.864C76.3166 102.808 76.4005 102.762 76.489 102.762H76.9271C77.0156 102.762 77.0808 102.808 77.0762 102.864L76.8711 104.752C76.8618 104.817 76.7873 104.849 76.6987 104.849Z" fill="#353958"/>
<path d="M89.812 104.849H89.374C89.2854 104.849 89.2202 104.807 89.2248 104.752L89.4299 102.864C89.4299 102.808 89.5138 102.762 89.6023 102.762H90.045C90.1289 102.762 90.1988 102.808 90.1895 102.864L89.9844 104.752C89.9798 104.817 89.9005 104.849 89.812 104.849Z" fill="#353958"/>
<path d="M83.2554 104.849H82.8173C82.7288 104.849 82.6635 104.807 82.6682 104.752L82.8732 102.864C82.8732 102.808 82.9571 102.762 83.0457 102.762H83.4837C83.5722 102.762 83.6422 102.808 83.6328 102.864L83.4278 104.752C83.4138 104.817 83.3439 104.849 83.2554 104.849Z" fill="#353958"/>
<path d="M75.622 131.779L95.4503 132.105L92.137 103.973L93.069 91.3301L90.8183 89.0607C91.0513 81.1387 89.8863 79.2001 89.8863 79.2001L88.2925 78.9485C89.6905 81.0035 89.4575 86.6934 89.2245 88.6366C85.9346 88.0541 81.242 88.6366 81.242 88.6366C80.9996 82.8862 77.4021 78.6875 77.4021 78.6875L76.0041 78.9252C79.1916 82.5786 79.83 89.0374 79.83 89.0374L76.4235 92.1176L76.8895 95.1047C76.1156 95.3065 75.309 95.3509 74.5176 95.2352L74.6108 96.5446C75.4373 96.728 76.3004 96.6498 77.0806 96.3209L78.2316 103.8L75.622 131.779Z" fill="white"/>
<path d="M76.5822 107.832L80.888 108.2L78.0128 111.071C78.0128 111.071 75.5477 110.358 75.2168 108.741L76.5822 107.832Z" fill="#FFC3BD"/>
<path d="M83.3485 110.487L80.8088 112.766L77.4023 110.846L80.888 108.199L83.3485 110.487Z" fill="#FFC3BD"/>
<path d="M83.6797 65.6354L84.4066 65.2812C84.4066 65.2812 84.1177 65.9476 83.6797 65.6354Z" fill="#263238"/>
<path d="M53.1982 110.812H128.718C129.617 110.812 130.478 111.169 131.114 111.805C131.749 112.44 132.106 113.302 132.106 114.2V193.984H53.1982V110.812Z" fill="#353958"/>
<path opacity="0.3" d="M71.6612 110.812H53.1982V193.984H71.6612V110.812Z" fill="black"/>
<path opacity="0.3" d="M132.106 113.371H53.1982V115.929H132.106V113.371Z" fill="black"/>
<path d="M130.098 110.812H53.208V114.27H133.556C133.556 113.353 133.191 112.474 132.543 111.825C131.895 111.177 131.015 110.813 130.098 110.812Z" fill="#263238"/>
<path d="M109.579 99.2578H97.9574C96.44 99.2578 94.9374 99.5568 93.5355 100.138C92.1337 100.718 90.86 101.57 89.7872 102.643C88.7144 103.716 87.8636 104.99 87.2833 106.392C86.703 107.794 86.4047 109.297 86.4053 110.815H109.579V99.2578Z" fill="#353958"/>
<path opacity="0.5" d="M109.579 99.2578H97.9574C96.44 99.2578 94.9374 99.5568 93.5355 100.138C92.1337 100.718 90.86 101.57 89.7872 102.643C88.7144 103.716 87.8636 104.99 87.2833 106.392C86.703 107.794 86.4047 109.297 86.4053 110.815H109.579V99.2578Z" fill="white"/>
<path d="M109.579 99.2578H122.655C122.771 99.2578 122.883 99.304 122.965 99.3861C123.047 99.4683 123.093 99.5797 123.093 99.6959V110.815H109.579V99.2578Z" fill="#353958"/>
<path opacity="0.7" d="M109.579 99.2578H122.655C122.771 99.2578 122.883 99.304 122.965 99.3861C123.047 99.4683 123.093 99.5797 123.093 99.6959V110.815H109.579V99.2578Z" fill="white"/>
<path d="M106.127 97.707H120.573C120.979 97.7156 121.365 97.8828 121.649 98.1729C121.933 98.463 122.092 98.8528 122.092 99.2588H104.575C104.575 98.8473 104.739 98.4526 105.03 98.1615C105.321 97.8705 105.715 97.707 106.127 97.707Z" fill="#353958"/>
<path opacity="0.3" d="M106.127 97.707C105.715 97.707 105.321 97.8705 105.03 98.1615C104.739 98.4526 104.575 98.8473 104.575 99.2588H109.328C109.328 99.0547 109.369 98.8525 109.447 98.6639C109.525 98.4753 109.64 98.3041 109.785 98.1599C109.929 98.0157 110.101 97.9015 110.29 97.8238C110.478 97.7461 110.681 97.7064 110.885 97.707H106.127Z" fill="black"/>
<path d="M125.616 88.3944L130.48 94.6178C130.668 94.8591 131.017 94.9018 131.258 94.7132L134.302 92.3343C134.543 92.1457 134.586 91.7972 134.397 91.5559L129.533 85.3325C129.345 85.0912 128.996 85.0484 128.755 85.237L125.711 87.6159C125.47 87.8045 125.427 88.1531 125.616 88.3944Z" fill="#353958"/>
<path d="M127.307 86.3715L132.854 93.4688L133.874 92.671L128.327 85.5737L127.307 86.3715Z" fill="#263238"/>
<path d="M126.411 88.2176L128.164 90.4609L129.185 89.6632L127.431 87.4198L126.411 88.2176Z" fill="white"/>
<path d="M177.453 82.3047C177.57 82.4818 177.63 82.575 177.705 82.7008L177.915 83.0456C178.05 83.2786 178.166 83.5116 178.287 83.74C178.52 84.206 178.753 84.672 178.94 85.138C179.331 86.0635 179.667 87.0111 179.946 87.9759C180.511 89.8814 180.881 91.8393 181.051 93.8196L181.088 94.1877C181.094 94.2621 181.094 94.3369 181.088 94.4114V94.6584C181.094 94.9824 181.075 95.3064 181.032 95.6276C180.945 96.2232 180.789 96.8065 180.566 97.3658C180.16 98.3675 179.617 99.3083 178.954 100.162C177.724 101.742 176.261 103.126 174.615 104.267L173.353 102.743C174.523 101.422 175.559 99.9871 176.447 98.4609C176.846 97.7685 177.159 97.0299 177.379 96.2614C177.468 95.9359 177.519 95.6013 177.533 95.2641C177.547 95.12 177.547 94.9749 177.533 94.8308V94.7329C177.537 94.6895 177.537 94.6458 177.533 94.6024L177.477 94.2762C177.177 92.5395 176.753 90.8265 176.209 89.1502C175.939 88.3161 175.608 87.5099 175.277 86.7224C175.109 86.3263 174.928 85.9395 174.741 85.5667L174.448 85.0168L174.308 84.7605L174.187 84.5555L177.453 82.3047Z" fill="#FF8B7B"/>
<path d="M173.101 104.279L174.792 107.844L176.148 104.852C176.148 104.852 174.96 102.242 173.352 102.485L173.101 104.279Z" fill="#FF8B7B"/>
<path d="M177.467 107.843L178.809 105.644L176.129 104.828L174.792 107.843H177.467Z" fill="#FF8B7B"/>
<path d="M168.413 190.232C168.76 190.224 169.106 190.177 169.443 190.093C169.46 190.089 169.477 190.08 169.489 190.067C169.502 190.054 169.511 190.037 169.514 190.019C169.517 190.001 169.516 189.983 169.509 189.966C169.502 189.949 169.49 189.935 169.475 189.925C169.34 189.836 168.157 189.072 167.7 189.277C167.649 189.3 167.605 189.336 167.573 189.382C167.541 189.428 167.522 189.482 167.518 189.538C167.503 189.622 167.509 189.709 167.536 189.791C167.562 189.872 167.609 189.945 167.672 190.004C167.883 190.168 168.146 190.249 168.413 190.232ZM169.182 189.957C168.501 190.097 167.993 190.074 167.784 189.892C167.742 189.849 167.711 189.796 167.695 189.739C167.679 189.681 167.677 189.62 167.691 189.561C167.691 189.536 167.698 189.512 167.712 189.491C167.726 189.47 167.746 189.454 167.77 189.445C168.017 189.333 168.692 189.664 169.182 189.957Z" fill="#353958"/>
<path d="M169.424 190.093H169.47C169.484 190.084 169.496 190.072 169.504 190.057C169.512 190.042 169.517 190.026 169.517 190.009C169.517 189.963 169.517 188.84 169.084 188.462C169.032 188.414 168.971 188.378 168.904 188.357C168.837 188.336 168.766 188.331 168.697 188.341C168.623 188.341 168.551 188.366 168.495 188.413C168.438 188.46 168.399 188.525 168.385 188.597C168.296 189.04 169.004 189.879 169.377 190.093H169.424ZM168.757 188.513C168.795 188.512 168.833 188.519 168.868 188.532C168.903 188.546 168.935 188.566 168.962 188.593C169.208 188.955 169.335 189.385 169.326 189.823C168.953 189.525 168.51 188.891 168.566 188.625C168.566 188.583 168.599 188.527 168.715 188.513H168.757Z" fill="#353958"/>
<path d="M144.115 188.509C144.131 188.51 144.147 188.505 144.161 188.497C144.175 188.489 144.187 188.477 144.195 188.463C144.206 188.447 144.211 188.428 144.211 188.409C144.211 188.39 144.206 188.371 144.195 188.356C144.073 188.207 142.988 186.93 142.428 186.93H142.396C142.345 186.935 142.296 186.953 142.253 186.983C142.211 187.012 142.177 187.051 142.153 187.097C142.118 187.17 142.1 187.25 142.1 187.33C142.1 187.411 142.118 187.491 142.153 187.563C142.4 188.076 143.496 188.365 144.125 188.495L144.115 188.509ZM142.424 187.111C142.731 187.111 143.402 187.745 143.864 188.262C143.011 188.062 142.433 187.796 142.293 187.494C142.268 187.445 142.255 187.392 142.255 187.337C142.255 187.283 142.268 187.23 142.293 187.181C142.302 187.162 142.315 187.145 142.332 187.133C142.35 187.12 142.37 187.113 142.391 187.111H142.424Z" fill="#353958"/>
<path d="M144.116 188.509C144.132 188.506 144.146 188.498 144.159 188.488C144.171 188.477 144.18 188.464 144.185 188.448C144.185 188.406 144.516 187.4 144.223 186.836C144.181 186.754 144.124 186.681 144.053 186.621C143.983 186.562 143.901 186.518 143.813 186.491C143.566 186.416 143.445 186.491 143.389 186.598C143.156 186.98 143.682 188.108 144.032 188.462C144.04 188.477 144.052 188.49 144.067 188.498C144.082 188.506 144.099 188.51 144.116 188.509ZM143.65 186.645C143.687 186.64 143.724 186.64 143.761 186.645C143.827 186.663 143.887 186.696 143.939 186.739C143.991 186.782 144.034 186.836 144.064 186.896C144.2 187.321 144.2 187.777 144.064 188.201C143.738 187.735 143.417 186.901 143.556 186.673C143.569 186.658 143.587 186.647 143.606 186.642C143.625 186.637 143.645 186.638 143.664 186.645H143.65Z" fill="#353958"/>
<path d="M169.158 68.6562C168.692 70.9862 167.681 76.0237 169.303 77.5708C169.303 77.5708 168.669 79.9008 164.368 79.9008C159.633 79.9008 162.103 77.5708 162.103 77.5708C164.689 76.9557 164.619 75.0358 164.172 73.237L169.158 68.6562Z" fill="#FF8B7B"/>
<path d="M161.237 63.1955C161.265 63.1998 161.293 63.1998 161.321 63.1955C161.343 63.1846 161.363 63.1694 161.379 63.1508C161.395 63.1322 161.407 63.1106 161.415 63.0872C161.423 63.0638 161.426 63.039 161.424 63.0144C161.422 62.9898 161.416 62.9658 161.405 62.9438C161.277 62.6794 161.09 62.4487 160.856 62.2705C160.623 62.0924 160.351 61.9718 160.063 61.9186C160.014 61.9146 159.966 61.9292 159.928 61.9595C159.89 61.9898 159.864 62.0335 159.858 62.0817C159.852 62.1305 159.866 62.1794 159.897 62.2177C159.927 62.2561 159.972 62.2809 160.021 62.2868C160.249 62.3314 160.463 62.4293 160.646 62.5727C160.829 62.7161 160.976 62.9007 161.074 63.1116C161.091 63.1388 161.115 63.1609 161.144 63.1756C161.173 63.1904 161.205 63.1972 161.237 63.1955Z" fill="#263238"/>
<path d="M159.838 65.2422C159.471 65.9224 159.014 66.5495 158.478 67.1062C158.623 67.239 158.795 67.3386 158.982 67.3982C159.17 67.4577 159.368 67.4758 159.563 67.451L159.838 65.2422Z" fill="#FF5652"/>
<path d="M160.193 64.7175C160.151 65.0298 159.955 65.2628 159.75 65.2395C159.545 65.2162 159.414 64.9412 159.452 64.629C159.489 64.3168 159.689 64.0838 159.89 64.1071C160.09 64.1304 160.23 64.4053 160.193 64.7175Z" fill="#263238"/>
<path d="M159.978 64.1318L159.256 63.8242C159.256 63.8242 159.568 64.458 159.978 64.1318Z" fill="#263238"/>
<path d="M148.249 189.971L144.446 189.095L146.231 180.227L150.034 181.107L148.249 189.971Z" fill="#FF8B7B"/>
<path d="M173.963 190.001H170.058L170.365 180.965H174.27L173.963 190.001Z" fill="#FF8B7B"/>
<path d="M169.75 189.547H174.135C174.211 189.546 174.285 189.573 174.342 189.623C174.4 189.673 174.437 189.742 174.447 189.817L174.946 193.284C174.956 193.372 174.947 193.461 174.92 193.545C174.893 193.629 174.849 193.706 174.79 193.772C174.731 193.837 174.658 193.89 174.578 193.925C174.497 193.961 174.41 193.979 174.321 193.979C172.793 193.955 172.057 193.862 170.127 193.862C168.939 193.862 167.206 193.988 165.57 193.988C163.934 193.988 163.841 192.366 164.526 192.222C167.583 191.56 168.068 190.656 169.098 189.789C169.279 189.634 169.511 189.548 169.75 189.547Z" fill="#263238"/>
<path d="M144.526 188.096L148.576 189.778C148.646 189.805 148.704 189.857 148.738 189.924C148.772 189.991 148.781 190.068 148.762 190.141L147.891 193.538C147.866 193.623 147.824 193.702 147.767 193.769C147.709 193.836 147.639 193.89 147.559 193.928C147.479 193.966 147.392 193.987 147.304 193.989C147.216 193.99 147.128 193.974 147.047 193.939C145.649 193.329 145.001 192.965 143.221 192.224C142.122 191.758 139.81 190.943 138.296 190.314C136.781 189.685 137.322 188.156 138.011 188.282C141.087 188.85 142.546 188.473 143.832 188.068C144.059 187.995 144.305 188.005 144.526 188.096Z" fill="#263238"/>
<path opacity="0.2" d="M146.231 180.234L145.275 184.983L149.115 185.682L150.033 181.11L146.231 180.234Z" fill="black"/>
<path opacity="0.2" d="M174.271 180.965H170.365L170.207 185.625H174.112L174.271 180.965Z" fill="black"/>
<path d="M176.022 78.4572C177.644 78.816 179.373 84.6457 179.373 84.6457L174.792 89.5247C174.792 89.5247 170.985 84.0445 171.763 82.0268C172.569 79.9298 174.107 78.0378 176.022 78.4572Z" fill="#353958"/>
<path opacity="0.4" d="M173.45 82.1713C172.63 81.421 172.076 81.6447 171.698 82.2412C171.325 83.9747 173.534 87.6049 174.424 88.9796C174.834 87.3392 175.305 83.8815 173.45 82.1713Z" fill="black"/>
<path d="M155.495 78.5728C155.495 78.5728 153.631 79.2252 157.359 102.129H173.203C172.938 95.6796 172.928 91.7 175.999 78.4563C173.779 77.9982 171.529 77.7023 169.266 77.5709C166.869 77.3983 164.463 77.3983 162.066 77.5709C159 77.8551 155.495 78.5728 155.495 78.5728Z" fill="#353958"/>
<path d="M159.973 77.0859C160.597 76.7643 165.523 75.7764 169.195 75.9302C171.292 76.0187 172.494 76.289 173.389 76.8063C174.284 77.3235 173.077 80.1149 172.41 80.469C172.811 81.5129 171.376 82.8969 170.546 83.5586C170.295 84.5605 166.818 85.5718 164.512 83.5074C162.741 81.923 158.188 77.9992 159.973 77.0859Z" fill="#263238"/>
<path opacity="0.4" d="M155.351 87.3625C155.453 88.4762 155.588 89.7298 155.765 91.1464C157.065 89.9767 158.128 86.6495 157.736 84.7109C156.808 85.4648 156.003 86.3595 155.351 87.3625Z" fill="black"/>
<path d="M157.042 83.8811C156.174 86.0704 155.194 88.2137 154.106 90.3026C153.571 91.3557 152.997 92.3949 152.373 93.4201C151.744 94.4795 151.043 95.4946 150.276 96.4584L149.973 96.8312L149.899 96.9244L149.768 97.0642C149.682 97.1586 149.59 97.2473 149.493 97.3298C149.114 97.6685 148.675 97.9325 148.198 98.1081C147.393 98.3797 146.535 98.4563 145.695 98.3317C144.381 98.1187 143.112 97.6888 141.939 97.0596C139.819 95.9257 137.848 94.5326 136.072 92.9122L137.275 91.3417C138.207 91.9009 139.218 92.4601 140.206 92.9588C141.171 93.4688 142.169 93.9156 143.193 94.2962C144.099 94.6647 145.056 94.8956 146.031 94.9812C146.336 95.0061 146.643 94.9565 146.925 94.8367C146.988 94.8069 147.043 94.7621 147.084 94.7063L147.405 94.2403C148.6 92.4201 149.661 90.5153 150.579 88.5411C151.543 86.528 152.466 84.4356 153.342 82.3945L157.042 83.8811Z" fill="#FF8B7B"/>
<path d="M155.495 78.5726C153.552 79.0386 151.166 84.3697 151.166 84.3697L155.192 90.2879C155.192 90.2879 160.551 83.5355 159.917 81.4758C159.251 79.3275 157.848 77.9948 155.495 78.5726Z" fill="#353958"/>
<path d="M136.934 93.2236L133.234 93.2656L134.292 90.0781C134.292 90.0781 137.191 90.4742 138.109 91.8116L136.934 93.2236Z" fill="#FF8B7B"/>
<path d="M130.476 92.8555L131.184 90.0781H134.292L133.234 93.2656L130.476 92.8555Z" fill="#FF8B7B"/>
<path d="M170.831 64.9433C170.118 68.7505 169.899 70.3815 167.718 72.1104C164.456 74.7107 159.913 73.0051 159.47 69.0628C159.074 65.5118 160.304 59.8826 164.246 58.8108C165.116 58.5713 166.032 58.5584 166.909 58.7733C167.785 58.9882 168.591 59.4237 169.251 60.0385C169.911 60.6532 170.403 61.4267 170.679 62.2853C170.956 63.1438 171.008 64.0589 170.831 64.9433Z" fill="#FF8B7B"/>
<path d="M162.578 64.8546C161.828 65.8099 156.52 71.9192 159.568 74.2912C169.06 73.5502 171.767 76.8402 174.4 72.1522C177.033 67.4643 177.439 59.3885 170.113 58.0184C162.788 56.6484 158.771 58.3539 162.578 64.8546Z" fill="#263238"/>
<path d="M161.12 64.6837C160.608 65.228 160.328 65.9497 160.337 66.6968C160.36 67.6894 161.292 67.8804 162.061 67.3538C162.756 66.8878 163.576 65.7974 163.184 64.9213C163.095 64.7337 162.96 64.5719 162.79 64.4511C162.621 64.3303 162.424 64.2545 162.218 64.2307C162.012 64.2069 161.803 64.236 161.611 64.3153C161.418 64.3945 161.25 64.5213 161.12 64.6837Z" fill="#FF8B7B"/>
<path d="M161.544 102.129C161.544 102.129 163.809 128.919 166.162 144.018C168.059 156.213 169.554 184.718 169.554 184.718H174.881C174.881 184.718 176.773 157.066 175.813 145.006C173.376 114.483 178.814 111.994 173.217 102.134L161.544 102.129Z" fill="#263238"/>
<path opacity="0.4" d="M165.971 111.074C164.582 113.18 163.586 115.52 163.03 117.98C163.496 122.501 164.014 127.501 164.591 132.31C166.073 128.302 167.695 120.185 165.971 111.074Z" fill="black"/>
<path d="M157.36 102.13C157.36 102.13 152.96 132.187 151.413 143.996C149.806 156.275 145.108 183.802 145.108 183.802L150.323 184.603C150.323 184.603 159.219 158.451 160.873 146.391C162.677 133.25 169.476 102.121 169.476 102.121L157.36 102.13Z" fill="#263238"/>
<path d="M144.34 183.824L151.022 184.962L151.782 182.44L144.629 181.215L144.34 183.824Z" fill="#353958"/>
<path d="M168.827 184.826H175.608L175.962 182.449L168.79 182.207L168.827 184.826Z" fill="#353958"/>
<path d="M173.45 101.198L174.163 102.62C174.219 102.731 174.089 102.843 173.907 102.843H157.28C157.136 102.843 157.019 102.773 157.01 102.68L156.865 101.282C156.865 101.184 156.982 101.1 157.136 101.1H173.189C173.237 101.094 173.286 101.099 173.332 101.116C173.378 101.133 173.418 101.162 173.45 101.198Z" fill="#EBEBEB"/>
<path d="M171.292 102.989H171.721C171.809 102.989 171.875 102.943 171.865 102.892L171.665 101.028C171.665 100.972 171.586 100.93 171.497 100.93H171.069C170.985 100.93 170.919 100.972 170.924 101.028L171.124 102.892C171.134 102.952 171.208 102.989 171.292 102.989Z" fill="#263238"/>
<path d="M160.873 102.989H161.302C161.386 102.989 161.451 102.943 161.446 102.892L161.246 101.028C161.246 100.972 161.162 100.93 161.078 100.93H160.649C160.561 100.93 160.495 100.972 160.505 101.028L160.705 102.892C160.71 102.952 160.77 102.989 160.873 102.989Z" fill="#263238"/>
</svg>
