<svg width="279" height="186" viewBox="0 0 279 186" fill="none" xmlns="http://www.w3.org/2000/svg">
<path d="M252.48 34.8349C253.57 31.2152 251.52 27.3972 247.9 26.3071C244.28 25.217 240.462 27.2677 239.372 30.8874C238.282 34.5071 240.333 38.3251 243.952 39.4152C247.572 40.5053 251.39 38.4546 252.48 34.8349Z" fill="#EBEBEB"/>
<path d="M244.966 48.178C244.892 47.2376 244.867 46.2939 244.892 45.3508C244.867 44.409 244.892 43.4666 244.966 42.5273C245.004 42.5273 245.037 43.7921 245.037 45.3508C245.037 46.9095 245.004 48.178 244.966 48.178Z" fill="#E0E0E0"/>
<path d="M241.019 40.9219C241.052 40.9442 240.409 42.1234 239.583 43.5594C239.104 44.4382 238.581 45.2924 238.017 46.1187C237.983 46.1001 238.627 44.9209 239.457 43.485C240.286 42.049 240.985 40.9219 241.019 40.9219Z" fill="#E0E0E0"/>
<path d="M236.964 38.418C236.461 38.9062 235.927 39.361 235.365 39.7795C234.831 40.2342 234.267 40.6518 233.676 41.0294C234.178 40.5401 234.712 40.0852 235.275 39.6679C235.808 39.2118 236.372 38.7941 236.964 38.418Z" fill="#E0E0E0"/>
<path d="M251.796 45.3847C251.714 45.1589 251.653 44.9261 251.613 44.6891C251.517 44.2576 251.375 43.6624 251.2 43.0114C251.026 42.3604 250.847 41.7801 250.717 41.356C250.633 41.1311 250.569 40.8996 250.523 40.6641C250.646 40.8712 250.743 41.0923 250.814 41.3225C250.97 41.7391 251.163 42.3195 251.342 42.9742C251.52 43.6289 251.639 44.2315 251.714 44.6705C251.768 44.9047 251.796 45.1443 251.796 45.3847Z" fill="#E0E0E0"/>
<path d="M258.738 40.4676C258.033 39.9468 257.358 39.388 256.714 38.7936C256.039 38.2356 255.396 37.6408 254.787 37.0117C255.491 37.5339 256.166 38.0927 256.811 38.6857C257.484 39.2449 258.128 39.8397 258.738 40.4676Z" fill="#E0E0E0"/>
<path d="M261.397 33.6976C261.119 33.6775 260.843 33.6377 260.571 33.5786C260.065 33.493 259.362 33.3852 258.585 33.2959C257.807 33.2066 257.097 33.1545 256.587 33.121C256.308 33.1179 256.03 33.0943 255.754 33.0504C256.031 33.0123 256.312 33.0023 256.591 33.0206C257.264 33.0298 257.935 33.0732 258.603 33.1508C259.385 33.2438 260.091 33.3666 260.59 33.4782C260.866 33.5242 261.136 33.5977 261.397 33.6976Z" fill="#E0E0E0"/>
<path d="M261.408 27.0385C261.408 27.0757 259.92 27.47 258.097 27.9202C256.274 28.3703 254.749 28.6976 254.749 28.6642C254.749 28.6307 256.237 28.2289 258.06 27.7825C259.883 27.3361 261.397 26.9976 261.408 27.0385Z" fill="#E0E0E0"/>
<path d="M253.67 19.2777C253.704 19.3 252.993 20.4309 252.086 21.8036C251.178 23.1762 250.415 24.2736 250.382 24.2513C250.349 24.229 251.059 23.0981 251.967 21.7254C252.874 20.3528 253.637 19.2554 253.67 19.2777Z" fill="#E0E0E0"/>
<path d="M245.993 17.6602C246.016 17.9722 246.016 18.2855 245.993 18.5976C245.993 19.1779 245.971 19.9777 245.993 20.8631C246.015 21.7484 245.993 22.5482 246.015 23.1286C246.04 23.4406 246.04 23.754 246.015 24.066C245.957 23.7581 245.926 23.4456 245.922 23.1323C245.885 22.552 245.855 21.7484 245.855 20.8631C245.855 19.9777 245.881 19.1742 245.915 18.5939C245.916 18.281 245.942 17.9688 245.993 17.6602Z" fill="#E0E0E0"/>
<path d="M240.178 24.8988C240.145 24.9211 239.434 23.7828 238.567 22.4027C237.701 21.0226 237.046 19.8508 237.079 19.8284C237.113 19.8061 237.823 20.9444 238.69 22.3283C239.557 23.7121 240.212 24.8802 240.178 24.8988Z" fill="#E0E0E0"/>
<path d="M236.708 27.8546C236.456 27.8434 236.207 27.8047 235.964 27.7393C235.517 27.6463 234.907 27.4938 234.241 27.3004C233.575 27.1069 232.98 26.8949 232.556 26.7349C232.321 26.6602 232.095 26.5591 231.883 26.4336C232.124 26.4821 232.36 26.5505 232.59 26.6382C233.021 26.7758 233.62 26.9656 234.282 27.159C234.944 27.3524 235.551 27.531 235.986 27.6389C236.233 27.6875 236.475 27.7597 236.708 27.8546Z" fill="#E0E0E0"/>
<path d="M235.19 33.1095C234.467 33.2484 233.736 33.3428 233.002 33.3922C232.273 33.4865 231.539 33.5325 230.804 33.5298C231.526 33.3866 232.256 33.2921 232.991 33.2471C233.72 33.1528 234.455 33.1068 235.19 33.1095Z" fill="#E0E0E0"/>
<path d="M83.0081 31.0113C83.2648 29.1513 80.6422 27.6224 78.6706 27.4661C77.7295 27.388 76.7548 27.5331 75.8657 27.2206C73.9351 26.551 73.165 24.0586 71.2827 23.2662C69.8765 22.671 68.2583 23.1993 66.8931 23.8875C65.5279 24.5757 64.1812 25.435 62.656 25.5354C61.3317 25.6173 59.8921 25.1262 58.7351 25.7735C57.8684 26.2571 57.4183 27.2615 56.6185 27.8418C55.8187 28.4222 54.8254 28.5375 53.8582 28.5858C52.891 28.6342 51.8903 28.6491 51.0087 29.0508C50.1271 29.4526 49.4017 30.3863 49.5839 31.3349L83.0081 31.0113Z" fill="#EBEBEB"/>
<path d="M40.8049 48.3286C40.9834 47.0415 39.1681 45.985 37.8028 45.8734C37.1556 45.8213 36.4785 45.9218 35.861 45.706C34.5255 45.241 34.001 43.5149 32.6916 42.9681C31.7169 42.5552 30.5972 42.9234 29.6523 43.3959C28.7074 43.8683 27.7923 44.471 26.721 44.5379C25.8021 44.5974 24.8089 44.2552 24.0054 44.7053C23.4064 45.0364 23.094 45.7283 22.5434 46.1338C21.9701 46.4888 21.3055 46.6686 20.6313 46.6509C19.9597 46.6353 19.2911 46.7451 18.6597 46.9745C18.0496 47.2535 17.5437 47.8971 17.6739 48.5555L40.8049 48.3286Z" fill="#F5F5F5"/>
<path d="M207.547 30.8776C207.725 29.5942 205.91 28.534 204.545 28.4262C203.894 28.3741 203.22 28.4708 202.603 28.2588C201.267 27.7938 200.743 26.0677 199.433 25.5171C198.459 25.1079 197.339 25.4725 196.394 25.9486C195.449 26.4248 194.516 27.02 193.463 27.0907C192.544 27.1465 191.547 26.808 190.747 27.2544C190.148 27.5892 189.836 28.2774 189.282 28.6866C188.707 29.0398 188.043 29.2194 187.37 29.2036C186.699 29.1881 186.032 29.2978 185.402 29.5273C184.792 29.8063 184.286 30.4498 184.412 31.1083L207.547 30.8776Z" fill="#F5F5F5"/>
<path d="M259.656 92.0627C259.905 90.2399 257.334 88.7408 255.404 88.5882C254.485 88.5138 253.544 88.6552 252.655 88.3502C250.765 87.6917 250.01 85.2477 248.165 84.4702C246.784 83.8899 245.189 84.407 243.861 85.0803C242.533 85.7536 241.201 86.598 239.709 86.6948C238.407 86.7766 236.997 86.2967 235.859 86.9291C235.014 87.4015 234.568 88.3799 233.79 88.9565C233.013 89.5331 232.027 89.6373 231.082 89.7005C230.137 89.7638 229.152 89.76 228.289 90.1581C227.426 90.5561 226.711 91.4638 226.89 92.3901L259.656 92.0627Z" fill="#EBEBEB"/>
<path d="M215.425 56.1992H51.418V76.0975H215.425V56.1992Z" fill="#F5F5F5"/>
<path d="M211.958 66.1496V48.9297L221.44 57.5378L230.923 66.1496L221.44 74.7576L211.958 83.3694V66.1496Z" fill="#F5F5F5"/>
<path d="M275.422 128.543H191.759L198.663 143.974L213.498 155.751L225.778 157.377L232.586 162.946L275.422 179.712V128.543Z" fill="#E0E0E0"/>
<path d="M275.421 128.54C275.421 128.54 275.421 128.845 275.421 129.455C275.421 130.065 275.421 130.969 275.421 132.148C275.421 134.518 275.421 137.996 275.444 142.442C275.444 151.37 275.466 164.159 275.485 179.709V179.828L275.377 179.783L232.537 163.043L225.73 157.463L225.778 157.485L213.502 155.86H213.476H213.454L213.004 155.488L198.618 144.064V144.045C196.238 138.725 193.931 133.562 191.718 128.611L191.658 128.48H191.8L251.881 128.525L269.243 128.547H273.87H275.061H275.462H275.049H273.848H269.202L251.818 128.573L191.8 128.618L191.885 128.488C194.117 133.436 196.412 138.599 198.793 143.918L198.763 143.881L213.152 155.302L213.602 155.674L213.554 155.651L225.83 157.277H225.804L225.823 157.296L232.634 162.876H232.608L275.433 179.653L275.325 179.727C275.343 164.196 275.358 151.414 275.366 142.527C275.366 138.063 275.384 134.585 275.388 132.212C275.388 131.025 275.388 130.117 275.388 129.503C275.388 128.89 275.421 128.54 275.421 128.54Z" fill="#263238"/>
<g opacity="0.3">
<path opacity="0.3" d="M192.659 128.543L201.539 142.452L228.821 151.756L233.59 161.908L244.475 167.599L233.59 163.34L225.778 157.377L213.498 155.751L198.663 143.974L191.759 128.543" fill="black"/>
<path opacity="0.3" d="M244.471 167.61L233.582 163.347L225.774 157.384L213.494 155.758L198.655 143.981V143.977L191.751 128.546L191.766 128.539L198.67 143.969L213.502 155.743L225.785 157.369L233.594 163.332L244.318 167.528L233.582 161.915V161.911L228.813 151.763L201.535 142.459L201.531 142.455L192.651 128.546L192.666 128.535L201.546 142.444L228.828 151.748V151.752L233.597 161.9L244.478 167.591L244.471 167.61Z" fill="white"/>
</g>
<path d="M92.6055 136.244L94.4245 131.199L98.1074 132.107V137.017L92.6055 136.244Z" fill="#E0E0E0"/>
<path d="M92.6016 136.242C92.7437 136.246 92.8854 136.259 93.0256 136.283L94.1677 136.421C95.1423 136.54 96.5076 136.711 98.1183 136.93L98.0179 137.016C98.0179 135.74 98.0179 134.293 98.0179 132.764V132.105L98.0886 132.198L94.4095 131.283L94.5099 131.227C93.9705 132.715 93.4981 133.947 93.1633 134.828C92.9996 135.256 92.8694 135.598 92.7652 135.863C92.7208 135.99 92.6686 136.114 92.609 136.235C92.6398 136.115 92.677 135.997 92.7206 135.881C92.8074 135.616 92.9227 135.274 93.0666 134.854C93.3679 133.965 93.8106 132.686 94.35 131.161L94.376 131.09H94.4504L98.1369 131.983L98.2113 132.001V132.745C98.2113 134.274 98.2113 135.721 98.2113 136.997V137.098H98.1109C96.4592 136.86 95.0754 136.64 94.1119 136.488L92.9959 136.309C92.8632 136.295 92.7315 136.272 92.6016 136.242Z" fill="#263238"/>
<path d="M88.8965 143.339L90.9165 141.84L91.4038 144.604H89.3354L88.8965 143.339Z" fill="#E0E0E0"/>
<path d="M88.9082 143.34C88.9712 143.45 89.0235 143.566 89.0644 143.686C89.1537 143.901 89.2728 144.207 89.4141 144.582L89.3472 144.538L91.4155 144.512L91.3225 144.623C91.2704 144.318 91.2109 144.002 91.1551 143.678C91.0435 143.027 90.9356 142.413 90.8426 141.855L90.9802 141.911C90.3925 142.339 89.8828 142.696 89.5183 142.949C89.3245 143.094 89.1206 143.224 88.9082 143.34C89.0678 143.179 89.2407 143.032 89.4253 142.901C89.7675 142.626 90.2697 142.231 90.8761 141.785L90.9877 141.699L91.0137 141.841L91.3448 143.66C91.4006 143.983 91.4564 144.3 91.5085 144.605V144.716H91.3969L89.3286 144.69H89.2802V144.642C89.1463 144.236 89.0496 143.898 88.9863 143.689C88.9466 143.576 88.9204 143.459 88.9082 143.34Z" fill="#263238"/>
<path d="M95.3555 142.379L96.7691 140.902L97.2713 142.189L96.5124 143.053L95.3555 142.379Z" fill="#E0E0E0"/>
<path d="M95.3547 142.378C95.3882 142.378 95.883 142.616 96.5526 142.981L96.4521 143C96.6828 142.728 96.932 142.434 97.1961 142.125L97.1775 142.222L97.0064 141.787L96.6753 140.935L96.8278 140.965C96.0318 141.772 95.3919 142.364 95.3398 142.378C95.7704 141.839 96.2312 141.325 96.72 140.838L96.8167 140.73L96.8725 140.868C96.9766 141.136 97.092 141.419 97.2073 141.716L97.3784 142.152L97.4007 142.207L97.3598 142.252L96.5935 143.104L96.5451 143.156L96.4893 143.122C96.0936 142.902 95.7144 142.654 95.3547 142.378Z" fill="#263238"/>
<path d="M5.23828 128.543H88.8974L81.993 143.974L67.1577 155.751L54.878 157.377L48.0704 162.946L5.23828 179.712V128.543Z" fill="#E0E0E0"/>
<path d="M5.23786 128.542C5.23786 128.542 5.23786 128.862 5.23786 129.472C5.23786 130.082 5.23786 130.994 5.23786 132.18C5.23786 134.554 5.23786 138.039 5.23786 142.496C5.23786 151.398 5.2639 164.18 5.27878 179.696L5.1709 179.622L47.9993 162.844H47.9732L54.7808 157.264L54.8032 157.246H54.8292L67.1052 155.62L67.0568 155.642L67.5069 155.27L81.8922 143.85L81.8661 143.887C84.2469 138.568 86.5571 133.404 88.7742 128.457L88.856 128.587L28.8413 128.542L11.4577 128.516H6.81142H5.60986H5.23786H5.6359H6.83002H11.4577L28.8189 128.494L88.8969 128.449H89.042L88.9825 128.579L82.0819 144.014V144.032H82.0633L67.6669 155.471L67.2168 155.843H67.1982H67.1684L54.8924 157.469L54.9408 157.447L48.1295 163.027L5.29366 179.767L5.18578 179.811V179.692C5.18578 164.143 5.21554 151.342 5.2267 142.425C5.2267 137.961 5.2267 134.502 5.2267 132.132C5.2267 130.953 5.2267 130.049 5.2267 129.439C5.2267 128.829 5.23786 128.542 5.23786 128.542Z" fill="#263238"/>
<g opacity="0.3">
<path opacity="0.3" d="M87.9682 128.449L79.0849 142.358L51.8061 151.662L47.0371 161.814L36.1523 167.509L48.2051 162.789L54.8491 157.283L67.1251 155.661L81.9641 143.88L88.8685 128.449" fill="black"/>
<path opacity="0.3" d="M36.1549 167.516L36.1475 167.498L47.0285 161.806L51.8012 151.654L79.08 142.351L87.9596 128.445L87.9745 128.453L79.0911 142.366H79.0874L51.8124 151.669L47.0433 161.821H47.0396L36.3074 167.438L48.2003 162.781L54.8442 157.275H54.8479L67.1239 155.65L81.9555 143.876L88.8561 128.445L88.8747 128.453L81.9667 143.891L67.1313 155.668H67.1276L54.8516 157.294L48.2077 162.8L36.1549 167.516Z" fill="white"/>
</g>
<path d="M138.998 163.637C138.946 163.637 138.901 157.562 138.901 150.066C138.901 142.571 138.946 136.492 138.998 136.492C139.05 136.492 139.095 142.571 139.095 150.066C139.095 157.562 139.05 163.637 138.998 163.637Z" fill="#263238"/>
<path d="M142.477 164.029C142.425 164.029 142.38 156.563 142.38 147.353C142.38 138.142 142.425 130.68 142.477 130.68C142.529 130.68 142.573 138.142 142.573 147.353C142.573 156.563 142.54 164.029 142.477 164.029Z" fill="#263238"/>
<path d="M152.07 104.661L151.698 104.609L150.664 104.434L146.687 103.749L143.789 103.426L142.134 103.243L141.256 103.143L140.341 103.098L136.361 102.897L135.829 102.871H135.289H134.173L131.882 102.894C124.545 103.073 117.254 104.099 110.153 105.951C109.655 106.078 109.145 106.186 108.643 106.323L107.132 106.792L104.06 107.737C103.535 107.882 103.037 108.109 102.52 108.284L100.972 108.857L99.4135 109.441L98.6248 109.731C98.3644 109.831 98.1115 109.954 97.8511 110.066L94.7337 111.435L93.9451 111.781C93.681 111.892 93.4206 112.015 93.1639 112.153L91.6164 112.941C90.5859 113.477 89.5332 113.994 88.4953 114.552L85.4263 116.356C80.2994 119.482 75.4858 123.095 71.0522 127.144L70.9741 127.215L70.9146 127.133C68.7625 124.295 66.2402 121.758 63.415 119.589C60.8284 117.606 58.024 115.925 55.0562 114.578C50.1318 112.325 44.8365 110.992 39.4322 110.646C35.8791 110.418 32.3115 110.653 28.8191 111.345C28.2053 111.457 27.6733 111.595 27.2083 111.717C26.7433 111.84 26.3527 111.929 26.0402 112.019L25.3297 112.212L25.0879 112.275C25.0879 112.275 25.166 112.246 25.326 112.197L26.0402 111.974C26.349 111.881 26.7358 111.766 27.2046 111.658C27.6733 111.55 28.2015 111.401 28.8153 111.286C32.311 110.571 35.8859 110.321 39.4471 110.542C44.869 110.872 50.1839 112.196 55.1269 114.448C58.1079 115.799 60.9238 117.487 63.5192 119.481C66.3549 121.646 68.8884 124.181 71.0522 127.018H70.9146C75.3667 122.965 80.2004 119.352 85.3482 116.23L88.4246 114.422C89.4625 113.864 90.519 113.347 91.5531 112.811L93.1044 112.019C93.361 111.881 93.6214 111.762 93.8856 111.647L94.6779 111.297L97.8027 109.928C98.0631 109.817 98.3161 109.694 98.5765 109.593L99.3651 109.299L100.931 108.719L102.479 108.143C102.996 107.96 103.498 107.744 104.023 107.599L107.103 106.655L108.617 106.19C109.119 106.041 109.629 105.933 110.131 105.818C117.247 103.972 124.554 102.959 131.904 102.797H134.195H135.311H135.855L136.387 102.827L140.371 103.042L141.286 103.091L142.164 103.195L143.823 103.385L146.721 103.727L150.694 104.449L151.724 104.642L152.07 104.661Z" fill="#263238"/>
<path d="M70.3979 117.858C69.6375 117.056 68.9257 116.21 68.2663 115.324C67.558 114.478 66.8985 113.593 66.291 112.672C67.0483 113.475 67.7588 114.321 68.4189 115.205C69.1291 116.05 69.7899 116.936 70.3979 117.858Z" fill="#263238"/>
<path d="M192.119 118.929C192.059 118.898 192.001 118.862 191.948 118.821C191.822 118.735 191.669 118.623 191.479 118.49C191.074 118.196 190.479 117.786 189.731 117.299C188.983 116.812 188.079 116.254 187.053 115.674C186.026 115.093 184.865 114.513 183.626 113.955C182.388 113.397 181.171 112.936 180.055 112.549C178.939 112.162 177.924 111.861 177.079 111.634C176.235 111.407 175.513 111.232 175.026 111.128L174.464 110.997C174.398 110.987 174.335 110.967 174.274 110.938C174.341 110.935 174.407 110.943 174.472 110.96L175.041 111.053C175.535 111.135 176.242 111.288 177.113 111.5C177.983 111.712 179.01 112.006 180.133 112.378C181.257 112.75 182.473 113.226 183.723 113.78C184.973 114.334 186.126 114.941 187.157 115.521C188.187 116.101 189.091 116.674 189.828 117.184C190.564 117.693 191.152 118.118 191.543 118.43L191.993 118.802C192.075 118.876 192.127 118.921 192.119 118.929Z" fill="#263238"/>
<path d="M71.7958 117.553C71.7 116.328 71.6677 115.099 71.6991 113.87C71.6677 112.642 71.7 111.413 71.7958 110.188C71.8939 111.412 71.9262 112.642 71.8925 113.87C71.9262 115.099 71.8939 116.328 71.7958 117.553Z" fill="#263238"/>
<path d="M27.3086 121.645C27.4915 121.952 27.64 122.279 27.7513 122.619C27.9894 123.237 28.287 124.107 28.5548 125.074C28.7842 125.905 28.9717 126.747 29.1165 127.597C29.1945 127.946 29.2344 128.303 29.2356 128.66C29.1234 128.322 29.0376 127.975 28.9789 127.623C28.8375 126.979 28.6329 126.094 28.3688 125.126C28.1047 124.159 27.8257 123.292 27.6248 122.668C27.4945 122.335 27.3888 121.993 27.3086 121.645Z" fill="#263238"/>
<path d="M31.9589 120.102C31.9617 120.516 31.9369 120.93 31.8845 121.34C31.8249 122.107 31.7617 123.159 31.7505 124.316C31.7394 125.473 31.784 126.548 31.8287 127.292C31.8727 127.704 31.8913 128.117 31.8845 128.531C31.8411 128.427 31.8159 128.316 31.8101 128.204C31.7729 127.992 31.7319 127.683 31.6947 127.303C31.5927 126.306 31.5467 125.304 31.5571 124.301C31.566 123.299 31.6293 122.298 31.7468 121.303C31.7952 120.931 31.8398 120.611 31.8807 120.403C31.894 120.3 31.9202 120.198 31.9589 120.102Z" fill="#263238"/>
<path d="M37.3903 120.844C37.4126 120.844 37.1299 121.246 36.717 121.893C36.1806 122.736 35.7105 123.619 35.3108 124.535C34.9178 125.454 34.5981 126.403 34.3548 127.373C34.2746 127.781 34.174 128.184 34.0534 128.582C34.0395 128.47 34.0395 128.356 34.0534 128.243C34.0758 128.028 34.1278 127.719 34.2022 127.339C34.6164 125.358 35.4262 123.48 36.583 121.819C36.8062 121.503 36.996 121.254 37.1373 121.075C37.2787 120.896 37.3791 120.837 37.3903 120.844Z" fill="#263238"/>
<path d="M198.771 120.902C198.771 120.902 198.871 120.973 199.024 121.129C199.176 121.285 199.396 121.501 199.649 121.817C200.309 122.6 200.905 123.434 201.43 124.314C201.956 125.192 202.406 126.113 202.777 127.066C202.918 127.438 203.023 127.732 203.086 127.941C203.13 128.047 203.157 128.16 203.164 128.275C203.138 128.275 202.963 127.833 202.651 127.118C202.243 126.189 201.779 125.284 201.263 124.41C200.741 123.541 200.168 122.703 199.544 121.903C199.065 121.297 198.748 120.928 198.771 120.902Z" fill="#263238"/>
<path d="M204.834 120.473C204.845 120.874 204.831 121.275 204.793 121.674C204.76 122.418 204.734 123.434 204.767 124.561C204.801 125.688 204.894 126.707 204.976 127.44C205.038 127.837 205.075 128.237 205.087 128.638C204.966 128.254 204.882 127.859 204.838 127.459C204.546 125.541 204.486 123.595 204.66 121.663C204.676 121.261 204.734 120.862 204.834 120.473Z" fill="#263238"/>
<path d="M209.186 122.977C208.598 123.806 208.07 124.676 207.605 125.581C207.201 126.511 206.867 127.469 206.605 128.449C206.601 128.147 206.641 127.846 206.724 127.556C206.884 126.847 207.121 126.157 207.431 125.499C207.741 124.838 208.124 124.215 208.573 123.639C208.744 123.39 208.951 123.167 209.186 122.977Z" fill="#263238"/>
<path d="M257.551 120.902C257.551 120.902 257.651 120.973 257.808 121.129C257.964 121.285 258.18 121.501 258.433 121.817C259.093 122.599 259.688 123.434 260.211 124.314C260.735 125.193 261.187 126.113 261.561 127.066C261.702 127.438 261.807 127.732 261.866 127.941C261.908 128.048 261.935 128.161 261.948 128.275C261.757 127.899 261.586 127.513 261.435 127.118C261.027 126.188 260.562 125.284 260.043 124.41C259.522 123.541 258.948 122.703 258.325 121.903C257.845 121.297 257.529 120.928 257.551 120.902Z" fill="#263238"/>
<path d="M263.615 120.473C263.628 120.874 263.615 121.275 263.577 121.674C263.54 122.418 263.514 123.434 263.548 124.561C263.581 125.688 263.674 126.707 263.756 127.44C263.821 127.836 263.858 128.237 263.868 128.638C263.746 128.254 263.663 127.859 263.618 127.459C263.326 125.541 263.266 123.595 263.44 121.663C263.458 121.261 263.517 120.863 263.615 120.473Z" fill="#263238"/>
<path d="M267.967 122.977C267.38 123.806 266.853 124.676 266.389 125.581C265.987 126.512 265.652 127.47 265.385 128.449C265.381 128.147 265.421 127.846 265.504 127.556C265.664 126.846 265.902 126.156 266.215 125.499C266.523 124.838 266.905 124.214 267.353 123.639C267.526 123.391 267.732 123.168 267.967 122.977Z" fill="#263238"/>
<path d="M236.276 112.717C236.64 112.891 236.964 113.136 237.231 113.439C237.497 113.741 237.7 114.094 237.827 114.476C238.079 115.244 238.15 116.06 238.036 116.861C237.861 118.408 236.979 119.971 236.034 121.206C234.732 120.071 234.431 118.085 234.342 117.069C234.2 115.466 234.922 112.478 236.276 112.717Z" fill="#4C4F6B"/>
<path d="M237.548 123.757C237.459 123.315 237.489 122.857 237.634 122.43C237.779 122.002 238.034 121.621 238.374 121.324C238.719 121.034 239.118 120.815 239.549 120.681C239.979 120.547 240.432 120.5 240.881 120.543C241.092 120.537 241.301 120.578 241.494 120.663C241.687 120.748 241.859 120.875 241.997 121.034C242.097 121.203 242.15 121.396 242.15 121.592C242.15 121.788 242.097 121.981 241.997 122.15C241.8 122.488 241.516 122.768 241.175 122.961C240.059 123.668 238.824 124.148 237.548 123.764" fill="#4C4F6B"/>
<path d="M235.878 128.502C235.885 128.396 235.9 128.29 235.923 128.186C235.963 127.963 236.019 127.673 236.083 127.327C236.226 126.369 236.525 125.442 236.968 124.581C237.427 123.72 238.108 122.997 238.94 122.487C239.192 122.336 239.462 122.218 239.743 122.134C239.818 122.109 239.896 122.089 239.974 122.074C240.001 122.069 240.028 122.069 240.056 122.074C239.681 122.2 239.321 122.365 238.98 122.565C238.176 123.086 237.518 123.803 237.068 124.648C236.633 125.5 236.327 126.411 236.161 127.353C236.083 127.725 236.016 128.004 235.967 128.205C235.948 128.307 235.918 128.406 235.878 128.502Z" fill="#263238"/>
<path d="M235.926 115.039C235.933 115.085 235.933 115.131 235.926 115.177C235.926 115.281 235.926 115.411 235.952 115.575C235.952 115.921 235.989 116.423 236.012 117.044C236.049 118.283 236.082 119.998 236.075 121.88C236.067 123.762 236.019 125.489 235.967 126.716C235.941 127.337 235.919 127.832 235.896 128.186C235.896 128.349 235.896 128.479 235.87 128.584C235.869 128.63 235.863 128.676 235.852 128.721C235.848 128.674 235.848 128.627 235.852 128.58C235.852 128.479 235.852 128.346 235.852 128.182C235.852 127.81 235.874 127.323 235.889 126.712C235.919 125.474 235.952 123.762 235.96 121.876C235.967 119.99 235.96 118.272 235.93 117.04C235.93 116.43 235.93 115.924 235.907 115.571C235.907 115.407 235.907 115.277 235.907 115.173C235.908 115.128 235.915 115.083 235.926 115.039Z" fill="#263238"/>
<path d="M235.293 124.699C235.136 123.762 234.757 122.875 234.189 122.113C233.621 121.351 232.88 120.735 232.027 120.317C231.592 120.108 231.023 119.971 230.666 120.294C230.309 120.618 230.387 121.202 230.562 121.652C230.944 122.586 231.595 123.387 232.432 123.951C233.269 124.516 234.254 124.82 235.264 124.825" fill="#4C4F6B"/>
<path d="M232.237 121.781C232.334 121.813 232.427 121.854 232.516 121.904C232.601 121.945 232.709 121.997 232.828 122.068C232.947 122.138 233.085 122.213 233.226 122.317C233.383 122.423 233.535 122.537 233.68 122.659C233.85 122.796 234.012 122.944 234.163 123.102C234.52 123.46 234.836 123.857 235.105 124.285C235.359 124.716 235.562 125.176 235.711 125.654C235.771 125.877 235.83 126.085 235.864 126.29C235.901 126.477 235.927 126.665 235.942 126.855C235.964 127.026 235.942 127.186 235.964 127.324C235.971 127.448 235.971 127.572 235.964 127.696C235.962 127.797 235.951 127.898 235.93 127.997C235.904 127.997 235.949 127.566 235.871 126.881C235.852 126.695 235.822 126.51 235.782 126.327C235.74 126.116 235.687 125.907 235.622 125.702C235.469 125.234 235.267 124.784 235.019 124.359C234.761 123.94 234.459 123.548 234.119 123.191C233.97 123.037 233.814 122.89 233.65 122.752C233.509 122.628 233.361 122.511 233.207 122.402C232.62 121.982 232.225 121.804 232.237 121.781Z" fill="#263238"/>
<path d="M136.205 29.2641L135.122 27.0544C135.805 25.1969 135.769 23.151 135.02 21.3189C134.272 19.4868 132.865 18.001 131.076 17.1538C129.287 16.3065 127.246 16.1589 125.354 16.7401C123.462 17.3213 121.856 18.5892 120.852 20.2946C119.847 21.9999 119.517 24.0193 119.926 25.9558C120.335 27.8923 121.453 29.6058 123.062 30.7594C124.67 31.913 126.651 32.4233 128.617 32.19C130.582 31.9567 132.389 30.9966 133.683 29.4985L136.205 29.2641Z" fill="white"/>
<path d="M136.204 29.2618H136.048L135.571 29.3139L133.685 29.511C133.678 29.5106 133.671 29.5079 133.665 29.5032C133.659 29.4986 133.654 29.4922 133.652 29.485L133.696 29.5147C132.571 30.839 131.04 31.7544 129.34 32.1187C128.909 32.2052 128.471 32.2586 128.031 32.2787C125.986 32.3714 123.985 31.6658 122.451 30.3108C121.585 29.5493 120.894 28.6104 120.424 27.558C119.928 26.4377 119.701 25.2177 119.758 23.9943C119.806 22.7094 120.173 21.4567 120.825 20.3487L121.078 19.9283L121.368 19.534L121.51 19.3368L121.673 19.1545L121.993 18.7825C122.105 18.6672 122.228 18.5631 122.343 18.4515C122.462 18.341 122.586 18.2367 122.715 18.139C122.962 17.9392 123.222 17.7554 123.493 17.5884C124.539 16.9379 125.719 16.5334 126.945 16.4055C128.054 16.3022 129.173 16.4322 130.23 16.7871C131.286 17.1421 132.257 17.714 133.079 18.4663C133.795 19.119 134.384 19.8984 134.816 20.7653C135.013 21.1612 135.18 21.5716 135.315 21.9929C135.427 22.3876 135.516 22.7889 135.579 23.1945C135.767 24.4971 135.625 25.8261 135.166 27.0595V27.0372L135.958 28.6963L136.159 29.1167C136.204 29.2097 136.222 29.2581 136.222 29.2581L136.148 29.1093C136.096 29.0125 136.025 28.8712 135.932 28.6889C135.746 28.3169 135.471 27.7701 135.114 27.0595C135.553 25.8329 135.681 24.5162 135.486 23.2279C135.42 22.8259 135.329 22.4284 135.214 22.0375C135.077 21.6238 134.909 21.2209 134.712 20.8323C133.995 19.4214 132.87 18.2587 131.483 17.4952C130.097 16.7317 128.513 16.4025 126.937 16.5505C125.731 16.677 124.57 17.0765 123.541 17.7186C123.276 17.8719 123.021 18.0422 122.778 18.2283C122.654 18.3232 122.536 18.4263 122.425 18.537C122.31 18.6449 122.187 18.7491 122.079 18.8607L121.763 19.2327L121.603 19.4112L121.461 19.6047L121.179 19.9767L120.929 20.3896C120.306 21.4594 119.945 22.6615 119.875 23.8977C119.805 25.1339 120.029 26.369 120.528 27.5022C120.97 28.5018 121.616 29.3982 122.424 30.1342C123.233 30.8701 124.186 31.4295 125.222 31.7765C126.126 32.0795 127.078 32.2144 128.031 32.1745C128.466 32.1551 128.898 32.1041 129.325 32.022C129.723 31.9399 130.114 31.8267 130.494 31.6835C131.713 31.2182 132.8 30.4608 133.659 29.4775C133.665 29.4733 133.671 29.471 133.678 29.471C133.685 29.471 133.691 29.4733 133.696 29.4775C133.7 29.4825 133.702 29.4883 133.702 29.4943C133.702 29.5003 133.7 29.5061 133.696 29.511L133.667 29.4738L135.527 29.3101L136.014 29.2729C136.152 29.2618 136.204 29.2618 136.204 29.2618Z" fill="#263238"/>
<path d="M124.043 24.854L125.066 23.831L127.041 25.5868L130.914 21.8594L131.862 22.8824L126.892 27.5584L124.043 24.854Z" fill="#4C4F6B"/>
<path d="M102.81 60.8468C102.72 60.9064 100.116 62.8184 99.9117 63.6294C99.7071 64.4404 99.8261 65.3666 100.057 65.5117C100.287 65.6568 100.782 66.0586 100.782 66.0586L101.043 66.5533H102.084C102.084 66.5533 101.593 67.6247 102.315 67.8256C102.84 67.941 103.385 67.941 103.911 67.8256C103.911 67.8256 105.328 68.4728 105.648 68.1976C105.968 67.9223 106.574 67.368 106.574 67.368L107.181 66.0065L106.69 64.1465L107.832 62.3795L104.688 59.8164L102.81 60.8468Z" fill="#AE7461"/>
<path d="M106.285 66.1484C105.994 66.5259 105.64 66.8506 105.239 67.1082C104.876 67.4164 104.46 67.6571 104.012 67.8187C104.737 67.2196 105.496 66.662 106.285 66.1484Z" fill="#6F4439"/>
<path d="M175.172 44.0747L178.862 42.9141L180.797 46.1467L175.481 48.9814L175.172 44.0747Z" fill="#AE7461"/>
<path d="M179.766 40.8476C179.766 40.8476 181.254 38.8388 181.626 38.6528C181.998 38.4668 184.23 38.8685 184.405 39.1773C184.494 39.4809 184.494 39.8037 184.405 40.1073C184.405 40.1073 184.944 40.044 185.096 40.416C185.182 40.7189 185.182 41.0395 185.096 41.3423C185.182 41.4035 185.254 41.4822 185.308 41.5732C185.361 41.6643 185.394 41.7657 185.405 41.8706C185.402 42.0665 185.361 42.2599 185.282 42.4397C185.383 42.5426 185.458 42.6675 185.501 42.8044C185.544 42.9414 185.555 43.0866 185.532 43.2284C185.405 43.6301 183.181 45.3004 182.221 45.6724C181.261 46.0444 180.551 46.4759 179.933 46.1039C179.316 45.7319 178.851 43.0424 178.851 43.0424L179.766 40.8476Z" fill="#AE7461"/>
<path d="M185.35 42.2042C184.709 42.5282 184.039 42.791 183.348 42.9891C183.202 43.0515 183.041 43.0685 182.885 43.038C182.729 43.0075 182.586 42.9308 182.474 42.818C182.431 42.7591 182.401 42.6921 182.385 42.6211C182.369 42.5501 182.368 42.4766 182.381 42.4051C182.406 42.2881 182.459 42.1793 182.537 42.0889C182.647 41.9686 182.787 41.88 182.943 41.8322C183.047 41.795 183.11 41.7913 183.114 41.8024C183.118 41.8136 183.066 41.847 182.973 41.8991C182.846 41.9691 182.733 42.0625 182.642 42.1744C182.581 42.2485 182.545 42.3403 182.541 42.4361C182.536 42.5319 182.562 42.6267 182.616 42.7064C182.707 42.7865 182.819 42.8384 182.94 42.8556C183.06 42.8727 183.183 42.8545 183.293 42.8031C183.959 42.5433 184.648 42.3429 185.35 42.2042Z" fill="#6F4439"/>
<path d="M182.15 40.1781C182.098 40.1781 182.091 39.9772 182.187 39.7726C182.284 39.568 182.429 39.4527 182.47 39.4862C182.511 39.5197 182.444 39.6722 182.362 39.8582C182.28 40.0442 182.206 40.1781 182.15 40.1781Z" fill="#6F4439"/>
<path d="M178.839 43.0405C178.839 43.0405 179.118 40.8458 179.27 40.5668C179.423 40.2878 180.014 40.1055 180.014 40.1055L184.106 40.3212C184.106 40.3212 185.033 41.4372 183.612 41.5749C182.946 41.6282 182.282 41.7151 181.625 41.8353C181.625 41.8353 182.064 42.2705 181.819 43.4758C181.573 44.6811 179.497 44.7741 179.497 44.7741L178.839 43.0405Z" fill="#AE7461"/>
<path d="M181.808 43.4748C181.808 43.4748 181.808 43.3112 181.838 43.0247C181.844 42.8495 181.836 42.6739 181.812 42.5002C181.788 42.2764 181.704 42.0631 181.57 41.8827L181.495 41.7934L181.603 41.7711C182.087 41.6669 182.663 41.5888 183.307 41.5181C183.627 41.526 183.941 41.435 184.207 41.2577C184.408 41.0383 184.233 40.6477 184.021 40.3798L184.092 40.417L183.117 40.3649L180.011 40.1752H180.048C179.825 40.2406 179.616 40.3493 179.434 40.4951C179.359 40.56 179.309 40.6497 179.293 40.7481C179.263 40.8523 179.241 40.9564 179.219 41.0569C179.137 41.4586 179.074 41.8008 179.025 42.1096L178.903 42.7941C178.896 42.8758 178.877 42.956 178.847 43.0322C178.834 42.9509 178.834 42.868 178.847 42.7866C178.847 42.6267 178.884 42.3923 178.921 42.0947C178.958 41.7971 179.007 41.44 179.077 41.0271C179.096 40.9267 179.118 40.8188 179.144 40.7109C179.167 40.5845 179.23 40.4686 179.323 40.3798C179.518 40.2114 179.746 40.0848 179.992 40.0078H180.022L183.128 40.1603L184.103 40.2124H184.14L184.166 40.2422C184.291 40.4 184.387 40.5789 184.449 40.7704C184.484 40.8711 184.493 40.9791 184.474 41.0841C184.455 41.189 184.409 41.2873 184.341 41.3693C184.044 41.5804 183.686 41.6864 183.322 41.6706C182.678 41.7339 182.102 41.8008 181.626 41.8827L181.659 41.7748C181.808 41.9775 181.896 42.2191 181.912 42.4704C181.929 42.6511 181.929 42.8329 181.912 43.0136C181.9 43.1267 181.879 43.2386 181.849 43.3484C181.826 43.4376 181.815 43.4748 181.808 43.4748Z" fill="#6F4439"/>
<path d="M185.434 43.3038C184.936 43.6922 184.366 43.9791 183.757 44.1482C183.632 44.1977 183.499 44.221 183.365 44.2165C183.231 44.212 183.1 44.1799 182.979 44.1222C182.87 44.0627 182.783 43.9702 182.73 43.8581C182.687 43.7583 182.678 43.6473 182.704 43.5419C182.738 43.4005 182.812 43.2716 182.916 43.1699C182.987 43.1029 183.031 43.0732 183.039 43.0843C183.046 43.0955 182.897 43.2629 182.838 43.5605C182.825 43.6432 182.84 43.7279 182.882 43.8008C182.923 43.8737 182.987 43.9306 183.065 43.9622C183.269 44.0444 183.497 44.0444 183.701 43.9622C184.664 43.6423 185.408 43.2554 185.434 43.3038Z" fill="#6F4439"/>
<path d="M184.929 41.2345C184.929 41.2866 184.702 41.361 184.412 41.4429C184.122 41.5247 183.876 41.5768 183.858 41.5247C183.839 41.4726 184.055 41.3387 184.36 41.2568C184.665 41.175 184.921 41.1824 184.929 41.2345Z" fill="#6F4439"/>
<path d="M138.998 42.0909L132.433 42.9651L127.336 55.6726C127.336 55.6726 121.838 66.1518 120.421 69.8941C119.963 71.0597 119.776 72.3138 119.874 73.5621L145.847 65.0693L150.847 55.3266L153.752 46.7967L150.166 45.7997L149.202 44.3452L141.282 40.5508L138.998 42.0909Z" fill="#4C4F6B"/>
<path d="M164.387 46.9211L151.181 46.7648L150.165 55.6705C150.165 55.6705 164.037 54.1416 166.273 53.3753C168.508 52.609 179.453 48.0631 179.453 48.0631L177.593 43.3164L164.387 46.9211Z" fill="#4C4F6B"/>
<path d="M176.186 48.1975C175.851 47.6328 175.588 47.0278 175.405 46.397C175.165 45.7859 175.001 45.1474 174.918 44.4961C175.183 45.0929 175.408 45.7068 175.591 46.3338C175.833 46.9404 176.032 47.5631 176.186 48.1975Z" fill="#263238"/>
<path d="M176.295 44.3113C176.273 44.3113 176.418 44.17 176.667 44.2704C176.736 44.3012 176.796 44.3481 176.842 44.407C176.889 44.4659 176.921 44.5352 176.935 44.6089C176.944 44.704 176.924 44.7995 176.878 44.883C176.832 44.9665 176.761 45.0341 176.676 45.0768C176.591 45.1195 176.494 45.1353 176.4 45.1222C176.305 45.109 176.217 45.0676 176.146 45.0033C176.095 44.9482 176.059 44.8813 176.04 44.8085C176.021 44.7358 176.021 44.6596 176.038 44.5866C176.094 44.3374 176.284 44.2965 176.284 44.3188C176.284 44.3411 176.18 44.4192 176.172 44.6089C176.169 44.6582 176.176 44.7076 176.193 44.7539C176.211 44.8001 176.238 44.842 176.273 44.8768C176.317 44.9126 176.371 44.934 176.427 44.938C176.484 44.942 176.54 44.9284 176.589 44.8991C176.641 44.8767 176.685 44.8393 176.716 44.7915C176.746 44.7437 176.762 44.6879 176.76 44.6313C176.751 44.5833 176.732 44.5375 176.706 44.4967C176.679 44.4558 176.644 44.4207 176.604 44.3932C176.436 44.2704 176.303 44.3374 176.295 44.3113Z" fill="#263238"/>
<path d="M138.809 67.5004C138.809 67.5004 138.838 67.4409 138.913 67.3367L139.236 66.8941C139.381 66.7006 139.556 66.4663 139.746 66.1835C139.936 65.9008 140.166 65.5883 140.393 65.2275C140.866 64.5133 141.383 63.6316 141.926 62.6235C142.469 61.6154 143.042 60.5143 143.566 59.3239C144.649 56.943 145.516 54.7371 146.152 53.1449C146.464 52.3674 146.721 51.7313 146.914 51.2589L147.13 50.7492C147.153 50.6894 147.181 50.632 147.216 50.5781C147.209 50.6421 147.192 50.7048 147.167 50.7641L146.981 51.2849C146.807 51.7648 146.568 52.4009 146.278 53.1933C145.676 54.8003 144.831 57.0174 143.741 59.4057C143.198 60.5961 142.625 61.7121 142.082 62.7091C141.539 63.706 140.996 64.5691 140.505 65.2833C140.274 65.6553 140.036 65.9529 139.835 66.2282C139.634 66.5035 139.463 66.7378 139.296 66.9201L138.943 67.3442C138.857 67.4595 138.812 67.5079 138.809 67.5004Z" fill="#263238"/>
<path d="M147.506 48.2018C147.437 48.1086 147.377 48.009 147.328 47.9042C147.212 47.6736 147.063 47.3871 146.885 47.0449H146.978C146.405 47.5769 145.594 48.3097 144.649 49.1579L144.586 49.2137L144.523 49.1467C144.08 48.6743 143.63 48.1274 143.183 47.5434C142.09 46.1 141.178 44.7422 140.49 43.7862L139.668 42.6702C139.556 42.5399 139.459 42.3976 139.378 42.2461C139.505 42.36 139.622 42.4844 139.728 42.6181C139.94 42.8748 140.245 43.2468 140.598 43.7341C141.32 44.6753 142.25 46.0219 143.336 47.4541C143.782 48.0344 144.225 48.5701 144.66 49.0537H144.534C145.482 48.2204 146.305 47.5062 146.9 47.0003L146.959 46.9482L146.989 47.0189C147.149 47.3909 147.279 47.6661 147.387 47.9005C147.438 47.9963 147.478 48.0973 147.506 48.2018Z" fill="#263238"/>
<path d="M153.134 49.6642C153.127 49.7222 153.111 49.7787 153.086 49.8316L152.893 50.2966C152.736 50.6984 152.502 51.2787 152.201 51.9892C151.602 53.4103 150.731 55.3558 149.719 57.48C148.708 59.6041 147.744 61.5087 147.03 62.8777C146.676 63.5622 146.383 64.1127 146.174 64.4922L145.929 64.9237C145.873 65.0241 145.839 65.0725 145.832 65.0688C145.848 65.0123 145.869 64.9574 145.895 64.9051L146.107 64.455L146.911 62.8144C147.592 61.4343 148.533 59.5222 149.545 57.3981C150.556 55.274 151.445 53.3396 152.074 51.9334C152.383 51.2527 152.636 50.691 152.818 50.2669L153.026 49.8168C153.097 49.7163 153.127 49.6605 153.134 49.6642Z" fill="#263238"/>
<g opacity="0.3">
<path opacity="0.3" d="M145.824 64.4383C145.705 64.3619 145.571 64.3113 145.432 64.2895C145.292 64.2677 145.15 64.2753 145.013 64.3118C138.436 65.1748 134.753 66.5884 128.519 68.8204L145.482 65.1972C145.846 65.067 146.029 64.628 145.824 64.4383Z" fill="black"/>
</g>
<path d="M150.202 46.4375C150.212 46.7058 150.175 46.9738 150.094 47.2299C149.932 47.8734 149.658 48.4838 149.287 49.0341L149.209 49.1494L149.127 49.0341C149.057 48.9336 148.982 48.8295 148.912 48.7179C148.567 48.1825 148.289 47.6064 148.086 47.0029H148.227C148.063 47.385 147.863 47.7512 147.632 48.0966C147.749 47.6954 147.902 47.3057 148.089 46.9323L148.164 46.7649L148.231 46.9434C148.455 47.5248 148.738 48.0819 149.075 48.6063C149.142 48.7141 149.217 48.8183 149.284 48.915H149.127C149.614 48.1509 149.977 47.3148 150.202 46.4375Z" fill="#263238"/>
<g opacity="0.3">
<path opacity="0.3" d="M150.504 55.6319C151.592 55.0785 152.464 54.1768 152.98 53.0705C153.497 51.9642 153.628 50.7169 153.353 49.5273C152.236 51.4524 151.25 53.4509 150.403 55.5091" fill="black"/>
</g>
<g opacity="0.3">
<path opacity="0.3" d="M139.664 42.5385C140.884 45.3526 142.491 47.9821 144.44 50.3505C145.27 49.6541 146.018 48.8667 146.672 48.0032L147.509 48.7025C147.368 48.245 147.223 47.7911 147.078 47.3373C147.052 47.2555 147.011 47.1625 146.929 47.1476C146.896 47.1463 146.863 47.152 146.832 47.1641C146.801 47.1763 146.773 47.1947 146.75 47.2183L144.518 48.9592C142.69 46.9606 141.038 44.8088 139.578 42.5273" fill="black"/>
</g>
<path d="M133.34 63.6777C133.052 63.6548 132.768 63.5948 132.495 63.4991C131.154 63.1158 129.87 62.554 128.679 61.8288C128.422 61.695 128.185 61.526 127.976 61.3266C128.005 61.2783 129.125 61.9665 130.609 62.6137C132.094 63.261 133.355 63.6144 133.34 63.6777Z" fill="#263238"/>
<path d="M136.609 62.2077C136.486 62.2261 136.361 62.2261 136.237 62.2077C136.01 62.2077 135.679 62.163 135.274 62.1147C134.459 62.0254 133.34 61.858 132.116 61.5976C130.892 61.3372 129.802 61.0433 129.021 60.7978C128.63 60.675 128.318 60.5709 128.102 60.489C127.987 60.4573 127.876 60.4097 127.774 60.3477C128.208 60.4282 128.637 60.5351 129.058 60.6676C129.846 60.8759 130.94 61.1512 132.157 61.4116C133.373 61.672 134.485 61.858 135.293 61.9844C135.736 62.0306 136.176 62.1052 136.609 62.2077Z" fill="#263238"/>
<g opacity="0.3">
<path opacity="0.3" d="M128.095 60.4788C129.461 61.4045 130.998 62.0462 132.617 62.3657C134.236 62.6853 135.902 62.6761 137.517 62.3388C134.319 62.0373 131.161 61.4027 128.095 60.4453" fill="black"/>
</g>
<path d="M133.616 43.0448C131.841 42.498 126.228 44.9346 126.228 44.9346C126.228 44.9346 116.697 48.8034 114.696 50.5964C112.694 52.3895 103.097 60.1122 103.097 60.1122L107.661 63.7876L118.903 56.0648L132.667 52.8619C132.667 52.8619 134.211 52.3337 135.989 49.5139C137.767 46.6941 135.386 43.5917 133.616 43.0448Z" fill="#4C4F6B"/>
<path d="M135.341 51.0011C135.312 50.9788 135.676 50.4989 136.085 49.621C136.315 49.1107 136.479 48.5732 136.573 48.0214C136.688 47.3482 136.667 46.6586 136.509 45.994C136.357 45.3301 136.038 44.7157 135.583 44.2084C135.206 43.7983 134.738 43.4813 134.218 43.2821C133.731 43.111 133.216 43.0365 132.7 43.0626C132.7 43.0626 132.737 43.044 132.804 43.0291C132.907 43.0076 133.012 42.9939 133.117 42.9882C133.507 42.9687 133.897 43.0242 134.266 43.1519C134.816 43.344 135.312 43.664 135.713 44.0856C136.199 44.609 136.538 45.2502 136.699 45.9456C136.862 46.6362 136.88 47.3532 136.751 48.0511C136.643 48.6153 136.461 49.163 136.212 49.6805C136.043 50.027 135.847 50.3592 135.624 50.6737C135.546 50.796 135.451 50.9063 135.341 51.0011Z" fill="#263238"/>
<g opacity="0.3">
<path opacity="0.3" d="M127.92 54.1426C127.92 54.1426 130.03 54.5927 131.551 53.9528C132.494 53.5508 133.393 53.0522 134.233 52.4648L127.909 54.1537" fill="black"/>
</g>
<path d="M107.772 61.6176C107.746 61.6176 107.854 61.4539 108.103 61.4948C108.175 61.5063 108.243 61.5354 108.302 61.5795C108.36 61.6236 108.407 61.6814 108.438 61.7478C108.468 61.8352 108.472 61.9297 108.448 62.0193C108.425 62.1088 108.375 62.1893 108.306 62.2504C108.236 62.3116 108.15 62.3506 108.058 62.3624C107.966 62.3743 107.873 62.3584 107.79 62.317C107.727 62.2773 107.675 62.2224 107.639 62.1574C107.603 62.0925 107.583 62.0194 107.582 61.945C107.582 61.692 107.738 61.6064 107.746 61.6325C107.753 61.6585 107.675 61.7515 107.716 61.9264C107.725 61.9733 107.744 62.0177 107.772 62.0568C107.799 62.0959 107.835 62.1287 107.876 62.1533C107.926 62.1722 107.981 62.177 108.034 62.1674C108.087 62.1577 108.136 62.1338 108.177 62.0983C108.217 62.0628 108.247 62.017 108.264 61.9658C108.28 61.9145 108.282 61.8598 108.27 61.8073C108.252 61.7632 108.225 61.7235 108.19 61.6908C108.156 61.6581 108.114 61.6331 108.069 61.6176C107.898 61.5618 107.787 61.6399 107.772 61.6176Z" fill="#263238"/>
<path d="M110.347 61.7933C109.646 61.3112 108.983 60.7765 108.364 60.1937C107.702 59.6576 107.08 59.0732 106.504 58.4453C107.204 58.9274 107.867 59.4621 108.487 60.0449C109.149 60.581 109.771 61.1654 110.347 61.7933Z" fill="#263238"/>
<path d="M103.111 60.1104C103.111 60.1104 103.145 60.1104 103.201 60.1662L103.442 60.3485L104.365 61.0664L107.713 63.73H107.624L117.006 57.3167L118.94 56.0035H118.962C123.095 55.2297 126.692 54.2663 129.285 53.6264C130.58 53.3028 131.621 53.0461 132.339 52.8824L133.165 52.6964C133.261 52.6726 133.358 52.654 133.455 52.6406C133.366 52.68 133.272 52.7099 133.176 52.7299L132.358 52.9494L129.315 53.7566C126.733 54.4262 123.14 55.4158 118.996 56.197H119.033L117.102 57.5101L107.691 63.8825L107.646 63.9122L107.605 63.8787L104.287 61.1669L103.39 60.4229L103.16 60.222C103.141 60.1862 103.124 60.1488 103.111 60.1104Z" fill="#263238"/>
<g opacity="0.3">
<path opacity="0.3" d="M127.466 44.4311C128.718 44.9997 130.106 45.2009 131.469 45.0114C133.701 44.6877 135.415 43.3039 136.796 43.9958C138.176 44.6877 141.185 48.7537 142.61 49.892C144.035 51.0303 147.386 49.892 147.386 49.892H145.355L142.476 47.7084C142.476 47.7084 140.043 42.4371 138.213 42.24C136.383 42.0428 132.198 42.24 132.198 42.24L127.466 44.4311Z" fill="black"/>
</g>
<path d="M147.007 48.8816C146.829 49.3763 145.832 49.5251 145.173 49.2536C144.6 48.9225 144.111 48.4628 143.745 47.9107C142.257 45.8498 141.174 43.5285 139.199 41.9364C137.823 40.8203 135.806 40.4483 134.043 40.3851C132.28 40.3219 130.52 40.5934 128.753 40.6009C124.535 40.6232 124.099 39.8792 120.859 38.4805L118.479 39.9945L119.844 42.6617C119.844 42.6617 127.321 44.9942 130.412 44.3804C133.548 43.748 135.68 42.9407 137.268 43.5248C140.616 44.7635 142.182 49.1048 144.135 49.912C145.258 50.3766 146.517 50.3913 147.651 49.953L147.007 48.8816Z" fill="#455A64"/>
<path d="M146.513 49.4967L146.669 48.0087L147.234 47.6367L147.978 47.7037L148.38 48.3807C148.38 48.3807 148.324 50.0138 147.037 50.1366L146.513 49.4967Z" fill="#455A64"/>
<path d="M147.449 50.0042C147.412 50.0414 147.193 49.8814 146.966 49.6322C146.881 49.5345 146.785 49.4471 146.679 49.3718C146.601 49.3234 146.538 49.3123 146.534 49.2825C146.531 49.2528 146.605 49.2156 146.728 49.2453C146.873 49.2915 147.002 49.3779 147.1 49.4946C147.334 49.7475 147.487 49.967 147.449 50.0042Z" fill="#263238"/>
<path d="M148.209 49.3052C148.161 49.3349 147.908 48.9815 147.498 48.6467C147.089 48.3119 146.702 48.1222 146.725 48.0664C147.056 48.1324 147.366 48.2803 147.626 48.4967C147.886 48.713 148.088 48.991 148.213 49.3052H148.209Z" fill="#263238"/>
<path d="M156.638 30.2484C156.917 30.0858 157.137 29.8397 157.268 29.5449C157.399 29.2501 157.433 28.9215 157.367 28.6059C157.301 28.2902 157.137 28.0034 156.899 27.7861C156.66 27.5688 156.359 27.432 156.039 27.3952C156.111 27.0853 156.102 26.7619 156.012 26.4567C155.922 26.1515 155.754 25.8749 155.525 25.654C155.296 25.4331 155.013 25.2755 154.705 25.1967C154.397 25.1178 154.073 25.1204 153.766 25.2041C153.501 24.8246 153.117 24.545 152.675 24.4101C152.232 24.2751 151.757 24.2928 151.326 24.4601C151.043 24.3354 150.728 24.3018 150.426 24.3641C150.123 24.4263 149.847 24.5813 149.636 24.8075C149.426 25.0336 149.291 25.3198 149.25 25.6262C149.21 25.9326 149.265 26.244 149.41 26.5172L155.269 32.8412C155.605 32.9574 155.972 32.9492 156.303 32.8182C156.633 32.6872 156.906 32.442 157.072 32.1272C157.237 31.8123 157.285 31.4485 157.205 31.1018C157.125 30.7551 156.924 30.4484 156.638 30.2372V30.2484Z" fill="#263238"/>
<path d="M150.947 25.8813L150.634 25.7957C147.205 25.0517 144.664 27.5516 144.017 31.0037L141.967 40.9622L146.624 46.252L147.621 47.6173L149.396 43.7782C149.396 43.7782 152.777 44.1763 153.718 40.9436C154.172 39.3849 154.834 36.1076 155.422 33.1316C155.727 31.5815 155.435 29.9735 154.606 28.6292C153.776 27.2849 152.469 26.3035 150.947 25.8813Z" fill="#AE7461"/>
<path d="M149.425 43.777C147.918 43.3597 146.564 42.5177 145.522 41.3516C145.522 41.3516 145.623 44.1564 148.937 44.7628L149.425 43.777Z" fill="#6F4439"/>
<path d="M153.636 35.7622C153.605 35.8838 153.526 35.988 153.418 36.0521C153.31 36.1162 153.181 36.135 153.06 36.1045C152.998 36.0948 152.94 36.0727 152.888 36.0395C152.835 36.0063 152.79 35.9627 152.755 35.9115C152.72 35.8603 152.697 35.8024 152.685 35.7416C152.673 35.6807 152.674 35.6181 152.688 35.5576C152.719 35.4367 152.797 35.3329 152.904 35.2683C153.011 35.2037 153.139 35.1834 153.26 35.2117C153.322 35.2219 153.381 35.2444 153.433 35.2779C153.486 35.3115 153.531 35.3553 153.566 35.4067C153.601 35.4582 153.625 35.5162 153.637 35.5773C153.65 35.6384 153.649 35.7013 153.636 35.7622Z" fill="#263238"/>
<path d="M154.283 34.5013C154.213 34.546 153.934 34.1888 153.435 34.0512C152.937 33.9136 152.502 34.0512 152.464 33.988C152.427 33.9247 152.535 33.8578 152.725 33.7871C152.982 33.6991 153.259 33.6913 153.521 33.7648C153.781 33.8361 154.012 33.9886 154.179 34.2C154.298 34.36 154.321 34.4827 154.283 34.5013Z" fill="#263238"/>
<path d="M149.202 34.5672C149.168 34.6877 149.09 34.7907 148.982 34.8545C148.875 34.9183 148.747 34.938 148.625 34.9095C148.564 34.8993 148.505 34.8768 148.453 34.8432C148.4 34.8096 148.355 34.7657 148.321 34.7142C148.286 34.6627 148.262 34.6046 148.25 34.5435C148.239 34.4824 148.24 34.4196 148.253 34.3589C148.286 34.2384 148.365 34.1355 148.472 34.0716C148.58 34.0078 148.708 33.9881 148.83 34.0167C148.891 34.0273 148.949 34.0502 149.001 34.0839C149.053 34.1176 149.098 34.1615 149.133 34.2129C149.167 34.2643 149.191 34.3221 149.203 34.383C149.215 34.4439 149.215 34.5066 149.202 34.5672Z" fill="#263238"/>
<path d="M149.362 33.2318C149.287 33.2764 149.008 32.9193 148.51 32.7817C148.011 32.644 147.58 32.7817 147.543 32.7184C147.505 32.6552 147.61 32.5919 147.803 32.5175C148.06 32.4296 148.338 32.4218 148.599 32.4952C148.859 32.5666 149.09 32.7191 149.258 32.9305C149.377 33.109 149.399 33.2132 149.362 33.2318Z" fill="#263238"/>
<path d="M150.143 37.4298C150.429 37.4227 150.715 37.4502 150.994 37.5116C151.125 37.534 151.251 37.5414 151.296 37.4596C151.343 37.3309 151.351 37.1909 151.318 37.0578C151.285 36.7193 151.247 36.3622 151.21 35.9864C151.091 35.0689 151.044 34.1436 151.069 33.2188C151.132 33.2188 151.292 34.4426 151.441 35.9678C151.471 36.3398 151.5 36.7118 151.53 37.0429C151.569 37.2186 151.542 37.4023 151.456 37.56C151.426 37.6003 151.386 37.6328 151.341 37.6548C151.296 37.6768 151.246 37.6876 151.195 37.6865C151.12 37.6875 151.045 37.6775 150.972 37.6567C150.687 37.6178 150.408 37.5415 150.143 37.4298Z" fill="#263238"/>
<path d="M150.035 31.3154C149.946 31.4382 149.466 31.2373 148.864 31.1443C148.261 31.0513 147.748 31.0811 147.699 30.936C147.681 30.869 147.8 30.7649 148.027 30.6867C148.325 30.5935 148.641 30.5731 148.949 30.6272C149.259 30.6715 149.553 30.7916 149.805 30.9769C149.994 31.122 150.073 31.2485 150.035 31.3154Z" fill="#263238"/>
<path d="M154.503 33.0115C154.384 33.1008 154.071 32.885 153.662 32.766C153.253 32.6469 152.877 32.6321 152.832 32.4907C152.81 32.4237 152.899 32.3233 153.082 32.2601C153.323 32.1879 153.579 32.1894 153.819 32.2643C154.059 32.3392 154.271 32.4841 154.428 32.6804C154.54 32.8367 154.555 32.9669 154.503 33.0115Z" fill="#263238"/>
<path d="M143.663 34.298C143.692 34.1776 143.697 34.0526 143.677 33.9303C143.656 33.8081 143.611 33.6913 143.545 33.587C143.478 33.4826 143.391 33.3929 143.288 33.3233C143.186 33.2537 143.07 33.2056 142.948 33.182C142.327 33.0704 141.557 33.2266 141.252 34.4877C140.705 36.7197 143.064 36.809 143.082 36.7457C143.101 36.6825 143.443 35.2354 143.663 34.298Z" fill="#AE7461"/>
<path d="M142.804 35.7894C142.804 35.7894 142.755 35.808 142.685 35.8191C142.582 35.8373 142.477 35.8146 142.391 35.7559C142.268 35.629 142.182 35.4718 142.141 35.3004C142.1 35.1291 142.105 34.9498 142.156 34.7812C142.197 34.589 142.281 34.4084 142.402 34.253C142.44 34.187 142.494 34.1314 142.559 34.0912C142.624 34.0509 142.698 34.0273 142.774 34.0224C142.821 34.0228 142.867 34.0391 142.904 34.0688C142.942 34.0985 142.968 34.1398 142.978 34.186C142.978 34.2567 142.978 34.2976 142.978 34.3051C142.978 34.3125 143.034 34.279 143.038 34.1823C143.041 34.1233 143.022 34.0653 142.986 34.0186C142.935 33.9581 142.863 33.9194 142.785 33.9108C142.689 33.9063 142.593 33.9269 142.507 33.9706C142.421 34.0143 142.347 34.0795 142.294 34.16C142.15 34.3284 142.051 34.5307 142.007 34.7478C141.945 34.9456 141.943 35.1576 142.002 35.3565C142.061 35.5555 142.178 35.7321 142.339 35.8638C142.395 35.8956 142.457 35.9145 142.522 35.919C142.586 35.9235 142.651 35.9136 142.711 35.8898C142.785 35.8414 142.807 35.7931 142.804 35.7894Z" fill="#6F4439"/>
<path d="M154.86 27.9888C154.857 27.9281 154.846 27.8681 154.827 27.8102C154.754 27.5925 154.632 27.3947 154.47 27.232C154.308 27.0694 154.111 26.9464 153.893 26.8728C153.682 26.6771 153.455 26.498 153.216 26.3371C153.134 26.0066 152.968 25.7025 152.735 25.4539C152.502 25.2053 152.209 25.0202 151.885 24.9163C151.561 24.8123 151.215 24.7929 150.881 24.86C150.547 24.927 150.235 25.0782 149.976 25.2992L149.69 25.2658C149.498 25.02 149.253 24.8212 148.974 24.6844C148.694 24.5477 148.387 24.4766 148.075 24.4766C147.764 24.4766 147.456 24.5477 147.177 24.6844C146.897 24.8212 146.652 25.02 146.461 25.2658C146.209 25.1206 145.92 25.0523 145.63 25.0693C145.34 25.0863 145.061 25.188 144.828 25.3617C144.595 25.5354 144.418 25.7735 144.319 26.0467C144.219 26.3198 144.202 26.6161 144.27 26.8988C144.034 26.9431 143.814 27.0471 143.63 27.2008C143.447 27.3545 143.306 27.5528 143.221 27.7768C143.189 27.8823 143.179 27.9931 143.191 28.1025C143.204 28.2119 143.238 28.3177 143.292 28.4136C143.346 28.5094 143.419 28.5934 143.507 28.6604C143.594 28.7274 143.694 28.776 143.801 28.8035C143.424 29.9259 143.136 31.0765 142.942 32.2445C142.715 33.5502 143.481 34.0189 143.433 34.3314C142.99 37.0433 144.37 35.9012 146.189 30.7528C146.288 30.7403 146.382 30.704 146.464 30.647C146.546 30.5899 146.612 30.5139 146.658 30.4254C146.728 30.2803 146.74 30.0906 146.874 29.9976C147.007 29.9046 147.246 29.9976 147.428 30.0683C147.745 30.1837 148.091 30.1864 148.41 30.0759C148.728 29.9655 148.999 29.7486 149.176 29.4619C149.245 29.5995 149.363 29.7064 149.507 29.7614C149.651 29.8165 149.81 29.8158 149.954 29.7595C150.235 29.6361 150.498 29.4747 150.735 29.2796C150.855 29.1836 150.997 29.1181 151.148 29.089C151.299 29.0598 151.454 29.0678 151.602 29.1122C151.758 29.1792 151.884 29.3206 152.056 29.3503C152.353 29.4061 152.587 29.1048 152.714 28.8295C152.793 28.5783 152.946 28.3568 153.153 28.1934C153.344 28.1599 153.539 28.1599 153.73 28.1934C153.837 28.238 153.949 28.2901 154.053 28.3385C154.102 28.3574 154.151 28.3735 154.202 28.3868C154.266 28.4292 154.327 28.4765 154.384 28.5282C155.232 29.2722 155.523 31.5414 155.523 31.5414C155.95 30.2692 155.549 29.0192 154.86 27.9888Z" fill="#263238"/>
<path d="M153.265 27.4922C153.265 27.4922 153.265 27.4922 153.265 27.5331C153.251 27.5713 153.235 27.6085 153.216 27.6447C153.145 27.7834 153.051 27.9092 152.937 28.0167C152.756 28.1869 152.539 28.3141 152.301 28.3887C151.984 28.4973 151.64 28.4973 151.323 28.3887L151.371 28.3515C151.377 28.4604 151.362 28.5695 151.325 28.6723C151.289 28.7751 151.233 28.8697 151.159 28.9504C151.003 29.121 150.824 29.2687 150.627 29.3894C150.527 29.4611 150.419 29.5234 150.307 29.5754C150.188 29.6156 150.06 29.6271 149.935 29.6089C149.8 29.5912 149.67 29.5407 149.559 29.4615C149.447 29.3824 149.357 29.2772 149.295 29.155H149.385C149.29 29.3837 149.147 29.5893 148.966 29.7581C148.785 29.9269 148.57 30.0548 148.336 30.1334C148.083 30.231 147.805 30.244 147.543 30.1706C147.299 30.0855 147.072 29.9598 146.87 29.7986H146.937C146.746 30.0338 146.501 30.219 146.223 30.338C146.092 30.3996 145.95 30.4315 145.806 30.4315C145.662 30.4315 145.52 30.3996 145.389 30.338C145.171 30.2244 144.99 30.0495 144.869 29.8348C144.748 29.6201 144.693 29.3749 144.709 29.129L144.753 29.1662C144.486 29.2259 144.205 29.1904 143.961 29.0657C143.779 28.9803 143.619 28.8528 143.496 28.6937C143.418 28.5906 143.359 28.4748 143.321 28.3515C143.308 28.3092 143.301 28.2655 143.299 28.2213C143.344 28.3836 143.421 28.5353 143.526 28.6677C143.647 28.826 143.804 28.9535 143.983 29.0397C144.216 29.1483 144.478 29.1758 144.727 29.1178H144.776V29.1699C144.765 29.3981 144.819 29.6246 144.933 29.8225C145.048 30.0204 145.216 30.1812 145.419 30.2859C145.536 30.3401 145.663 30.3682 145.791 30.3682C145.92 30.3682 146.047 30.3401 146.163 30.2859C146.435 30.172 146.675 29.9917 146.859 29.7614L146.889 29.7242L146.926 29.7539C147.12 29.9021 147.337 30.0165 147.569 30.0925C147.815 30.162 148.076 30.1502 148.313 30.059C148.528 29.9842 148.725 29.8655 148.892 29.7105C149.058 29.5556 149.191 29.3677 149.281 29.1587L149.325 29.0583L149.374 29.1587C149.427 29.2617 149.504 29.3507 149.599 29.4185C149.693 29.4864 149.802 29.5312 149.917 29.5493C150.032 29.5676 150.149 29.5574 150.259 29.5196C150.365 29.4733 150.466 29.416 150.56 29.3485C150.751 29.2337 150.924 29.0921 151.074 28.9281C151.142 28.8563 151.195 28.7717 151.23 28.679C151.265 28.5864 151.282 28.4877 151.278 28.3887V28.3292L151.33 28.3515C151.635 28.4525 151.963 28.4525 152.268 28.3515C152.501 28.2744 152.714 28.1474 152.893 27.9795C153.043 27.8388 153.169 27.6741 153.265 27.4922Z" fill="#455A64"/>
<path d="M149.046 37.8716C148.991 37.833 148.927 37.8098 148.86 37.8047C148.752 37.8047 148.674 37.9163 148.626 38.013C148.541 38.1774 148.492 38.3579 148.482 38.5427C148.473 38.7274 148.502 38.9121 148.57 39.0844C148.626 39.2125 148.723 39.3184 148.845 39.3857C149.055 39.4941 149.299 39.5207 149.527 39.4602C149.756 39.3998 149.955 39.2565 150.084 39.0583L150.393 38.6156C150.102 38.4445 149.336 38.0428 149.046 37.8716Z" fill="#6F4439"/>
<path d="M150.411 38.6088C150.228 38.5901 150.052 38.5248 149.901 38.419C149.536 38.1916 149.147 38.0045 148.741 37.861L148.845 37.8164C148.808 37.8834 148.767 37.9578 148.73 38.0322C148.602 38.2582 148.546 38.5177 148.57 38.7762C148.581 38.8763 148.615 38.9726 148.669 39.0576C148.724 39.1427 148.796 39.2143 148.882 39.2672C149.191 39.442 149.448 39.4644 149.436 39.4978C149.222 39.5332 149.001 39.4938 148.812 39.3862C148.701 39.3289 148.606 39.2465 148.534 39.1457C148.462 39.0449 148.414 38.9285 148.395 38.8059C148.356 38.5134 148.412 38.216 148.555 37.9578C148.596 37.8759 148.637 37.7978 148.678 37.7271L148.715 37.6602L148.782 37.6825C149.208 37.8308 149.609 38.0455 149.968 38.3186C150.124 38.4033 150.272 38.5004 150.411 38.6088Z" fill="#263238"/>
<path d="M171.299 89.3982L177.515 96.8382L188.232 86.8462C187.217 85.8828 179.762 88.989 179.762 88.989L176.328 85.0234L171.299 89.3982Z" fill="#263238"/>
<path d="M176.013 91.6045C175.939 91.7321 175.915 91.8823 175.945 92.0264C175.976 92.1705 176.058 92.2984 176.176 92.3857C176.301 92.4634 176.45 92.4908 176.593 92.4625C176.737 92.4341 176.865 92.3522 176.95 92.2332C177.029 92.0984 177.054 91.9392 177.022 91.7866C176.99 91.634 176.902 91.4988 176.775 91.4074C176.637 91.3376 176.477 91.3247 176.33 91.3712C176.183 91.4178 176.059 91.5203 175.987 91.6566" fill="#E0E0E0"/>
<path d="M177.515 96.8205L176.663 95.924L187.332 86.7245C187.332 86.7245 188.002 86.4938 188.258 86.8807L177.515 96.8205Z" fill="#E0E0E0"/>
<path d="M179.881 88.7704C179.926 88.8225 179.687 89.0903 179.587 89.5144C179.487 89.9385 179.554 90.2584 179.487 90.2919C179.42 90.3253 179.215 89.9422 179.345 89.4511C179.475 88.9601 179.847 88.7109 179.881 88.7704Z" fill="#E0E0E0"/>
<path d="M181.436 88.1886C181.495 88.2295 181.35 88.5271 181.38 88.914C181.41 89.3009 181.574 89.5836 181.521 89.632C181.469 89.6803 181.149 89.4125 181.149 88.9289C181.149 88.4453 181.388 88.1403 181.436 88.1886Z" fill="#E0E0E0"/>
<path d="M183.325 88.9391C183.288 88.9949 182.972 88.8015 182.842 88.3885C182.712 87.9756 182.842 87.6445 182.909 87.6445C182.976 87.6445 182.965 87.9607 183.076 88.2955C183.188 88.6303 183.374 88.887 183.325 88.9391Z" fill="#E0E0E0"/>
<path d="M178.609 87.595C178.631 87.6619 178.326 87.8144 178.047 88.1083C177.768 88.4022 177.627 88.711 177.56 88.6924C177.493 88.6738 177.537 88.2794 177.869 87.9484C178.2 87.6173 178.598 87.528 178.609 87.595Z" fill="#E0E0E0"/>
<path d="M177.169 86.561C177.192 86.5833 177.017 86.8065 176.634 87.0595C176.407 87.2031 176.165 87.3204 175.912 87.4092C175.761 87.4593 175.607 87.5003 175.451 87.5319C175.36 87.5551 175.266 87.5639 175.172 87.558C175.103 87.5525 175.038 87.5243 174.987 87.4779C174.935 87.4314 174.901 87.3693 174.889 87.3013C174.881 87.2404 174.887 87.1785 174.907 87.1204C174.927 87.0623 174.961 87.0096 175.004 86.9665C175.073 86.9039 175.149 86.8502 175.231 86.8065C175.373 86.7288 175.521 86.6641 175.674 86.6131C175.93 86.5236 176.199 86.4771 176.47 86.4755C176.719 86.4496 176.971 86.4988 177.192 86.6168C177.192 86.6577 176.909 86.6168 176.481 86.6503C176.227 86.6772 175.976 86.7372 175.737 86.8289C175.6 86.8799 175.468 86.9434 175.343 87.0186C175.202 87.0967 175.105 87.186 175.123 87.2604C175.142 87.3348 175.123 87.3013 175.19 87.3125C175.259 87.3144 175.328 87.3082 175.395 87.2939C175.547 87.2641 175.693 87.2306 175.83 87.1897C176.073 87.1173 176.308 87.0226 176.533 86.907C176.737 86.7775 176.95 86.6619 177.169 86.561Z" fill="#E0E0E0"/>
<path d="M177.173 86.7005C177.173 86.7265 176.883 86.6372 176.548 86.3285C176.354 86.1388 176.194 85.9173 176.075 85.6738C176.004 85.5287 175.948 85.3766 175.908 85.2199C175.87 85.1227 175.858 85.0172 175.874 84.9141C175.89 84.8109 175.932 84.7137 175.997 84.6322C176.047 84.5873 176.108 84.5579 176.174 84.5473C176.24 84.5368 176.308 84.5455 176.369 84.5726C176.454 84.6106 176.534 84.6594 176.607 84.7177C176.739 84.8224 176.852 84.9481 176.942 85.0897C177.1 85.3189 177.2 85.5833 177.232 85.8598C177.281 86.3322 177.121 86.6038 177.098 86.5814C177.1 86.3489 177.086 86.1165 177.057 85.8858C177.006 85.6458 176.904 85.4198 176.756 85.2236C176.671 85.1098 176.571 85.0083 176.458 84.9223C176.336 84.8256 176.209 84.7735 176.176 84.8256C176.147 84.8789 176.131 84.9377 176.127 84.998C176.123 85.0583 176.132 85.1188 176.153 85.1753C176.186 85.3169 176.232 85.4551 176.291 85.5882C176.392 85.8168 176.524 86.0298 176.685 86.2206C176.957 86.5219 177.195 86.6782 177.173 86.7005Z" fill="#E0E0E0"/>
<path d="M108.546 106.262L99.2461 108.962L104.06 122.782C105.354 122.243 105.514 114.17 105.514 114.17L110.525 112.623L108.546 106.262Z" fill="#263238"/>
<path d="M104.625 109.685C104.538 109.567 104.41 109.484 104.266 109.454C104.122 109.424 103.972 109.448 103.844 109.521C103.722 109.603 103.635 109.728 103.603 109.872C103.571 110.016 103.596 110.166 103.673 110.291C103.764 110.418 103.9 110.506 104.053 110.537C104.205 110.569 104.365 110.542 104.499 110.463C104.617 110.364 104.693 110.223 104.709 110.07C104.726 109.916 104.683 109.762 104.588 109.64" fill="#E0E0E0"/>
<path d="M99.2461 108.963L100.41 108.543L104.532 122.017C104.532 122.017 104.473 122.724 104.015 122.802L99.2461 108.963Z" fill="#E0E0E0"/>
<path d="M105.648 114.367C105.577 114.389 105.432 114.062 105.097 113.805C104.762 113.549 104.42 113.471 104.424 113.4C104.428 113.329 104.855 113.292 105.253 113.612C105.651 113.932 105.73 114.36 105.648 114.367Z" fill="#E0E0E0"/>
<path d="M105.566 116.028C105.506 116.065 105.291 115.816 104.926 115.685C104.561 115.555 104.234 115.592 104.216 115.525C104.197 115.458 104.561 115.28 105.012 115.451C105.462 115.622 105.648 116.005 105.566 116.028Z" fill="#E0E0E0"/>
<path d="M104.119 117.456C104.082 117.4 104.387 117.188 104.819 117.233C105.25 117.277 105.503 117.541 105.458 117.605C105.414 117.668 105.146 117.527 104.793 117.493C104.439 117.46 104.16 117.519 104.119 117.456Z" fill="#E0E0E0"/>
<path d="M107.248 113.681C107.177 113.681 107.162 113.331 107.002 112.959C106.842 112.587 106.63 112.33 106.667 112.275C106.705 112.219 107.039 112.423 107.233 112.862C107.426 113.301 107.315 113.696 107.248 113.681Z" fill="#E0E0E0"/>
<path d="M108.773 112.78C108.635 112.574 108.554 112.335 108.539 112.088C108.496 111.822 108.486 111.553 108.509 111.285C108.521 111.125 108.544 110.968 108.58 110.812C108.596 110.72 108.626 110.631 108.669 110.548C108.702 110.487 108.754 110.438 108.817 110.41C108.881 110.382 108.952 110.375 109.019 110.392C109.078 110.408 109.133 110.438 109.178 110.48C109.222 110.522 109.256 110.575 109.276 110.634C109.307 110.721 109.325 110.812 109.331 110.905C109.346 111.066 109.346 111.228 109.331 111.389C109.309 111.659 109.242 111.924 109.134 112.174C108.952 112.598 108.736 112.795 108.714 112.776C108.692 112.758 108.84 112.523 108.971 112.11C109.048 111.869 109.093 111.619 109.104 111.366C109.114 111.219 109.114 111.071 109.104 110.924C109.104 110.764 109.049 110.641 108.971 110.626C108.892 110.611 108.93 110.626 108.896 110.667C108.867 110.729 108.846 110.794 108.833 110.86C108.798 111.005 108.77 111.152 108.751 111.299C108.719 111.546 108.712 111.795 108.729 112.043C108.762 112.287 108.777 112.534 108.773 112.78Z" fill="#E0E0E0"/>
<path d="M108.647 112.714C108.628 112.714 108.825 112.476 109.253 112.301C109.504 112.199 109.771 112.141 110.042 112.13C110.203 112.125 110.365 112.135 110.525 112.16C110.629 112.165 110.73 112.198 110.818 112.254C110.906 112.31 110.978 112.388 111.028 112.48C111.051 112.544 111.055 112.614 111.038 112.68C111.021 112.746 110.985 112.806 110.935 112.852C110.867 112.915 110.79 112.969 110.708 113.012C110.561 113.09 110.403 113.145 110.239 113.175C109.968 113.227 109.687 113.211 109.424 113.127C108.97 112.982 108.792 112.729 108.814 112.714C109.026 112.808 109.243 112.889 109.465 112.956C109.71 113.012 109.964 113.012 110.209 112.956C110.348 112.926 110.481 112.874 110.603 112.803C110.745 112.733 110.842 112.636 110.808 112.588C110.775 112.539 110.633 112.439 110.499 112.424C110.356 112.396 110.21 112.382 110.064 112.383C109.812 112.383 109.562 112.418 109.32 112.487C108.9 112.595 108.669 112.755 108.647 112.714Z" fill="#E0E0E0"/>
<path d="M119.148 74.2903C119.148 74.2903 118.255 78.7022 119.52 82.1655C120.785 85.6288 121.953 86.5179 121.953 86.5179L123.043 99.125L121.953 99.4561L104.532 105.992L106.876 115.028C106.876 115.028 129.817 107.171 131.551 105.438C133.284 103.704 133.437 101.595 133.898 97.5514C134.359 93.5078 134.225 79.7512 134.225 79.7512L125.122 70.0234L119.412 72.4675" fill="#263238"/>
<path d="M120.197 77.8728C120.402 80.7372 123.482 85.9266 130.985 83.8062C138.488 81.6858 153.145 74.9601 153.145 74.9601L154.109 75.2019L173.081 93.4299L180.297 85.9899L160.299 65.6973C159.488 64.858 158.498 64.2136 157.403 63.8128C156.307 63.412 155.135 63.2652 153.975 63.3834C153.806 63.402 153.638 63.4293 153.472 63.4653C152.096 63.7852 129.106 68.7626 129.106 68.7626L126.677 69.3764L119.743 72.3077L120.197 77.8728Z" fill="#263238"/>
<path d="M156.173 70.0156C156.158 70.2962 156.097 70.5724 155.995 70.834C155.794 71.4813 155.523 72.105 155.188 72.694C154.851 73.2819 154.456 73.8341 154.008 74.342C153.834 74.5632 153.627 74.7565 153.395 74.9149C153.983 74.1764 154.526 73.4024 155.02 72.5973C155.454 71.7597 155.839 70.8977 156.173 70.0156Z" fill="#455A64"/>
<path d="M127.336 74.4023C127.204 74.6834 127.038 74.947 126.841 75.1873C126.397 75.7909 125.911 76.3627 125.387 76.8985C124.862 77.4337 124.3 77.931 123.705 78.3865C123.469 78.587 123.209 78.7582 122.932 78.8961C123.144 78.6716 123.374 78.465 123.62 78.2786C124.055 77.9066 124.639 77.3821 125.249 76.7608C125.859 76.1396 126.365 75.5444 126.737 75.1054C126.916 74.8538 127.116 74.6185 127.336 74.4023Z" fill="#455A64"/>
<path d="M122.329 85.6172C125.11 86.6895 128.181 86.7474 131 85.7809L122.329 85.6172Z" fill="#263238"/>
<path d="M131 85.7803C130.902 85.8446 130.794 85.8923 130.681 85.9217C130.383 86.0352 130.079 86.1297 129.769 86.2044C127.719 86.716 125.571 86.6749 123.542 86.0854C123.237 85.9978 122.938 85.8934 122.645 85.7729C122.534 85.7349 122.427 85.6824 122.329 85.6167C122.329 85.5869 122.805 85.758 123.579 85.9552C125.597 86.4619 127.704 86.5013 129.739 86.0705C130.521 85.9031 130.989 85.7506 131 85.7803Z" fill="#455A64"/>
<path d="M126.666 69.374L126.975 69.2847L127.886 69.0466C128.288 68.9462 128.783 68.8048 129.374 68.6746L131.424 68.2208L144.567 65.334C147.357 64.7277 150.4 64.0432 153.707 63.3476C155.466 63.0937 157.258 63.4636 158.773 64.3929C159.554 64.8819 160.262 65.4793 160.875 66.1673L162.854 68.1687L180.364 85.8982L180.431 85.9652L180.364 86.0358L176.079 90.4664L173.151 93.4907L173.084 93.5614L173.014 93.4945L154.042 75.2664L154.079 75.2888L153.115 75.047H153.175C148.03 77.3757 143.22 79.418 138.912 81.0957C136.755 81.9364 134.716 82.6916 132.8 83.3054C131.885 83.6134 130.954 83.8717 130.01 84.0791C129.145 84.2621 128.261 84.3457 127.377 84.3284C125.868 84.3058 124.401 83.8301 123.166 82.9631C122.261 82.316 121.518 81.4696 120.993 80.4893C120.666 79.8844 120.428 79.2354 120.286 78.5624C120.251 78.3892 120.226 78.214 120.212 78.0378C120.212 77.9188 120.212 77.8593 120.212 77.8593C120.212 77.8593 120.212 77.9188 120.242 78.0378C120.26 78.2119 120.29 78.3847 120.331 78.5549C120.73 80.3104 121.761 81.8573 123.229 82.8999C124.453 83.7499 125.905 84.2113 127.395 84.2242C128.27 84.2383 129.144 84.1535 129.999 83.9712C130.899 83.7815 131.822 83.4951 132.778 83.1901C134.686 82.5688 136.721 81.8099 138.875 80.958C143.187 79.258 147.982 77.2083 153.138 74.861H153.167H153.197L154.157 75.099H154.183L173.155 93.3271H173.017L175.945 90.3027L180.234 85.8684V86.0061L162.75 68.2617L160.771 66.2566C160.169 65.5784 159.475 64.9875 158.71 64.5008C157.228 63.5906 155.474 63.2262 153.751 63.4703C150.463 64.1548 147.401 64.8356 144.615 65.4308L131.461 68.2617L129.404 68.6969C128.809 68.8271 128.314 68.961 127.916 69.0689L126.997 69.2884L126.666 69.374Z" fill="#455A64"/>
<g opacity="0.3">
<path opacity="0.3" d="M124.066 83.4799C124.066 83.4799 126.458 85.5593 129.498 85.3175C131.117 85.2252 132.716 84.92 134.255 84.4099V82.7656C134.255 82.7656 128.341 85.4105 124.066 83.4799Z" fill="black"/>
</g>
</svg>
