<svg width="234" height="234" viewBox="0 0 234 234" fill="none" xmlns="http://www.w3.org/2000/svg">
<path d="M234 178.961H0V179.078H234V178.961Z" fill="#EBEBEB"/>
<path d="M210.553 186.492H195.053V186.609H210.553V186.492Z" fill="#EBEBEB"/>
<path d="M155.011 187.766H150.944V187.883H155.011V187.766Z" fill="#EBEBEB"/>
<path d="M194.585 182.148H185.604V182.265H194.585V182.148Z" fill="#EBEBEB"/>
<path d="M44.7647 182.934H24.5518V183.051H44.7647V182.934Z" fill="#EBEBEB"/>
<path d="M51.897 182.934H48.9346V183.051H51.897V182.934Z" fill="#EBEBEB"/>
<path d="M105.371 184.91H61.5283V185.027H105.371V184.91Z" fill="#EBEBEB"/>
<path d="M110.916 158.089H20.5494C19.8415 158.087 19.163 157.805 18.6629 157.304C18.1627 156.803 17.8818 156.124 17.8818 155.416V28.3872C17.888 27.6833 18.1716 27.0103 18.6711 26.5143C19.1706 26.0184 19.8456 25.7395 20.5494 25.7383H110.916C111.624 25.7383 112.304 26.0198 112.805 26.521C113.306 27.0221 113.588 27.7018 113.588 28.4106V155.416C113.588 156.125 113.306 156.805 112.805 157.306C112.304 157.807 111.624 158.089 110.916 158.089ZM20.5494 25.8319C19.8725 25.8331 19.2238 26.1029 18.7456 26.582C18.2674 27.061 17.9988 27.7103 17.9988 28.3872V155.416C17.9988 156.093 18.2674 156.743 18.7456 157.222C19.2238 157.701 19.8725 157.97 20.5494 157.972H110.916C111.593 157.97 112.242 157.701 112.721 157.222C113.2 156.743 113.47 156.094 113.471 155.416V28.3872C113.47 27.7098 113.2 27.0606 112.721 26.5817C112.242 26.1027 111.593 25.8331 110.916 25.8319H20.5494Z" fill="#EBEBEB"/>
<path d="M212.15 158.089H121.779C121.07 158.087 120.391 157.805 119.891 157.305C119.39 156.804 119.108 156.125 119.106 155.416V28.3872C119.114 27.6829 119.398 27.0099 119.899 26.514C120.399 26.0182 121.074 25.7395 121.779 25.7383H212.15C212.853 25.7407 213.526 26.0201 214.025 26.516C214.523 27.0118 214.806 27.6841 214.812 28.3872V155.416C214.812 156.124 214.532 156.802 214.033 157.303C213.534 157.804 212.857 158.086 212.15 158.089ZM121.779 25.8319C121.101 25.8331 120.452 26.1027 119.973 26.5817C119.494 27.0606 119.225 27.7098 119.223 28.3872V155.416C119.225 156.094 119.494 156.743 119.973 157.222C120.452 157.701 121.101 157.97 121.779 157.972H212.15C212.827 157.97 213.476 157.701 213.955 157.222C214.434 156.743 214.704 156.094 214.705 155.416V28.3872C214.704 27.7098 214.434 27.0606 213.955 26.5817C213.476 26.1027 212.827 25.8331 212.15 25.8319H121.779Z" fill="#EBEBEB"/>
<path d="M46.1965 120.781C47.2354 81.8711 79.2045 50.5432 118.357 50.5432C157.51 50.5432 189.493 81.8711 190.518 120.781H205.995C204.951 73.3394 166.042 35.0664 118.357 35.0664C70.6729 35.0664 31.7774 73.3394 30.7197 120.781H46.1965Z" fill="#F5F5F5"/>
<path d="M46.196 120.781C47.235 81.8718 79.2041 50.5439 118.357 50.5439C157.51 50.5439 189.493 81.8718 190.518 120.781H202.129C201.085 75.4743 163.907 38.9375 118.357 38.9375C72.8065 38.9375 35.6286 75.4743 34.585 120.781H46.196Z" fill="#EBEBEB"/>
<path d="M46.1968 120.782C47.2357 81.8725 79.2048 50.5446 118.358 50.5446C157.511 50.5446 189.494 81.8725 190.519 120.782H198.259C197.216 77.6044 161.779 42.8086 118.358 42.8086C74.9367 42.8086 39.495 77.6044 38.4561 120.782H46.1968Z" fill="#FAFAFA"/>
<path d="M46.1963 120.78C47.2353 81.8704 79.2044 50.5425 118.357 50.5425C157.51 50.5425 189.493 81.8704 190.518 120.78H194.389C193.873 100.957 185.636 82.1195 171.433 68.2814C157.23 54.4434 138.184 46.6992 118.355 46.6992C98.5253 46.6992 79.4798 54.4434 65.277 68.2814C51.0741 82.1195 42.8371 100.957 42.3213 120.78H46.1963Z" fill="#E0E0E0"/>
<path d="M34.2248 171.706C34.2248 171.706 32.0252 164.344 36.4712 162.879C40.9172 161.415 43.5567 157.97 43.4069 154.076C43.2572 150.183 47.9372 146.392 51.4472 150.038C54.9572 153.683 54.4892 147.23 59.1692 145.666C63.8492 144.103 67.8178 147.903 66.5355 151.381C65.2532 154.858 69.8723 157.034 75.4275 154.076C80.9826 151.119 87.0386 156.496 85.8686 160.708C84.6986 164.92 85.658 165.388 89.1446 163.984C92.6312 162.58 98.9024 166.558 96.7074 171.706C94.5125 176.854 34.2248 171.706 34.2248 171.706Z" fill="#E0E0E0"/>
<path d="M151.833 172.409C149.493 170.069 151.599 166.091 153.939 165.623C156.279 165.155 158.619 161.041 158.746 158.416C158.872 155.79 163.065 147.736 169.617 152.711C176.169 157.686 174.18 153.446 178.921 152.046C183.662 150.647 186.648 154.672 184.57 157.69C184.57 157.69 189.33 156.497 191.29 160.943C193.251 165.389 191.29 168.15 191.29 168.15C191.29 168.15 200.248 167.888 199.443 173.424C198.638 178.961 151.833 172.409 151.833 172.409Z" fill="#E0E0E0"/>
<path d="M207.324 172.551V178.963H26.6756V172.551C26.6618 172.295 26.6997 172.039 26.787 171.798C26.8744 171.557 27.0095 171.335 27.1842 171.148C27.3589 170.96 27.5697 170.809 27.804 170.705C28.0382 170.6 28.2912 170.544 28.5476 170.539H205.452C205.708 170.544 205.961 170.6 206.195 170.705C206.43 170.809 206.64 170.96 206.815 171.148C206.99 171.335 207.125 171.557 207.212 171.798C207.3 172.039 207.338 172.295 207.324 172.551Z" fill="#EBEBEB"/>
<path d="M48.2037 170.539H36.9717V178.963H48.2037V170.539Z" fill="#F5F5F5"/>
<path d="M69.264 170.539H58.5V178.963H69.264V170.539Z" fill="#F5F5F5"/>
<path d="M90.7916 170.539H79.5596V178.963H90.7916V170.539Z" fill="#F5F5F5"/>
<path d="M111.852 170.539H101.088V178.963H111.852V170.539Z" fill="#F5F5F5"/>
<path d="M132.912 170.539H122.148V178.963H132.912V170.539Z" fill="#F5F5F5"/>
<path d="M154.44 170.539H143.208V178.963H154.44V170.539Z" fill="#F5F5F5"/>
<path d="M175.5 170.539H164.736V178.963H175.5V170.539Z" fill="#F5F5F5"/>
<path d="M197.028 170.539H185.796V178.963H197.028V170.539Z" fill="#F5F5F5"/>
<path d="M56.8756 117.532C56.8779 116.888 56.729 116.252 56.4408 115.676C56.1527 115.101 55.7334 114.6 55.2167 114.216C54.6999 113.832 54.1002 113.574 53.4658 113.464C52.8313 113.354 52.1799 113.394 51.5638 113.582C51.7657 112.205 51.636 110.801 51.1855 109.484C50.735 108.168 49.9767 106.979 48.9737 106.015C47.9708 105.05 46.7521 104.34 45.4191 103.942C44.0861 103.544 42.6773 103.47 41.31 103.726C40.4496 102.308 39.1511 101.209 37.6109 100.595C36.0706 99.98 34.3722 99.8835 32.7723 100.32C31.1723 100.756 29.7578 101.701 28.7423 103.012C27.7269 104.323 27.1657 105.929 27.1436 107.587H27.0172C25.1505 107.587 23.3601 108.328 22.0401 109.648C20.7201 110.968 19.9785 112.759 19.9785 114.625C19.9785 116.492 20.7201 118.283 22.0401 119.603C23.3601 120.923 25.1505 121.664 27.0172 121.664H52.8836C53.9559 121.63 54.9726 121.179 55.718 120.408C56.4633 119.636 56.8786 118.605 56.8756 117.532Z" fill="#E0E0E0"/>
<path d="M212.86 118.72C212.863 118.076 212.715 117.44 212.428 116.864C212.14 116.288 211.721 115.788 211.205 115.404C210.688 115.019 210.089 114.762 209.455 114.652C208.82 114.541 208.169 114.582 207.553 114.77C207.611 114.349 207.641 113.926 207.642 113.501C207.642 112.217 207.359 110.949 206.814 109.787C206.268 108.625 205.473 107.598 204.485 106.778C203.497 105.958 202.34 105.366 201.098 105.044C199.855 104.721 198.557 104.677 197.295 104.914C196.433 103.498 195.135 102.401 193.596 101.788C192.056 101.175 190.36 101.079 188.761 101.515C187.162 101.951 185.749 102.895 184.734 104.204C183.719 105.514 183.157 107.118 183.133 108.775H182.988C181.121 108.775 179.331 109.516 178.011 110.836C176.691 112.156 175.949 113.946 175.949 115.813C175.949 117.68 176.691 119.47 178.011 120.79C179.331 122.11 181.121 122.852 182.988 122.852H208.84C209.918 122.826 210.942 122.379 211.694 121.606C212.446 120.834 212.864 119.797 212.86 118.72Z" fill="#E0E0E0"/>
<path d="M204.727 74.4466C204.727 73.7478 204.449 73.0776 203.955 72.5835C203.461 72.0894 202.791 71.8118 202.092 71.8118C201.837 71.8114 201.583 71.8477 201.338 71.9194C201.376 71.6527 201.395 71.3838 201.394 71.1144C201.397 70.3803 201.254 69.6529 200.975 68.9739C200.696 68.2949 200.285 67.6777 199.767 67.1577C199.249 66.6377 198.633 66.2251 197.955 65.9436C197.277 65.6621 196.55 65.5172 195.816 65.5172C195.471 65.5175 195.126 65.5488 194.786 65.6108C194.236 64.707 193.407 64.0067 192.424 63.6154C191.441 63.2241 190.358 63.163 189.337 63.4414C188.317 63.7198 187.414 64.3226 186.766 65.1588C186.118 65.995 185.759 67.0193 185.744 68.0771H185.665C184.498 68.1148 183.391 68.6049 182.579 69.4438C181.767 70.2827 181.312 71.4046 181.312 72.5723C181.312 73.7399 181.767 74.8619 182.579 75.7007C183.391 76.5396 184.498 77.0297 185.665 77.0674H202.176C202.858 77.0456 203.504 76.7603 203.98 76.2716C204.456 75.7828 204.723 75.1286 204.727 74.4466Z" fill="#E0E0E0"/>
<path d="M145.946 40.2445C145.946 39.5494 145.67 38.8828 145.178 38.3913C144.687 37.8998 144.02 37.6237 143.325 37.6237C143.07 37.6226 142.816 37.6604 142.572 37.736C142.611 37.4679 142.631 37.1974 142.632 36.9264C142.626 35.4571 142.038 34.0502 140.997 33.0134C139.956 31.9767 138.546 31.3946 137.077 31.3946C136.733 31.3948 136.39 31.4261 136.052 31.4882C135.505 30.5881 134.68 29.8905 133.701 29.5007C132.722 29.1109 131.643 29.0501 130.627 29.3276C129.611 29.605 128.713 30.2056 128.068 31.0386C127.423 31.8717 127.067 32.8919 127.053 33.9452H126.973C125.787 33.9452 124.648 34.4166 123.809 35.2557C122.97 36.0947 122.499 37.2327 122.499 38.4193C122.499 39.6059 122.97 40.7439 123.809 41.583C124.648 42.422 125.787 42.8934 126.973 42.8934H143.4C144.087 42.8738 144.739 42.5852 145.215 42.0898C145.691 41.5943 145.953 40.9317 145.946 40.2445Z" fill="#E0E0E0"/>
<path d="M63.774 63.6461C63.774 62.951 63.4978 62.2844 63.0063 61.7929C62.5148 61.3014 61.8482 61.0253 61.1531 61.0253C60.8981 61.025 60.6444 61.0612 60.3997 61.133C60.4375 60.8663 60.4563 60.5973 60.4558 60.328C60.4589 59.5971 60.3176 58.8728 60.0401 58.1967C59.7625 57.5206 59.3541 56.906 58.8384 56.3881C58.3227 55.8702 57.7098 55.4592 57.0348 55.1788C56.3599 54.8984 55.6362 54.7541 54.9053 54.7541C54.5616 54.7542 54.2185 54.7856 53.8804 54.8477C53.3334 53.9479 52.5085 53.2504 51.5303 52.8605C50.5521 52.4706 49.4736 52.4095 48.4575 52.6864C47.4415 52.9632 46.5431 53.563 45.8979 54.3953C45.2527 55.2275 44.8957 56.2471 44.8808 57.3H44.8012C43.6146 57.3 42.4766 57.7714 41.6376 58.6105C40.7985 59.4495 40.3271 60.5875 40.3271 61.7741C40.3271 62.9607 40.7985 64.0987 41.6376 64.9378C42.4766 65.7768 43.6146 66.2482 44.8012 66.2482H61.2234C61.9026 66.2288 62.5479 65.9469 63.0235 65.4616C63.4992 64.9764 63.7682 64.3256 63.774 63.6461Z" fill="#E0E0E0"/>
<path d="M117 200.095C167.115 200.095 207.741 197.724 207.741 194.798C207.741 191.872 167.115 189.5 117 189.5C66.8857 189.5 26.2598 191.872 26.2598 194.798C26.2598 197.724 66.8857 200.095 117 200.095Z" fill="#F5F5F5"/>
<path d="M152.872 82.7025L151.328 80.5965C151.374 80.3451 151.359 80.0862 151.284 79.8418C151.209 79.5974 151.077 79.3747 150.897 79.1925C150.28 78.4905 146.269 78.8602 145.651 78.921C145.033 78.9819 144.013 81.4435 144.617 82.1596C145.221 82.8756 149.077 82.9973 149.433 82.6884L150.649 84.3826L152.872 82.7025Z" fill="#9F5B53"/>
<path d="M176.104 77.4758C175.982 75.791 177.04 75.1358 178.388 75.7114C179.735 76.2871 180.901 74.3074 182.698 74.7754C184.495 75.2434 183.943 77.0359 184.869 77.4758C185.796 77.9157 186.84 77.3869 187.242 79.6426C187.645 81.8984 186.166 80.7284 186.816 82.7033C187.467 84.6783 189.404 85.2352 187.752 86.9153C186.1 88.5955 184.977 89.2553 186.273 90.6593C187.57 92.0633 186.166 93.4112 185.571 93.8745C184.977 94.3378 188.15 97.0195 187.256 99.425C186.362 101.83 178.907 104.053 174.307 102.298C169.706 100.543 168.429 97.8853 168.691 94.862C168.953 91.8387 171.185 91.0384 171.031 90.0931C170.876 89.1477 169.407 88.3193 170.24 86.9294C171.073 85.5394 173.385 85.4177 172.645 84.0886C171.906 82.7595 171.999 81.2806 172.832 80.6301C173.665 79.9796 174.442 80.1621 174.288 78.8283C174.133 77.4945 176.104 77.4758 176.104 77.4758Z" fill="#263238"/>
<path d="M172.075 92.0573C172.075 92.0573 161.512 92.1509 159.537 89.7173C157.562 87.2837 152.569 81.4805 152.569 81.4805L149.761 83.2308C149.761 83.2308 154.675 94.2054 157.759 96.6156C160.843 99.0258 170.025 99.5219 170.025 99.5219L172.075 92.0573Z" fill="#353958"/>
<path opacity="0.3" d="M172.075 92.0573C172.075 92.0573 161.512 92.1509 159.537 89.7173C157.562 87.2837 152.569 81.4805 152.569 81.4805L149.761 83.2308C149.761 83.2308 154.675 94.2054 157.759 96.6156C160.843 99.0258 170.025 99.5219 170.025 99.5219L172.075 92.0573Z" fill="white"/>
<path d="M154.047 188.893L156.855 189.389L158.006 185.561L159.054 182.051L155.821 180.918L154.88 185.139L154.047 188.893Z" fill="#E4897B"/>
<path d="M157.488 189.314C157.534 189 153.692 188.574 153.692 188.574C153.692 188.574 150.931 190.54 148.567 190.671C146.204 190.802 147.229 192.393 149.77 192.842L156.051 193.952C157.853 194.27 156.996 192.533 157.488 189.314Z" fill="#353958"/>
<path d="M151.201 189.043C151.154 188.984 151.126 188.912 151.122 188.836C151.117 188.76 151.137 188.685 151.178 188.622C151.202 188.57 151.237 188.524 151.279 188.486C151.322 188.448 151.372 188.419 151.426 188.402C151.716 188.338 152.017 188.358 152.297 188.458C152.016 188.238 151.782 187.99 151.805 187.789C151.805 187.657 151.922 187.564 152.109 187.512C152.192 187.488 152.28 187.482 152.366 187.495C152.451 187.508 152.533 187.539 152.605 187.587C153.073 187.891 153.247 188.832 153.251 188.874C153.256 188.89 153.256 188.906 153.251 188.921V188.944C153.249 188.95 153.246 188.956 153.242 188.961C153.238 188.966 153.233 188.97 153.228 188.973H153.195C152.745 189.101 152.282 189.177 151.815 189.197C151.707 189.214 151.598 189.209 151.492 189.183C151.387 189.156 151.288 189.109 151.201 189.043ZM151.496 188.575C151.468 188.583 151.441 188.598 151.419 188.617C151.396 188.636 151.378 188.66 151.365 188.687C151.3 188.827 151.342 188.879 151.365 188.893C151.515 189.071 152.25 188.987 152.853 188.846C152.432 188.696 151.796 188.481 151.496 188.603V188.575ZM152.166 187.69C152.109 187.69 152.011 187.742 152.006 187.793C152.006 187.966 152.474 188.359 153.003 188.673C152.939 188.314 152.76 187.986 152.493 187.737C152.43 187.696 152.357 187.675 152.283 187.676C152.242 187.682 152.203 187.693 152.166 187.709V187.69Z" fill="#263238"/>
<path opacity="0.2" d="M154.866 185.229L157.992 185.641L159.05 182.089L155.816 180.938L154.866 185.229Z" fill="black"/>
<path d="M172.781 190.096H175.631L176.099 186.127L176.521 182.486L173.137 181.934L172.95 186.253L172.781 190.096Z" fill="#E4897B"/>
<path d="M176.24 189.914C176.24 189.601 172.374 189.844 172.374 189.844C172.374 189.844 170.001 192.259 167.694 192.802C165.387 193.345 166.674 194.73 169.253 194.73H175.631C177.461 194.73 176.319 193.167 176.24 189.914Z" fill="#353958"/>
<path d="M170.001 190.737C169.946 190.687 169.908 190.621 169.891 190.548C169.875 190.475 169.88 190.399 169.907 190.33C169.922 190.274 169.947 190.222 169.983 190.177C170.018 190.132 170.063 190.095 170.113 190.068C170.388 189.957 170.687 189.924 170.979 189.974C170.666 189.806 170.394 189.6 170.38 189.399C170.38 189.268 170.46 189.155 170.633 189.076C170.711 189.039 170.797 189.02 170.883 189.02C170.97 189.02 171.055 189.039 171.134 189.076C171.658 189.291 171.981 190.194 171.995 190.232C172.001 190.244 172.004 190.258 172.004 190.272C172.004 190.285 172.001 190.299 171.995 190.311L171.962 190.339C171.459 190.585 170.918 190.744 170.361 190.807C170.237 190.83 170.108 190.805 170.001 190.737ZM170.216 190.241C170.163 190.27 170.123 190.319 170.104 190.377C170.067 190.531 170.104 190.569 170.132 190.583C170.315 190.733 171.021 190.517 171.588 190.279C171.143 190.139 170.668 190.126 170.216 190.241ZM170.722 189.258C170.67 189.282 170.581 189.333 170.581 189.385C170.581 189.563 171.148 189.853 171.719 190.077C171.591 189.738 171.358 189.447 171.054 189.249C171.006 189.227 170.953 189.216 170.9 189.216C170.838 189.217 170.777 189.231 170.722 189.258Z" fill="#263238"/>
<path opacity="0.2" d="M172.95 186.342L176.1 186.206L176.521 182.523L173.137 181.957L172.95 186.342Z" fill="black"/>
<path d="M154.6 182.987L159.214 183.801C163.866 172.199 167.17 162.521 169.51 154.485C170.769 150.152 171.747 146.3 172.505 142.879L172.295 155.515V184.194H176.975C188.366 129.854 180.293 117.434 180.293 117.434L166.66 115.094C166.121 117.61 165.74 120.158 165.518 122.722L164.905 127.234L159.588 154.757L154.6 182.987Z" fill="#263238"/>
<path opacity="0.2" d="M154.6 182.987L159.214 183.801C163.866 172.199 167.17 162.521 169.51 154.485C170.769 150.152 171.747 146.3 172.505 142.879L172.295 155.515V184.194H176.975C188.366 129.854 180.293 117.434 180.293 117.434L166.66 115.094C166.121 117.61 165.74 120.158 165.518 122.722L164.905 127.234L159.588 154.757L154.6 182.987Z" fill="white"/>
<path d="M159.935 183.243L154.216 181.348L154.291 183.777L159.022 185.288L159.935 183.243Z" fill="#263238"/>
<path d="M177.597 183.507L171.635 182.637L172.131 185.019L177.054 185.683L177.597 183.507Z" fill="#263238"/>
<path d="M180.307 115.398V117.433L166.402 116.366V113.961L180.307 115.398Z" fill="#263238"/>
<path d="M169.417 116.751L172.456 117.023L172.663 114.716L169.624 114.444L169.417 116.751Z" fill="white"/>
<path d="M175.458 118.058L176.149 118.094L176.328 114.584L175.637 114.548L175.458 118.058Z" fill="#263238"/>
<path opacity="0.2" d="M175.458 118.058L176.149 118.094L176.328 114.584L175.637 114.548L175.458 118.058Z" fill="white"/>
<path d="M166.957 117.129L167.648 117.164L167.827 113.654L167.136 113.619L166.957 117.129Z" fill="#263238"/>
<path opacity="0.2" d="M166.957 117.129L167.648 117.164L167.827 113.654L167.136 113.619L166.957 117.129Z" fill="white"/>
<path d="M187.242 95.811C186.821 96.6675 186.437 97.4818 186.082 98.2493C185.778 98.8952 185.497 99.5082 185.23 100.093L184.762 101.085C184.65 101.338 184.537 101.591 184.434 101.834C184.065 102.672 183.737 103.453 183.442 104.174C183.269 104.605 183.11 105.021 182.974 105.424L182.768 105.976C182.45 106.823 182.183 107.609 181.949 108.353C181.748 108.999 181.57 109.617 181.406 110.225C181.191 111.044 181.009 111.84 180.84 112.65C180.709 113.272 180.587 113.904 180.466 114.559C180.41 114.835 180.358 115.116 180.307 115.402L166.402 113.955C166.449 113.174 166.501 112.416 166.557 111.676C166.604 111.021 166.65 110.385 166.702 109.767C166.777 108.887 166.852 108.045 166.927 107.235C166.992 106.58 167.058 105.948 167.123 105.34C167.217 104.45 167.315 103.613 167.413 102.817C167.493 102.152 167.577 101.525 167.657 100.945C167.783 100.009 167.909 99.19 168.026 98.4365C168.143 97.683 168.246 97.1167 168.345 96.5645C168.472 95.8719 168.585 95.2962 168.682 94.8376C169.295 92.0296 169.744 91.9688 169.744 91.9688C169.744 91.9688 172.87 92.0343 175.552 92.3712H175.622C177.434 92.6514 179.227 93.0453 180.99 93.5506C181.219 93.6114 181.458 93.677 181.669 93.7472C183.574 94.2986 185.437 94.9884 187.242 95.811Z" fill="#353958"/>
<path opacity="0.6" d="M187.242 95.811C186.821 96.6675 186.437 97.4818 186.082 98.2493C185.778 98.8952 185.497 99.5082 185.23 100.093L184.762 101.085C184.65 101.338 184.537 101.591 184.434 101.834C184.065 102.672 183.737 103.453 183.442 104.174C183.269 104.605 183.11 105.021 182.974 105.424L182.768 105.976C182.45 106.823 182.183 107.609 181.949 108.353C181.748 108.999 181.57 109.617 181.406 110.225C181.191 111.044 181.009 111.84 180.84 112.65C180.709 113.272 180.587 113.904 180.466 114.559C180.41 114.835 180.358 115.116 180.307 115.402L166.402 113.955C166.449 113.174 166.501 112.416 166.557 111.676C166.604 111.021 166.65 110.385 166.702 109.767C166.777 108.887 166.852 108.045 166.927 107.235C166.992 106.58 167.058 105.948 167.123 105.34C167.217 104.45 167.315 103.613 167.413 102.817C167.493 102.152 167.577 101.525 167.657 100.945C167.783 100.009 167.909 99.19 168.026 98.4365C168.143 97.683 168.246 97.1167 168.345 96.5645C168.472 95.8719 168.585 95.2962 168.682 94.8376C169.295 92.0296 169.744 91.9688 169.744 91.9688C169.744 91.9688 172.87 92.0343 175.552 92.3712H175.622C177.434 92.6514 179.227 93.0453 180.99 93.5506C181.219 93.6114 181.458 93.677 181.669 93.7472C183.574 94.2986 185.437 94.9884 187.242 95.811Z" fill="white"/>
<path opacity="0.2" d="M169.52 154.499C170.778 150.165 171.757 146.313 172.515 142.892C172.449 138.843 172.153 134.801 171.63 130.785C171.63 130.785 169.637 146.398 169.52 154.499Z" fill="black"/>
<path d="M176.824 92.3104C175.182 92.0717 174.171 93.0077 174.929 94.5802C175.687 96.1527 175.94 96.3867 178.523 95.9233C181.107 95.46 184.111 93.3774 176.824 92.3104Z" fill="#353958"/>
<path d="M185.23 100.093L184.762 101.085C184.65 101.338 184.538 101.59 184.435 101.834C180.307 100.865 172.571 99.11 168.008 98.4267C168.12 97.7294 168.228 97.1069 168.326 96.5547C174.028 97.3871 179.673 98.5687 185.23 100.093Z" fill="#353958"/>
<path d="M183.457 104.188C183.284 104.618 183.124 105.035 182.989 105.437L182.783 105.99C178.571 105.011 171.696 103.476 167.428 102.821C167.507 102.157 167.592 101.53 167.671 100.949C172.989 101.735 178.259 102.816 183.457 104.188Z" fill="#353958"/>
<path d="M181.95 108.369C181.748 109.015 181.57 109.633 181.407 110.241C177.274 109.305 171.022 107.901 166.927 107.251C166.992 106.596 167.058 105.964 167.123 105.355C172.114 106.104 177.063 107.11 181.95 108.369Z" fill="#353958"/>
<path d="M180.84 112.656C180.709 113.279 180.587 113.911 180.466 114.566C176.474 113.63 170.6 112.343 166.557 111.683C166.603 111.028 166.65 110.391 166.702 109.773C170.118 110.302 175.416 111.238 180.84 112.656Z" fill="#353958"/>
<g opacity="0.3">
<path opacity="0.3" d="M176.824 92.3104C175.182 92.0717 174.171 93.0077 174.929 94.5802C175.687 96.1527 175.94 96.3867 178.523 95.9233C181.107 95.46 184.111 93.3774 176.824 92.3104Z" fill="white"/>
<path opacity="0.3" d="M185.23 100.093L184.762 101.085C184.65 101.338 184.538 101.59 184.435 101.834C180.307 100.865 172.571 99.11 168.008 98.4267C168.12 97.7294 168.228 97.1069 168.326 96.5547C174.028 97.3871 179.673 98.5687 185.23 100.093Z" fill="white"/>
<path opacity="0.3" d="M183.456 104.188C183.283 104.618 183.123 105.035 182.988 105.437L182.782 105.99C178.57 105.011 171.695 103.476 167.427 102.821C167.506 102.157 167.591 101.53 167.67 100.949C172.988 101.735 178.258 102.816 183.456 104.188Z" fill="white"/>
<path opacity="0.3" d="M181.95 108.365C181.748 109.011 181.57 109.629 181.407 110.237C177.274 109.301 171.022 107.897 166.927 107.247C166.992 106.592 167.058 105.96 167.123 105.352C172.114 106.1 177.063 107.106 181.95 108.365Z" fill="white"/>
<path opacity="0.3" d="M180.84 112.652C180.709 113.275 180.587 113.907 180.466 114.562C176.474 113.626 170.6 112.339 166.557 111.679C166.603 111.024 166.65 110.387 166.702 109.77C170.118 110.298 175.416 111.234 180.84 112.652Z" fill="white"/>
</g>
<path d="M176.333 95.5451C179.787 95.5123 180.981 94.1785 180.981 94.1785C179.062 91.8853 181.275 88.5625 181.275 88.5625L177.087 88.8433C177.113 89.4255 177.099 90.0087 177.045 90.5889C176.778 93.0787 175.641 92.9711 175.641 92.9711C174.775 94.2347 176.333 95.5451 176.333 95.5451Z" fill="#9F5B53"/>
<path opacity="0.2" d="M177.087 88.8472C177.113 89.4294 177.099 90.0126 177.045 90.5928C179.811 90.9204 181.257 88.5664 181.257 88.5664L177.087 88.8472Z" fill="black"/>
<path d="M180.704 77.6856C177.166 77.0726 175.701 78.7667 174.803 82.3656C173.689 86.8678 174.133 90.2795 178.729 90.0783C184.963 89.7788 186.582 78.6872 180.704 77.6856Z" fill="#9F5B53"/>
<path d="M177.129 82.543C176.752 83.0211 176.32 83.4531 175.842 83.83C175.92 83.9939 176.042 84.1332 176.193 84.233C176.345 84.3328 176.521 84.3893 176.703 84.3962L177.129 82.543Z" fill="#892B29"/>
<path d="M179.342 82.6352C179.286 82.9254 179.394 83.1875 179.585 83.2296C179.777 83.2717 179.983 83.0611 180.053 82.7616C180.124 82.4621 180.002 82.2094 179.81 82.1719C179.618 82.1345 179.398 82.3685 179.342 82.6352Z" fill="#263238"/>
<path d="M179.871 82.2057L179.291 81.8359C179.291 81.8359 179.502 82.4256 179.871 82.2057Z" fill="#263238"/>
<path d="M175.758 81.8606C175.697 82.1461 175.809 82.4128 176.001 82.4503C176.193 82.4877 176.399 82.2865 176.469 81.9823C176.539 81.6781 176.418 81.43 176.226 81.3879C176.034 81.3458 175.814 81.5704 175.758 81.8606Z" fill="#263238"/>
<path d="M176.286 81.4291L175.706 81.0547C175.706 81.0547 175.917 81.6537 176.286 81.4291Z" fill="#263238"/>
<path d="M179.801 80.1953C180.087 80.2104 180.365 80.2908 180.615 80.4303C180.865 80.5698 181.079 80.7648 181.242 81.0003" stroke="#263238" stroke-width="0.72468" stroke-linecap="round" stroke-linejoin="round"/>
<path d="M177.26 79.6004C177.028 79.4966 176.776 79.4465 176.523 79.4538C176.269 79.4611 176.02 79.5256 175.795 79.6425" stroke="#263238" stroke-width="0.72468" stroke-linecap="round" stroke-linejoin="round"/>
<path d="M176.979 85.8777C177.077 86.3059 177.143 86.7408 177.176 87.1787H177.41C178.458 87.2536 178.968 86.9447 179.217 86.575C179.397 86.2845 179.47 85.9401 179.422 85.6016C178.755 85.8432 178.043 85.9374 177.335 85.8777C177.115 85.8917 176.979 85.8777 176.979 85.8777Z" fill="#263238"/>
<path d="M177.335 85.8933L177.405 86.2771C178.393 86.3473 179.095 86.2771 179.427 85.9822C179.443 85.8611 179.443 85.7383 179.427 85.6172C178.758 85.8595 178.044 85.9537 177.335 85.8933Z" fill="white"/>
<path d="M177.41 87.1947C178.458 87.2696 178.969 86.9607 179.217 86.591C178.818 86.5691 178.419 86.6182 178.037 86.7361C177.785 86.8184 177.565 86.9791 177.41 87.1947Z" fill="#DE5753"/>
<path d="M183.536 84.2971C183.536 84.2971 182.385 81.1053 183.026 78.9011C183.026 78.9011 176.516 74.8201 174.93 81.8729C174.93 81.8729 175.346 75.4379 181.454 76.3551C187.561 77.2724 185.984 86.1831 182.39 88.2704C182.38 88.2704 184.243 86.2955 183.536 84.2971Z" fill="#263238"/>
<path d="M182.824 84.9472C182.93 84.5436 183.191 84.1984 183.551 83.987C183.91 83.7756 184.339 83.7153 184.743 83.8193C185.819 84.1329 185.95 86.4729 183.128 86.5384C182.721 86.5477 182.567 86.1125 182.824 84.9472Z" fill="#9F5B53"/>
<path d="M188.665 108.373L184.453 107.076C184.453 107.076 184.547 106.201 184.074 105.99C183.601 105.78 177.569 105.162 177.41 105.719C177.25 106.276 177.578 109.744 178.523 110.231C179.469 110.717 183.606 110.904 183.728 110.699C183.849 110.493 184.074 110.231 184.074 110.231L188.398 111.564L188.665 108.373Z" fill="#9F5B53"/>
<path d="M187.242 95.8125C190.579 97.3288 197.861 110.545 196.752 113.564C195.643 116.582 186.508 111.795 186.508 111.795L187.242 107.264L189.33 107.789C189.33 107.789 186.718 103.506 184.453 101.836C184.474 100.672 184.739 99.5259 185.23 98.4707C185.763 97.4881 186.441 96.5918 187.242 95.8125Z" fill="#353958"/>
<path opacity="0.3" d="M187.242 95.8125C190.579 97.3288 197.861 110.545 196.752 113.564C195.643 116.582 186.508 111.795 186.508 111.795L187.242 107.264L189.33 107.789C189.33 107.789 186.718 103.506 184.453 101.836C184.474 100.672 184.739 99.5259 185.23 98.4707C185.763 97.4881 186.441 96.5918 187.242 95.8125Z" fill="white"/>
<path d="M86.2012 64.4364L88.2042 52.4135C87.1278 51.3464 89.6082 45.2437 89.6082 44.5838C89.6082 43.924 93.3803 46.7413 93.4458 47.345C93.5113 47.9487 92.5098 52.245 91.3819 52.8627L90.7922 65.7C90.7922 65.7 88.4055 66.7109 86.2012 64.4364Z" fill="#E4897B"/>
<path d="M68.1084 74.0518C68.1084 74.0518 80.5619 73.5089 82.9534 71.7773C85.3448 70.0457 86.9969 55.1914 86.9969 55.1914L93.0809 55.7904C93.0809 55.7904 91.4569 72.25 88.2698 76.3825C85.0828 80.5149 72.5404 82.4945 72.5404 82.4945L68.1084 74.0518Z" fill="#263238"/>
<path opacity="0.2" d="M93.0895 55.7904C93.0895 55.7904 91.4655 72.25 88.2784 76.3825C86.6919 78.4323 82.7701 79.9626 79.2413 80.9782C77.0367 81.6051 74.7994 82.1113 72.5396 82.4945L70.1247 77.8847L68.1123 74.0518C68.1123 74.0518 80.5658 73.5089 82.9573 71.7773C85.3487 70.0457 87.0008 55.1914 87.0008 55.1914L93.0895 55.7904Z" fill="white"/>
<path opacity="0.2" d="M79.2416 80.9615C77.0373 81.5947 74.8001 82.1072 72.5399 82.4965L70.125 77.8867C72.5399 78.0973 77.6317 78.79 79.2416 80.9615Z" fill="black"/>
<path d="M39.7144 88.9168L33.2794 78.5459C33.8691 77.1419 34.7302 72.3823 34.4541 71.7786C34.1779 71.1749 29.6711 69.8317 29.4839 70.398C28.927 71.905 29.2218 80.0388 30.5182 80.1792L35.9704 91.8371C35.9704 91.8371 38.5397 91.8652 39.7144 88.9168Z" fill="#E4897B"/>
<path d="M70.3164 191.241L74.1166 191.643L74.8279 183.453L71.0324 183.051L70.3164 191.241Z" fill="#E4897B"/>
<path d="M51.3721 190.964H55.0506L55.3548 182.441H51.6716L51.3721 190.964Z" fill="#E4897B"/>
<path d="M55.5606 190.54H51.0912C51.0178 190.539 50.9465 190.564 50.8893 190.61C50.8322 190.656 50.7927 190.721 50.7776 190.792L50.0522 194.068C50.0232 194.209 50.0512 194.356 50.1302 194.476C50.2091 194.596 50.3326 194.68 50.4734 194.71C50.5123 194.714 50.5515 194.714 50.5904 194.71C52.0365 194.686 53.0895 194.597 54.9054 194.597C56.0239 194.597 59.3982 194.714 60.9426 194.714C62.487 194.714 62.6882 193.189 62.0564 193.048C59.2203 192.43 57.0862 191.574 56.1783 190.76C56.0082 190.61 55.7871 190.531 55.5606 190.54Z" fill="#263238"/>
<path d="M55.8133 191.051C55.7962 191.046 55.7808 191.037 55.7691 191.023C55.7574 191.01 55.75 190.994 55.7478 190.976C55.7456 190.959 55.7485 190.942 55.756 190.927C55.7635 190.912 55.7753 190.9 55.7899 190.892C55.9209 190.807 57.1097 190.077 57.5168 190.288C57.563 190.309 57.6019 190.344 57.6286 190.387C57.6552 190.43 57.6684 190.481 57.6666 190.531C57.6801 190.619 57.6703 190.708 57.6382 190.79C57.6062 190.872 57.553 190.944 57.4841 190.999C57.2766 191.14 57.0274 191.206 56.7774 191.187C56.4521 191.176 56.1288 191.131 55.8133 191.051ZM56.066 190.929C56.4953 191.074 56.9637 191.051 57.3764 190.864C57.4205 190.825 57.4543 190.776 57.4747 190.722C57.4951 190.667 57.5016 190.608 57.4934 190.55C57.4934 190.48 57.4607 190.447 57.4373 190.447C57.4033 190.427 57.3639 190.419 57.3249 190.424C56.8756 190.514 56.4481 190.69 56.066 190.943V190.929Z" fill="#353958"/>
<path d="M55.7902 191.069C55.7776 191.06 55.7672 191.048 55.76 191.034C55.7527 191.021 55.7486 191.005 55.748 190.99C55.748 190.938 55.8416 189.881 56.2675 189.534C56.3176 189.49 56.3765 189.458 56.4403 189.438C56.504 189.419 56.5712 189.413 56.6372 189.422C56.7038 189.42 56.7689 189.442 56.8205 189.484C56.8722 189.526 56.9068 189.586 56.918 189.651C56.9929 190.04 56.2582 190.849 55.8791 191.055H55.837C55.8232 191.065 55.8069 191.07 55.7902 191.069ZM56.3798 189.637C56.1223 189.969 55.9707 190.37 55.9446 190.789C56.3237 190.503 56.7917 189.89 56.7449 189.651C56.7449 189.628 56.7449 189.562 56.6185 189.562H56.5764C56.5042 189.564 56.4348 189.59 56.3798 189.637Z" fill="#353958"/>
<path d="M74.5147 190.423H70.0453C69.9719 190.422 69.9006 190.447 69.8434 190.493C69.7863 190.539 69.7468 190.603 69.7317 190.675L69.0063 193.951C68.9773 194.092 69.0053 194.239 69.0843 194.359C69.1632 194.479 69.2867 194.563 69.4275 194.592C69.4664 194.597 69.5056 194.597 69.5445 194.592C70.9906 194.569 72.0436 194.48 73.8595 194.48C74.978 194.48 78.3523 194.597 79.8967 194.597C81.4411 194.597 81.6423 193.071 81.0105 192.931C78.1744 192.313 76.0403 191.457 75.1324 190.642C74.9623 190.493 74.7412 190.414 74.5147 190.423Z" fill="#263238"/>
<path d="M74.7674 190.941C74.7503 190.937 74.7349 190.927 74.7232 190.914C74.7115 190.901 74.7041 190.884 74.7019 190.867C74.6997 190.85 74.7026 190.833 74.7101 190.818C74.7176 190.803 74.7294 190.791 74.744 190.782C74.875 190.698 76.0638 189.968 76.4709 190.179C76.5171 190.2 76.556 190.234 76.5827 190.278C76.6093 190.321 76.6226 190.371 76.6207 190.422C76.6342 190.509 76.6244 190.598 76.5924 190.681C76.5603 190.763 76.5071 190.835 76.4382 190.89C76.2307 191.031 75.9815 191.097 75.7315 191.077C75.4062 191.067 75.0829 191.021 74.7674 190.941ZM75.0201 190.82C75.4494 190.965 75.9178 190.941 76.3305 190.754C76.3746 190.716 76.4084 190.667 76.4288 190.612C76.4492 190.558 76.4557 190.499 76.4475 190.441C76.4475 190.37 76.4148 190.338 76.3914 190.338C76.3574 190.318 76.318 190.31 76.2791 190.314C75.8314 190.397 75.404 190.566 75.0201 190.81V190.82Z" fill="#353958"/>
<path d="M74.7443 190.94C74.7317 190.931 74.7213 190.919 74.7141 190.905C74.7068 190.892 74.7027 190.876 74.7021 190.861C74.7021 190.809 74.7957 189.752 75.2216 189.405C75.2717 189.361 75.3306 189.329 75.3944 189.309C75.4581 189.29 75.5253 189.284 75.5913 189.293C75.6579 189.291 75.723 189.313 75.7747 189.355C75.8263 189.397 75.8609 189.457 75.8721 189.522C75.947 189.911 75.2123 190.72 74.8332 190.926H74.7911C74.7773 190.936 74.761 190.941 74.7443 190.94ZM75.348 189.536C75.0905 189.868 74.9388 190.269 74.9128 190.688C75.2918 190.402 75.7598 189.789 75.713 189.55C75.713 189.527 75.713 189.462 75.5867 189.462H75.5445C75.4724 189.463 75.4029 189.49 75.348 189.536Z" fill="#353958"/>
<path opacity="0.2" d="M71.0326 183.051L74.8281 183.453L74.4584 187.675L70.6582 187.277L71.0326 183.051Z" fill="black"/>
<path opacity="0.2" d="M51.6718 182.445H55.355L55.1959 186.84H51.5127L51.6718 182.445Z" fill="black"/>
<path d="M53.1926 107.691H72.7176C74.5896 117.828 80.3881 153.71 76.2182 185.674L69.6054 184.86C69.6054 184.86 70.2184 142.422 64.3825 126.734C63.7132 135.13 62.913 144.05 62.2203 148.819C60.5215 160.519 56.8851 186.086 56.8851 186.086H50.1553C50.1553 186.086 51.5312 161.614 52.1677 150.116C52.8837 137.625 53.1645 110.256 53.1926 107.691Z" fill="#353958"/>
<path d="M76.9716 187.212L68.791 185.996L69.0437 183.73L77.552 184.849L76.9716 187.212Z" fill="#353958"/>
<path d="M57.6951 186.133H49.7578V183.76L57.9946 183.605L57.6951 186.133Z" fill="#353958"/>
<path opacity="0.2" d="M64.3828 126.727C65.3424 129.47 66.0719 132.287 66.5637 135.151C67.1112 127.663 64.9257 119.754 64.9257 119.754L64.3828 126.727Z" fill="black"/>
<path d="M49.8096 75.6338C50.8908 79.6054 51.673 83.6524 52.1496 87.7409C52.304 88.9952 52.4304 90.226 52.5333 91.4194C52.6691 92.9357 52.7627 94.3959 52.8375 95.7812C52.9311 97.5362 52.9592 99.6094 52.9545 101.65C52.9545 106.33 52.758 110.846 52.758 110.846C56.502 111.782 67.3221 111.16 73.233 110.729C73.9293 105.077 74.111 99.3739 73.7759 93.6892C73.5806 89.9354 73.1681 86.1961 72.5403 82.49C72.2228 80.5113 71.782 78.5543 71.2206 76.6306C71.0032 75.9487 70.595 75.3434 70.0443 74.8864C69.4935 74.4294 68.8233 74.1398 68.1131 74.0519C67.397 73.963 66.5687 73.8741 65.6982 73.8226C65.3612 73.8226 65.0243 73.7898 64.6826 73.7852C61.8907 73.8169 59.103 74.0107 56.3335 74.3655C55.8093 74.4263 55.2758 74.5059 54.761 74.5901C53.0933 74.8506 51.4405 75.199 49.8096 75.6338Z" fill="#263238"/>
<path opacity="0.7" d="M73.2324 110.736C67.3216 111.166 56.5014 111.789 52.7574 110.853C52.7574 110.853 52.9446 106.346 52.954 101.657C52.954 99.6162 52.9306 97.5429 52.837 95.7879C52.7621 94.3839 52.6685 92.9425 52.5328 91.4262C52.4298 90.2328 52.3035 89.0019 52.149 87.7477C52.1116 87.4107 52.0695 87.0691 52.0227 86.7321C51.887 85.651 51.7232 84.5746 51.5547 83.5029V83.4748L53.3752 80.854L56.9928 75.6405C56.9928 75.6405 63.0113 78.0741 65.5104 74.6016C67.9931 76.4564 70.2544 78.5904 72.2496 80.9617C72.3479 81.4297 72.4415 81.9632 72.5351 82.5014C73.1644 86.2074 73.5785 89.9468 73.7753 93.7006C74.1102 99.3838 73.9285 105.086 73.2324 110.736Z" fill="white"/>
<path d="M59.3371 81.7757C62.513 81.6915 65.6911 81.7868 68.8563 82.0612C69.2244 82.1038 69.564 82.2805 69.81 82.5577C70.0561 82.8348 70.1914 83.1929 70.1901 83.5635C70.1907 83.7622 70.152 83.959 70.0762 84.1427C70.0005 84.3264 69.8892 84.4933 69.7487 84.6338C69.6082 84.7742 69.4413 84.8856 69.2576 84.9613C69.0739 85.0371 68.8771 85.0757 68.6784 85.0751H59.3793C58.9918 85.0757 58.6188 84.9274 58.3375 84.6609C58.0562 84.3944 57.888 84.03 57.8676 83.643V83.3669C57.8563 83.1652 57.8856 82.9632 57.9539 82.773C58.0222 82.5828 58.128 82.4083 58.2651 82.2599C58.4022 82.1114 58.5678 81.9921 58.7519 81.9089C58.9361 81.8257 59.1351 81.7804 59.3371 81.7757Z" fill="#263238"/>
<path opacity="0.2" d="M49.8096 75.6338C50.8908 79.6054 51.673 83.6524 52.1496 87.7409C52.304 88.9952 52.4304 90.226 52.5333 91.4194C52.6691 92.9357 52.7627 94.3959 52.8375 95.7812C52.9311 97.5362 52.9592 99.6094 52.9545 101.65C52.9545 106.33 52.758 110.846 52.758 110.846C56.502 111.782 67.3221 111.16 73.233 110.729C73.9293 105.077 74.111 99.3739 73.7759 93.6892C73.5806 89.9354 73.1681 86.1961 72.5403 82.49C72.2228 80.5113 71.782 78.5543 71.2206 76.6306C71.0032 75.9487 70.595 75.3434 70.0443 74.8864C69.4935 74.4294 68.8233 74.1398 68.1131 74.0519C67.397 73.963 66.5687 73.8741 65.6982 73.8226C65.3612 73.8226 65.0243 73.7898 64.6826 73.7852C61.8907 73.8169 59.103 74.0107 56.3335 74.3655C55.8093 74.4263 55.2758 74.5059 54.761 74.5901C53.0933 74.8506 51.4405 75.199 49.8096 75.6338Z" fill="white"/>
<path d="M66.2966 57.5097C66.2966 57.5097 67.4526 61.5673 65.033 63.8465C62.6135 66.1256 61.4014 56.7656 61.4014 56.7656L66.2966 57.5097Z" fill="#263238"/>
<path d="M56.3232 74.345C58.1157 75.9736 62.5102 75.3699 62.5102 75.3699C62.5102 75.3699 65.248 74.6211 64.6724 73.7647C63.0578 73.4979 62.2762 72.7444 61.9533 71.7804C61.7765 71.1828 61.7208 70.5559 61.7895 69.9364C61.8163 69.5911 61.8616 69.2474 61.9252 68.9068L56.4964 64.8867C57.2078 67.5403 58.0782 72.4215 56.3232 74.345Z" fill="#E4897B"/>
<path opacity="0.2" d="M57.751 67.4414C57.9663 70.7174 60.6432 71.5972 61.963 71.7798C61.7861 71.1822 61.7305 70.5553 61.7992 69.9358L57.751 67.4414Z" fill="black"/>
<path d="M57.8074 68.849C58.4745 69.6042 59.3711 70.1194 60.3595 70.3156C61.3479 70.5117 62.3733 70.3779 63.2783 69.9348C64.4577 69.3829 65.3841 68.4046 65.871 67.197C65.9365 67.0332 65.9974 66.86 66.0488 66.6822C66.9848 63.4389 66.6806 58.0101 63.1706 56.4189C61.9704 55.8655 60.5994 55.8114 59.3593 56.2687C58.1192 56.726 57.1115 57.6571 56.5578 58.8572C56.2234 59.5658 56.063 60.344 56.0898 61.127C56.16 64.7727 56.0383 66.9209 57.8074 68.849Z" fill="#E4897B"/>
<path d="M61.5842 62.368C61.5514 62.6628 61.7199 62.9109 61.9165 62.9155C62.113 62.9202 62.2768 62.6862 62.2909 62.3914C62.3049 62.0965 62.1505 61.8485 61.9586 61.8438C61.7667 61.8391 61.5982 62.0685 61.5842 62.368Z" fill="#263238"/>
<path d="M64.9396 62.501C64.9069 62.7958 65.0754 63.0438 65.2673 63.0532C65.4591 63.0626 65.6276 62.8239 65.6416 62.529C65.6557 62.2342 65.5012 61.9862 65.3094 61.9768C65.1175 61.9674 64.949 62.2436 64.9396 62.501Z" fill="#263238"/>
<path d="M63.8678 62.6055C64.1836 63.5266 64.6263 64.3992 65.1828 65.1982C64.9725 65.3344 64.7351 65.4234 64.4871 65.459C64.239 65.4945 63.9862 65.4758 63.7461 65.4041L63.8678 62.6055Z" fill="#DE5753"/>
<path d="M60.5879 61.24C60.6196 61.2471 60.6526 61.2452 60.6832 61.2344C60.7138 61.2237 60.7408 61.2045 60.7611 61.1792C60.8957 61.0072 61.0686 60.869 61.266 60.7756C61.4634 60.6821 61.6799 60.636 61.8983 60.641C61.9211 60.6436 61.9441 60.6416 61.9661 60.6352C61.9881 60.6289 62.0086 60.6182 62.0265 60.6038C62.0443 60.5895 62.0592 60.5717 62.0701 60.5516C62.081 60.5314 62.0878 60.5093 62.0902 60.4865C62.0942 60.4408 62.0803 60.3953 62.0516 60.3595C62.0228 60.3238 61.9813 60.3005 61.9357 60.2947C61.6599 60.2825 61.3851 60.3364 61.1344 60.4521C60.8836 60.5677 60.6642 60.7415 60.4943 60.9592C60.4623 60.9916 60.4443 61.0353 60.4443 61.0809C60.4443 61.1265 60.4623 61.1702 60.4943 61.2026C60.523 61.2206 60.5547 61.2333 60.5879 61.24Z" fill="#263238"/>
<path d="M66.4232 61.4041C66.4566 61.4155 66.4928 61.4155 66.5261 61.4041C66.5473 61.3959 66.5667 61.3834 66.583 61.3676C66.5992 61.3517 66.6122 61.3327 66.6209 61.3117C66.6296 61.2907 66.634 61.2682 66.6339 61.2454C66.6337 61.2227 66.6289 61.2002 66.6197 61.1794C66.515 60.9232 66.3502 60.696 66.1393 60.5168C65.9283 60.3376 65.6774 60.2117 65.4076 60.1498C65.362 60.1442 65.3159 60.156 65.2786 60.1829C65.2413 60.2098 65.2155 60.2498 65.2064 60.2949C65.2009 60.34 65.2129 60.3855 65.2398 60.422C65.2668 60.4586 65.3068 60.4834 65.3515 60.4914C65.5613 60.5483 65.7551 60.6532 65.9175 60.7978C66.08 60.9423 66.2066 61.1226 66.2875 61.3245C66.3022 61.3475 66.3222 61.3668 66.3458 61.3806C66.3694 61.3944 66.3959 61.4025 66.4232 61.4041Z" fill="#263238"/>
<path d="M60.6624 54.668C60.2272 54.668 59.7919 54.668 59.3567 54.7007C58.0983 54.748 56.8813 55.1628 55.8561 55.8941C53.5629 57.6866 54.4801 61.3978 55.1166 63.7986C55.9637 66.9904 57.4566 68.2961 57.4566 68.2961C56.4832 66.85 56.3241 63.8033 56.8155 63.6582C57.3069 63.5132 57.3443 64.1028 57.3443 64.1028C58.3739 63.2558 59.1227 61.1544 58.5939 59.8113C58.1914 58.777 59.2818 57.8316 60.3535 58.206L60.6765 58.3137L61.1772 58.4728L60.6624 54.668Z" fill="#263238"/>
<path d="M54.3913 64.0529C54.7617 64.8923 55.4501 65.5504 56.3054 65.8828C57.4426 66.3133 58.1212 65.3258 57.9013 64.1933C57.6953 63.1871 56.8623 61.7222 55.6736 61.7831C54.4849 61.8439 53.9467 63.0139 54.3913 64.0529Z" fill="#E4897B"/>
<path d="M63.236 66.1312C63.0063 66.5041 62.8045 66.8936 62.6323 67.2965C62.5528 67.2965 62.4779 67.2637 62.403 67.2403C61.3875 66.9736 60.999 66.5149 60.8867 66.089C60.8372 65.8782 60.8372 65.6587 60.8867 65.4479C60.9096 65.327 60.9506 65.2102 61.0084 65.1016C61.5583 65.5438 62.1967 65.8629 62.8804 66.0376C63.1003 66.0984 63.236 66.1312 63.236 66.1312Z" fill="#263238"/>
<path d="M62.8896 66.0344L62.7024 66.3761C61.7664 66.1233 61.1065 65.8192 60.8818 65.4401C60.9047 65.3192 60.9457 65.2024 61.0035 65.0938C61.5572 65.5394 62.2005 65.8603 62.8896 66.0344Z" fill="white"/>
<path d="M62.403 67.2372C61.3875 66.9705 60.999 66.5118 60.8867 66.0859C61.2719 66.1943 61.6348 66.3702 61.9584 66.6054C62.1708 66.7626 62.3268 66.9842 62.403 67.2372Z" fill="#DE5753"/>
<path d="M54.5312 61.2329C54.5312 61.2329 53.9556 59.0052 54.0632 57.7228C54.1709 56.4405 56.9133 53.6606 59.9039 53.3938C62.8944 53.1271 63.6479 53.3938 64.5839 54.4047C65.5199 55.4156 66.1844 58.116 66.1844 58.116C66.1844 58.116 60.3204 56.7307 54.5312 61.2329Z" fill="#353958"/>
<path d="M54.5312 61.2322C54.5312 61.2322 60.0115 55.2231 65.4871 54.7551C70.9627 54.2871 71.7443 55.9157 66.5355 58.9671C66.5355 58.9671 63.3109 56.2808 54.5312 61.2322Z" fill="#353958"/>
<path opacity="0.2" d="M54.5312 61.2322C54.5312 61.2322 60.0115 55.2231 65.4871 54.7551C70.9627 54.2871 71.7443 55.9157 66.5355 58.9671C66.5355 58.9671 63.3109 56.2808 54.5312 61.2322Z" fill="black"/>
<path opacity="0.2" d="M52.0227 86.7298C51.887 85.6487 51.7232 84.5723 51.5547 83.5006V83.4725C51.7138 83.2057 53.0195 81.0202 53.1506 79.457C53.2606 79.9187 53.3357 80.3881 53.3752 80.861C53.5156 82.3633 53.4501 84.7688 52.0227 86.7298Z" fill="black"/>
<path d="M51.7889 85.0435C50.9044 88.1978 45.63 94.9417 41.4367 95.5174C33.8692 96.5563 30.3545 83.1856 30.3545 83.1856L35.6008 79.6428C35.6008 79.6428 38.245 85.6192 39.6115 86.5364C41.301 87.6737 46.8655 77.8925 49.8093 75.6367C49.8093 75.6367 54.2272 76.3715 51.7889 85.0435Z" fill="#263238"/>
<path opacity="0.2" d="M51.7889 85.0435C50.9044 88.1978 45.63 94.9417 41.4367 95.5174C33.8692 96.5563 30.3545 83.1856 30.3545 83.1856L35.6008 79.6428C35.6008 79.6428 38.245 85.6192 39.6115 86.5364C41.301 87.6737 46.8655 77.8925 49.8093 75.6367C49.8093 75.6367 54.2272 76.3715 51.7889 85.0435Z" fill="white"/>
<path d="M127.629 80.496L130.872 78.2402C131.234 77.5704 131.669 76.9426 132.169 76.3682C132.814 75.6943 134.85 74.6366 135.407 74.7021C135.964 74.7676 138.529 76.6162 137.522 77.5897C136.516 78.5631 134.059 79.7893 133.647 79.6395L133.236 79.4898L129.169 82.7658L127.629 80.496Z" fill="#EEC1BB"/>
<path d="M132.168 81.0619C132.168 81.0619 123.225 88.9196 119.808 90.6278C118.133 91.4702 114.192 92.8274 110.654 93.9787C107.004 95.1627 103.751 96.1361 103.751 96.1361L103.185 95.0831L99.9512 89.0694C99.9512 89.0694 116.846 86.7293 118.33 86.1069C119.813 85.4845 129.941 78.2305 129.941 78.2305L132.168 81.0619Z" fill="#263238"/>
<path opacity="0.2" d="M110.669 93.9786C107.018 95.1626 103.766 96.1361 103.766 96.1361L103.199 95.0831V92.3125C103.199 92.3125 108.371 92.4763 110.669 93.9786Z" fill="black"/>
<path d="M78.4935 121.118L76.2658 124.394C76.1599 125.144 75.9748 125.882 75.7135 126.593C75.3438 127.455 73.8181 129.163 73.2753 129.298C72.7324 129.434 69.6717 128.615 70.2707 127.352C70.8697 126.088 72.7277 124.076 73.1676 124.076H73.6029L76.2471 119.578L78.4935 121.118Z" fill="#EEC1BB"/>
<path d="M94.1112 70.9533C96.6197 70.9205 101.744 75.3338 101.744 75.3338C101.744 75.3338 103.261 81.8858 104.679 83.2289L103.593 83.6969L102.685 82.321L103.2 84.31C103.2 84.31 98.6648 86.3365 94.9255 86.533C91.1862 86.7296 89.4593 85.9761 89.4593 85.9761L89.8337 84.31L89.1083 85.7421L87.5732 85.0916C88.29 82.5753 88.8033 80.0055 89.1083 77.407C89.4593 73.7519 94.1112 70.9533 94.1112 70.9533Z" fill="#263238"/>
<path d="M99.8534 172.903C97.022 176.46 94.4807 179.684 92.2624 182.038C90.0488 184.421 88.9068 185.899 88.9068 185.899L86.7119 184.641C86.7119 184.641 88.7384 181.435 91.4855 177.012C93.8255 173.268 96.685 168.635 99.2824 164.343C102.647 158.802 105.563 153.832 106.335 152.054C106.883 150.79 105.399 145.937 103.752 141.36C102.081 136.703 100.246 132.323 100.246 132.323L106.237 122.195C106.237 122.195 108.67 128.939 110.833 136.053C112.237 140.733 113.552 145.53 113.987 148.731C114.591 153.2 106.873 164.067 99.8534 172.903Z" fill="#EEC1BB"/>
<path opacity="0.2" d="M99.8721 172.9C97.0641 176.456 94.3263 179.681 92.3045 182.035C92.0144 180.589 91.7242 178.876 91.4902 177.009C93.8302 173.265 96.6897 168.631 99.2871 164.34C99.2306 167.205 99.4263 170.069 99.8721 172.9Z" fill="black"/>
<path opacity="0.2" d="M110.823 136.053L103.751 141.36C102.081 136.703 100.246 132.323 100.246 132.323L106.236 122.195C106.236 122.195 108.661 128.939 110.823 136.053Z" fill="black"/>
<path d="M98.4727 191.069L95.9409 191.41C95.9409 191.41 92.2811 173.406 92.3934 158.547C91.0363 153.631 89.9767 148.638 89.2204 143.595C88.3218 137.511 87.8819 130.734 89.0659 125.68L97.9345 129.672L98.117 142.972L98.2668 154.059L98.4727 191.069Z" fill="#EEC1BB"/>
<path opacity="0.2" d="M98.0977 142.961L89.2057 143.583C88.3072 137.499 87.8672 130.722 89.0513 125.668L97.9199 129.66L98.0977 142.961Z" fill="black"/>
<path d="M86.8565 183.239C87.1186 183.047 89.3276 186.355 89.3276 186.355C89.3276 186.355 88.8362 189.805 89.833 192.028C90.8298 194.251 88.897 194.059 87.2824 191.953L83.3044 186.73C82.1625 185.246 84.1515 185.209 86.8565 183.239Z" fill="#263238"/>
<path d="M90.0767 188.851C89.5759 188.734 89.2483 187.307 89.1875 187.021V186.979C89.1875 186.979 89.1875 186.979 89.1875 186.947V186.919H89.2203C89.2671 186.919 90.2031 186.61 90.7038 186.919C90.7811 186.962 90.8479 187.022 90.8996 187.094C90.9514 187.166 90.9868 187.248 91.0033 187.335C91.0455 187.532 91.0033 187.667 90.9004 187.742C90.7974 187.817 90.3856 187.766 90.0533 187.611C90.278 187.818 90.4402 188.084 90.5213 188.379C90.5316 188.437 90.5295 188.497 90.5149 188.554C90.5004 188.611 90.4739 188.665 90.4371 188.711C90.4012 188.765 90.3535 188.81 90.2975 188.842C90.2415 188.875 90.1787 188.894 90.1141 188.898L90.0767 188.851ZM90.1235 188.65C90.1235 188.65 90.2077 188.65 90.306 188.542C90.325 188.518 90.3386 188.49 90.3458 188.46C90.3531 188.431 90.3539 188.4 90.3481 188.369C90.306 188.042 89.8099 187.56 89.4636 187.27C89.6181 187.883 89.8895 188.603 90.1235 188.65ZM89.5479 187.04C90.0814 187.372 90.6711 187.635 90.8208 187.508C90.8629 187.48 90.8489 187.377 90.8208 187.316C90.8093 187.258 90.7853 187.204 90.7506 187.156C90.7158 187.108 90.6711 187.069 90.6196 187.04C90.4745 186.968 90.3137 186.932 90.1516 186.937C89.9472 186.949 89.7447 186.984 89.5479 187.04Z" fill="#353958"/>
<path d="M95.0048 189.778C95.0048 189.455 98.9781 189.707 98.9781 189.707C98.9781 189.707 101.421 192.188 103.794 192.749C106.167 193.311 104.837 194.729 102.189 194.729H95.6366C93.7599 194.729 94.9393 193.124 95.0048 189.778Z" fill="#263238"/>
<path d="M99.4366 190.22C99.424 190.215 99.4127 190.207 99.4039 190.196C99.4025 190.187 99.4025 190.177 99.4039 190.168C99.4018 190.157 99.4018 190.146 99.4039 190.135C99.4039 190.135 99.4039 190.103 99.4039 190.093C99.4039 190.084 99.7502 189.124 100.288 188.9C100.368 188.863 100.455 188.844 100.543 188.844C100.632 188.844 100.719 188.863 100.799 188.9C100.981 188.989 101.07 189.101 101.061 189.237C101.051 189.372 100.766 189.653 100.443 189.826C100.743 189.775 101.051 189.809 101.332 189.925C101.385 189.951 101.431 189.989 101.468 190.035C101.505 190.081 101.532 190.134 101.547 190.192C101.576 190.263 101.582 190.342 101.564 190.417C101.547 190.493 101.506 190.561 101.449 190.613C101.347 190.686 101.223 190.72 101.098 190.711C100.519 190.648 99.9566 190.481 99.4366 190.22ZM99.797 190.154C100.382 190.402 101.112 190.622 101.299 190.468C101.299 190.468 101.365 190.411 101.323 190.257C101.314 190.227 101.3 190.2 101.281 190.176C101.261 190.151 101.237 190.131 101.21 190.117C101.063 190.052 100.903 190.023 100.742 190.032C100.424 190.041 100.107 190.082 99.797 190.154ZM100.349 189.096C100.035 189.298 99.7966 189.597 99.6706 189.948C100.256 189.723 100.822 189.415 100.836 189.237C100.836 189.181 100.747 189.129 100.691 189.106C100.634 189.078 100.572 189.064 100.508 189.064C100.454 189.063 100.399 189.074 100.349 189.096Z" fill="#353958"/>
<path d="M102.024 138.864L111.623 133.847C108.609 124.684 105.89 119.484 105.89 119.484C96.4641 121.099 97.3252 128.55 97.3252 128.55C97.3252 128.55 99.7261 133.51 102.024 138.864Z" fill="#353958"/>
<path opacity="0.2" d="M101.421 137.451C101.627 137.919 101.828 138.387 102.034 138.855L111.623 133.847C108.609 124.684 105.89 119.484 105.89 119.484C100.073 120.486 98.1729 123.696 97.5692 126.036C97.3478 126.859 97.264 127.713 97.3211 128.564C97.3211 128.564 99.3148 132.668 101.421 137.451Z" fill="white"/>
<path opacity="0.2" d="M101.421 137.449C99.3148 132.666 97.3211 128.557 97.3211 128.557C97.264 127.707 97.3478 126.853 97.5692 126.03C97.8692 125.833 98.2021 125.692 98.552 125.613C98.552 125.613 101.117 129.633 101.421 137.449Z" fill="black"/>
<path d="M99.067 140.93L98.7488 125.594L106.349 123.376C106.349 123.376 105.755 116.356 104.866 112.869C104.866 112.869 92.5197 109.794 90.6384 113.983C90.6384 113.983 90.6384 114.049 90.6103 114.072L90.5822 114.109C90.5822 114.109 87.0348 120.348 88.0924 140.93H99.067Z" fill="#353958"/>
<path opacity="0.2" d="M99.067 140.93L98.7488 125.594L106.349 123.376C106.349 123.376 105.755 116.356 104.866 112.869C104.866 112.869 92.5197 109.794 90.6384 113.983C90.6384 113.983 90.6384 114.049 90.6103 114.072L90.5822 114.109C90.5822 114.109 87.0348 120.348 88.0924 140.93H99.067Z" fill="white"/>
<path d="M90.4883 111.862V113.954L104.678 112.859V110.383L90.4883 111.862Z" fill="#353958"/>
<path d="M95.3022 110.971L94.5918 111.008L94.7767 114.621L95.4871 114.584L95.3022 110.971Z" fill="#353958"/>
<path d="M101.494 110.884L98.3662 111.164L98.5784 113.532L101.706 113.252L101.494 110.884Z" fill="white"/>
<path d="M104.037 110.018L103.326 110.055L103.511 113.668L104.222 113.631L104.037 110.018Z" fill="#353958"/>
<path opacity="0.2" d="M95.3022 110.971L94.5918 111.008L94.7767 114.621L95.4871 114.584L95.3022 110.971Z" fill="white"/>
<path opacity="0.2" d="M104.037 110.018L103.326 110.055L103.511 113.668L104.222 113.631L104.037 110.018Z" fill="white"/>
<path d="M104.833 110.633L90.5544 111.85C90.4485 109.639 90.2188 107.436 89.8664 105.251C89.449 102.897 88.891 100.57 88.1956 98.2826C87.7885 96.8786 87.3064 95.3717 86.7308 93.6354C86.4594 92.8055 86.1614 91.9272 85.8369 91.0006C87.7773 90.3787 89.7607 89.9001 91.7712 89.5685C93.8934 89.1999 96.0391 88.9825 98.1921 88.918C100.972 88.918 104.168 89.2081 104.168 89.2081C104.168 89.2081 104.636 89.3204 104.908 92.2642C105.17 95.0254 105.427 100.562 104.833 110.633Z" fill="#263238"/>
<path d="M87.165 140.304L99.6887 140.191L99.4688 142.077L87.7173 141.965L87.165 140.304Z" fill="#353958"/>
<path d="M101.243 138.751L111.661 133.098L112.218 134.759L102.128 139.748L101.243 138.751Z" fill="#353958"/>
<path d="M97.0122 92.0657C93.4881 91.5977 92.4258 90.1048 92.4258 90.1048C93.8672 88.7523 93.6051 86.7446 93.2401 85.495C93.1281 85.0996 92.9825 84.7144 92.8049 84.3438L97.0496 85.1347C96.9495 85.7256 96.8932 86.3232 96.8811 86.9224C96.8694 87.3641 96.9103 87.8055 97.0028 88.2375C97.293 89.5058 98.0137 89.5198 98.0137 89.5198C98.7485 90.9145 97.0122 92.0657 97.0122 92.0657Z" fill="#EEC1BB"/>
<path opacity="0.2" d="M96.8759 86.9224C96.8642 87.3641 96.9051 87.8055 96.9976 88.2375C95.3128 88.0129 94.0352 86.665 93.2536 85.495C93.1416 85.0996 92.996 84.7144 92.8184 84.3438L97.0631 85.1347C96.9567 85.7252 96.8942 86.3227 96.8759 86.9224Z" fill="black"/>
<path d="M96.1836 73.39C99.8714 73.5257 100.985 75.5474 101.116 79.3616C101.275 84.1259 100.101 87.4627 95.5237 86.274C89.3086 84.6641 90.0527 73.1653 96.1836 73.39Z" fill="#EEC1BB"/>
<path d="M98.748 79.0898C99.0231 79.6509 99.3641 80.1772 99.7636 80.6576C99.6506 80.8067 99.4985 80.9215 99.3242 80.9892C99.1498 81.057 98.9601 81.075 98.7761 81.0414L98.748 79.0898Z" fill="#D4827D"/>
<path d="M96.549 76.1292C96.2587 76.0831 95.9618 76.1043 95.681 76.1911C95.4003 76.2779 95.1432 76.4281 94.9297 76.63" stroke="#263238" stroke-width="0.707962" stroke-linecap="round" stroke-linejoin="round"/>
<path d="M99.2158 76.0722C99.4706 76.0186 99.7343 76.0232 99.9871 76.0856C100.24 76.148 100.475 76.2666 100.676 76.4326" stroke="#263238" stroke-width="0.707962" stroke-linecap="round" stroke-linejoin="round"/>
<path d="M98.1778 82.4456C97.9906 82.8562 97.8342 83.2801 97.7098 83.7139L97.4758 83.6811C96.4041 83.5314 95.9595 83.1102 95.7863 82.689C95.7081 82.48 95.6809 82.2554 95.7068 82.0338C95.7171 81.9076 95.7438 81.7833 95.7863 81.6641C96.405 82.0528 97.1016 82.3004 97.8268 82.3895C98.0327 82.4316 98.1778 82.4456 98.1778 82.4456Z" fill="#263238"/>
<path d="M97.8124 82.3895L97.6627 82.7592C96.6518 82.6188 95.9638 82.3848 95.6924 82.0338C95.7027 81.9076 95.7295 81.7833 95.7719 81.6641C96.3906 82.0528 97.0872 82.3004 97.8124 82.3895Z" fill="white"/>
<path d="M97.4619 83.6836C96.3902 83.5338 95.9456 83.1126 95.7725 82.6914C96.1779 82.756 96.5691 82.8906 96.9284 83.0892C97.1622 83.2289 97.3482 83.4361 97.4619 83.6836Z" fill="#DE5753"/>
<path d="M91.9206 79.4586C91.9206 79.4586 93.7598 76.4915 93.582 74.1421C93.582 74.1421 101.004 71.4231 101.07 78.8596C101.07 78.8596 102.006 72.3076 95.688 71.9145C89.37 71.5213 89.033 80.8065 92.2061 83.6987C92.2295 83.6987 90.7927 81.3166 91.9206 79.4586Z" fill="#263238"/>
<path d="M92.4912 80.2608C92.4822 80.0487 92.4315 79.8405 92.3419 79.648C92.2523 79.4556 92.1256 79.2827 91.9691 79.1392C91.8126 78.9958 91.6294 78.8846 91.4299 78.8121C91.2304 78.7395 91.0185 78.707 90.8064 78.7164C89.6598 78.8007 89.028 81.1266 91.8501 81.7959C92.2525 81.8988 92.5006 81.501 92.4912 80.2608Z" fill="#EEC1BB"/>
<path d="M94.1101 70.952C96.1038 70.3998 101.425 70.3249 102.684 75.8286L101.944 76.1983C100.694 75.5714 99.3425 75.1721 97.9524 75.0189C97.6569 74.4933 97.3105 73.9979 96.9181 73.54C96.9587 74.0072 96.9587 74.4769 96.9181 74.944C96.9181 74.944 93.4456 75.4495 91.8918 76.8628C89.4535 79.0812 89.3085 80.4852 89.3085 80.4852C89.3085 80.4852 87.6143 72.7585 94.1101 70.952Z" fill="#263238"/>
<path d="M93.8154 71.3603C93.8154 71.3603 100.948 68.8846 103.175 75.6472" stroke="#263238" stroke-width="0.488465" stroke-linecap="round" stroke-linejoin="round"/>
<path d="M95.4727 78.6847C95.4727 78.6847 96.3385 77.9499 96.7456 78.9374C96.3495 78.7468 95.9115 78.6599 95.4727 78.6847Z" fill="#263238"/>
<path d="M99.582 79.2308C99.582 79.2308 100.05 78.2293 100.696 78.936C100.306 78.9441 99.9245 79.0452 99.582 79.2308Z" fill="#263238"/>
<path opacity="0.3" d="M100.986 94.1406H103.054C103.129 94.144 103.202 94.1653 103.267 94.2029C103.332 94.2405 103.387 94.2932 103.428 94.3565C103.468 94.4199 103.493 94.492 103.499 94.5668C103.506 94.6417 103.495 94.717 103.466 94.7865L102.61 96.6304C102.572 96.7003 102.518 96.7597 102.451 96.8028C102.385 96.846 102.309 96.8716 102.23 96.8772C102.151 96.8828 102.071 96.8683 101.999 96.8349C101.928 96.8016 101.865 96.7505 101.819 96.6865L100.602 94.8473C100.56 94.7776 100.538 94.6983 100.536 94.6173C100.535 94.5362 100.554 94.4562 100.593 94.3849C100.632 94.3137 100.688 94.2537 100.757 94.2109C100.826 94.168 100.905 94.1438 100.986 94.1406Z" fill="white"/>
<path opacity="0.2" d="M89.8563 105.271C89.4389 102.917 88.881 100.59 88.1855 98.3024L88.9624 96.8984C89.9376 99.5749 90.2445 102.449 89.8563 105.271Z" fill="black"/>
<path d="M85.8362 91.0195C84.4977 92.7137 83.894 104.858 81.1843 109.782C78.4746 114.705 74.665 121.388 74.665 121.388L77.445 123.803C77.445 123.803 86.0047 113.806 87.3712 109.964C88.7378 106.122 89.1075 101.016 89.1075 101.016C89.8563 94.1411 85.8362 91.0195 85.8362 91.0195Z" fill="#263238"/>
<path opacity="0.6" d="M86.8565 183.239C87.1186 183.047 89.3276 186.355 89.3276 186.355C89.3276 186.355 88.8362 189.805 89.833 192.028C90.8298 194.251 88.897 194.059 87.2824 191.953L83.3044 186.73C82.1625 185.246 84.1515 185.209 86.8565 183.239Z" fill="white"/>
<path opacity="0.6" d="M95.0048 189.778C95.0048 189.455 98.9781 189.707 98.9781 189.707C98.9781 189.707 101.421 192.188 103.794 192.749C106.167 193.311 104.837 194.729 102.189 194.729H95.6366C93.7599 194.729 94.9393 193.124 95.0048 189.778Z" fill="white"/>
<path d="M114.632 100.027C117.038 100.996 119.074 98.5854 119.167 95.7165C119.167 95.7165 121.362 94.3125 123.847 92.7868C125.721 91.6097 127.653 90.5288 129.636 89.5483C129.961 89.3968 130.242 89.1668 130.455 88.879C132.374 86.3893 131.49 79.2148 131.49 79.2148C127.044 79.7109 118.161 87.7652 114.272 91.6496C110.383 95.534 112.227 99.0534 114.632 100.027Z" fill="#353958"/>
<path opacity="0.2" d="M123.848 92.787C125.721 91.6099 127.653 90.5289 129.637 89.5484C129.961 89.3969 130.243 89.1669 130.456 88.8792L127.339 86.1133C127.339 86.1133 124.564 89.7216 123.848 92.787Z" fill="black"/>
<path d="M129.271 191.245L125.476 191.647L124.76 183.457L128.56 183.055L129.271 191.245Z" fill="#EBB376"/>
<path d="M148.216 190.968H144.538L144.233 182.445H147.917L148.216 190.968Z" fill="#EBB376"/>
<path d="M144.028 190.544H148.497C148.57 190.543 148.642 190.568 148.699 190.614C148.756 190.66 148.796 190.724 148.811 190.796L149.536 194.072C149.565 194.213 149.537 194.36 149.458 194.48C149.379 194.6 149.256 194.684 149.115 194.713C149.076 194.718 149.037 194.718 148.998 194.713C147.552 194.69 146.499 194.601 144.683 194.601C143.564 194.601 140.19 194.718 138.646 194.718C137.101 194.718 136.9 193.192 137.532 193.052C140.368 192.434 142.502 191.578 143.41 190.764C143.58 190.614 143.801 190.535 144.028 190.544Z" fill="#263238"/>
<path d="M142.81 191.19C142.561 191.209 142.312 191.143 142.104 191.003C142.036 190.948 141.983 190.875 141.951 190.793C141.919 190.711 141.909 190.622 141.921 190.535C141.919 190.484 141.933 190.434 141.959 190.391C141.986 190.348 142.025 190.313 142.071 190.292C142.478 190.081 143.667 190.811 143.798 190.896C143.813 190.903 143.825 190.916 143.833 190.931C143.84 190.946 143.843 190.963 143.84 190.98C143.838 190.997 143.83 191.014 143.819 191.027C143.807 191.041 143.792 191.05 143.775 191.055C143.459 191.135 143.136 191.18 142.81 191.19ZM142.272 190.428C142.233 190.423 142.194 190.432 142.16 190.451C142.137 190.451 142.108 190.484 142.104 190.554C142.096 190.612 142.103 190.671 142.124 190.725C142.144 190.78 142.177 190.829 142.221 190.868C142.633 191.055 143.102 191.078 143.531 190.933C143.148 190.684 142.721 190.513 142.272 190.428Z" fill="#353958"/>
<path d="M143.751 191.059H143.709C143.33 190.853 142.595 190.044 142.67 189.655C142.683 189.59 142.718 189.532 142.77 189.49C142.821 189.448 142.885 189.426 142.951 189.426C143.017 189.417 143.084 189.423 143.148 189.442C143.212 189.461 143.271 189.494 143.321 189.538C143.747 189.884 143.836 190.942 143.84 190.994C143.841 191.009 143.837 191.025 143.829 191.039C143.822 191.053 143.811 191.065 143.798 191.073C143.782 191.074 143.765 191.069 143.751 191.059ZM143.012 189.566H142.97C142.858 189.566 142.848 189.632 142.844 189.655C142.797 189.894 143.265 190.507 143.644 190.792C143.62 190.373 143.468 189.971 143.209 189.641C143.154 189.594 143.084 189.568 143.012 189.566Z" fill="#353958"/>
<path d="M125.074 190.426H129.543C129.616 190.426 129.688 190.451 129.745 190.497C129.802 190.543 129.841 190.607 129.857 190.679L130.582 193.955C130.611 194.096 130.583 194.243 130.504 194.363C130.425 194.483 130.302 194.567 130.161 194.596C130.122 194.601 130.083 194.601 130.044 194.596C128.598 194.573 127.545 194.484 125.729 194.484C124.61 194.484 121.236 194.601 119.692 194.601C118.147 194.601 117.946 193.075 118.578 192.935C121.414 192.317 123.548 191.461 124.456 190.646C124.626 190.497 124.847 190.418 125.074 190.426Z" fill="#263238"/>
<path d="M123.856 191.073C123.606 191.092 123.357 191.026 123.15 190.886C123.081 190.83 123.029 190.758 122.997 190.676C122.965 190.594 122.955 190.505 122.967 190.418C122.965 190.367 122.978 190.317 123.005 190.274C123.032 190.23 123.071 190.196 123.117 190.175C123.524 189.964 124.713 190.694 124.844 190.778C124.859 190.786 124.871 190.798 124.879 190.814C124.886 190.829 124.889 190.846 124.886 190.863C124.884 190.88 124.876 190.897 124.865 190.91C124.853 190.923 124.838 190.933 124.82 190.938C124.505 191.018 124.182 191.063 123.856 191.073ZM123.309 190.31C123.27 190.306 123.231 190.314 123.196 190.334C123.173 190.334 123.145 190.367 123.14 190.437C123.133 190.495 123.14 190.553 123.16 190.608C123.181 190.663 123.214 190.711 123.257 190.75C123.67 190.937 124.138 190.961 124.568 190.816C124.185 190.567 123.757 190.395 123.309 190.31Z" fill="#353958"/>
<path d="M124.797 190.946H124.755C124.376 190.74 123.641 189.93 123.716 189.542C123.729 189.477 123.764 189.419 123.816 189.377C123.867 189.335 123.931 189.312 123.997 189.313C124.063 189.304 124.13 189.309 124.194 189.329C124.258 189.348 124.317 189.381 124.367 189.425C124.793 189.771 124.882 190.829 124.886 190.88C124.887 190.896 124.883 190.912 124.875 190.926C124.868 190.939 124.857 190.951 124.844 190.96C124.827 190.96 124.811 190.955 124.797 190.946ZM124.058 189.453H124.02C123.908 189.453 123.899 189.518 123.894 189.542C123.847 189.781 124.315 190.394 124.694 190.679C124.671 190.26 124.519 189.858 124.259 189.528C124.204 189.478 124.132 189.45 124.058 189.448V189.453Z" fill="#353958"/>
<path opacity="0.2" d="M128.56 183.055L124.76 183.457L125.134 187.678L128.93 187.281L128.56 183.055Z" fill="black"/>
<path opacity="0.2" d="M147.917 182.449H144.233L144.393 186.844H148.076L147.917 182.449Z" fill="black"/>
<path d="M146.396 111.438H126.871C124.999 121.574 119.205 153.712 123.37 185.676L129.983 184.862C129.983 184.862 129.37 146.168 135.206 130.48C135.88 138.876 136.676 144.052 137.368 148.821C139.067 160.521 142.703 186.088 142.703 186.088H149.433C149.433 186.088 148.057 161.616 147.421 150.118C146.723 137.627 146.424 114.002 146.396 111.438Z" fill="#263238"/>
<path d="M122.616 187.216L130.797 185.999L130.549 183.734L122.036 184.853L122.616 187.216Z" fill="#353958"/>
<path d="M141.893 186.137H149.831V183.764L141.594 183.609L141.893 186.137Z" fill="#353958"/>
<path opacity="0.2" d="M135.205 130.477C134.246 133.22 133.516 136.037 133.025 138.901C132.477 131.413 134.663 123.504 134.663 123.504L135.205 130.477Z" fill="black"/>
<path d="M149.76 80.7861C148.679 84.7577 147.897 88.8048 147.42 92.8933C147.266 94.1475 147.14 95.3783 147.037 96.5717C146.901 98.0881 146.807 99.5482 146.732 100.933C146.639 102.688 146.611 104.762 146.615 106.802C146.615 111.482 146.812 114.594 146.812 114.594C143.068 115.53 132.248 114.908 126.337 114.477C125.642 109.296 125.46 104.059 125.794 98.8415C125.991 95.0876 126.405 91.3483 127.034 87.6423C127.352 85.6636 127.793 83.7067 128.354 81.7829C128.571 81.1011 128.98 80.4958 129.53 80.0387C130.081 79.5817 130.751 79.2921 131.462 79.2043C132.178 79.1153 133.006 79.0264 133.877 78.9749C134.213 78.9749 134.55 78.9422 134.892 78.9375C137.684 78.9693 140.472 79.1631 143.241 79.5178C143.765 79.5787 144.299 79.6582 144.814 79.7425C146.48 80.0031 148.131 80.3515 149.76 80.7861Z" fill="#353958"/>
<path d="M143.264 79.4934C141.472 81.1221 137.082 80.5184 137.082 80.5184C137.082 80.5184 134.34 79.7696 134.915 78.9131C136.53 78.6464 137.312 77.8929 137.634 76.9288C137.811 76.3312 137.867 75.7043 137.798 75.0849C137.771 74.7395 137.726 74.3958 137.663 74.0553L137.995 73.8119L139.127 72.9695L143.091 70.0352C142.722 71.4041 142.461 72.7999 142.31 74.2097C142.132 75.5553 142.219 76.9226 142.567 78.2345C142.709 78.6985 142.946 79.1274 143.264 79.4934Z" fill="#EBB376"/>
<path opacity="0.2" d="M147.565 91.886C147.701 90.8049 147.865 89.7285 148.033 88.6568V88.6287C147.874 88.362 146.568 86.1764 146.437 84.6133C146.327 85.075 146.252 85.5443 146.213 86.0173C146.072 87.5196 146.138 89.9251 147.565 91.886Z" fill="black"/>
<path d="M157.272 103.254L151.165 115.502C149.49 115.764 147.711 122.934 147.299 123.547C146.887 124.16 152.148 124.071 152.602 123.547C153.056 123.023 154.998 118.492 154.361 117.172L162.275 105.107C162.275 105.107 160.768 102.641 157.272 103.254Z" fill="#EBB376"/>
<path d="M149.761 80.7856C150.57 80.6967 164.334 92.8928 164.147 99.5056C163.96 106.118 162.111 106.324 162.111 106.324L156.963 105.257C156.963 105.257 158.11 99.6039 156.874 98.331C155.639 97.058 147.795 90.169 147.795 90.169C147.795 90.169 145.114 81.3004 149.761 80.7856Z" fill="#353958"/>
<path opacity="0.6" d="M130.446 85.9648C130.446 85.9648 139.151 86.358 142.68 87.2097C142.68 87.2097 141.154 99.7287 141.182 103.468C141.182 103.468 131.275 103.033 128.467 102.902C128.467 102.902 129.557 89.531 130.446 85.9648Z" fill="white"/>
<path d="M116.369 94.1445L128.49 95.5766C129.506 94.4534 135.721 96.6343 136.381 96.6296C137.041 96.6249 134.401 100.5 133.802 100.594C133.203 100.687 128.865 99.9056 128.186 98.7871H115.316C115.316 98.7871 114.193 96.4518 116.369 94.1445Z" fill="#EBB376"/>
<path opacity="0.2" d="M142.567 78.2377C139.736 78.5465 138.487 75.5935 137.995 73.8151L139.128 72.9727C140.209 73.3323 141.271 73.7462 142.31 74.2129C142.132 75.5584 142.22 76.9257 142.567 78.2377Z" fill="black"/>
<path d="M147.421 63.9134C147.421 63.9134 148.043 68.088 145.352 70.0349C142.661 71.9818 142.661 62.5469 142.661 62.5469L147.421 63.9134Z" fill="#263238"/>
<path d="M137.56 74.0635C138.124 74.8982 138.947 75.5247 139.901 75.8468C140.856 76.169 141.889 76.1689 142.844 75.8466C144.085 75.4512 145.13 74.6 145.769 73.4644C145.858 73.3126 145.939 73.1564 146.012 72.9964C147.337 69.8983 147.758 64.4788 144.482 62.4477C143.762 61.9953 142.937 61.7346 142.088 61.6903C141.238 61.6461 140.392 61.8198 139.628 62.195C138.865 62.5702 138.21 63.1343 137.726 63.8338C137.242 64.5334 136.945 65.345 136.863 66.1917C136.46 69.8094 136.053 71.92 137.56 74.0635Z" fill="#EBB376"/>
<path d="M142.141 68.1245C142.071 68.41 142.202 68.6767 142.399 68.7095C142.595 68.7422 142.782 68.5316 142.834 68.2415C142.885 67.9513 142.768 67.6846 142.576 67.6518C142.385 67.619 142.193 67.8296 142.141 68.1245Z" fill="#263238"/>
<path d="M145.445 68.6845C145.38 68.9747 145.516 69.2415 145.703 69.2742C145.89 69.307 146.091 69.0917 146.143 68.8062C146.194 68.5207 146.073 68.2493 145.885 68.2212C145.698 68.1931 145.497 68.4084 145.445 68.6845Z" fill="#263238"/>
<path d="M144.374 68.6523C144.567 69.6073 144.893 70.5305 145.342 71.3948C145.115 71.5013 144.868 71.5565 144.617 71.5565C144.366 71.5565 144.119 71.5013 143.892 71.3948L144.374 68.6523Z" fill="#D58745"/>
<path d="M141.298 66.8796C141.329 66.8893 141.362 66.8906 141.393 66.8832C141.424 66.8757 141.453 66.86 141.476 66.8375C141.632 66.6848 141.822 66.5705 142.03 66.5039C142.238 66.4373 142.458 66.4201 142.674 66.4537C142.719 66.4635 142.766 66.4552 142.804 66.4307C142.843 66.4061 142.87 66.3673 142.88 66.3227C142.886 66.3009 142.887 66.2782 142.883 66.2559C142.88 66.2336 142.872 66.2122 142.86 66.1931C142.849 66.1739 142.833 66.1572 142.815 66.1441C142.797 66.131 142.776 66.1217 142.754 66.1168C142.482 66.0683 142.203 66.0854 141.939 66.1669C141.675 66.2483 141.435 66.3916 141.237 66.5848C141.205 66.6172 141.188 66.6609 141.188 66.7065C141.188 66.752 141.205 66.7957 141.237 66.8281C141.255 66.8483 141.276 66.8657 141.298 66.8796Z" fill="#263238"/>
<path d="M147.064 67.7898C147.094 67.8069 147.128 67.815 147.163 67.8132C147.207 67.8001 147.244 67.7703 147.267 67.7301C147.29 67.69 147.296 67.6425 147.284 67.5979C147.212 67.3303 147.077 67.0838 146.891 66.8788C146.704 66.6737 146.472 66.5159 146.213 66.4185C146.191 66.4114 146.168 66.4088 146.145 66.4108C146.122 66.4129 146.1 66.4196 146.08 66.4306C146.06 66.4416 146.042 66.4565 146.028 66.4746C146.014 66.4926 146.003 66.5133 145.997 66.5355C145.985 66.5796 145.991 66.6265 146.013 66.6665C146.035 66.7066 146.071 66.7368 146.114 66.7508C146.317 66.8311 146.498 66.9574 146.644 67.1199C146.789 67.2824 146.895 67.4764 146.952 67.6868C146.962 67.711 146.978 67.7328 146.997 67.7506C147.016 67.7683 147.039 67.7817 147.064 67.7898Z" fill="#263238"/>
<path d="M142.216 60.374C141.786 60.3132 141.355 60.2617 140.92 60.243C139.666 60.1255 138.405 60.3776 137.293 60.9684C134.789 62.452 135.22 66.2521 135.543 68.7138C135.973 71.9898 137.26 73.4734 137.26 73.4734C136.479 71.9102 136.713 68.8682 137.218 68.7934C137.724 68.7185 137.686 69.2988 137.686 69.2988C138.819 68.5968 139.834 66.6078 139.483 65.2038C139.212 64.1274 140.419 63.3318 141.43 63.8372L141.739 63.987L142.207 64.2116L142.216 60.374Z" fill="#263238"/>
<path d="M134.784 68.8604C134.911 69.2969 135.124 69.704 135.409 70.0582C135.694 70.4124 136.046 70.7068 136.446 70.9243C137.517 71.4999 138.318 70.606 138.247 69.4548C138.172 68.4345 137.536 66.8714 136.352 66.7825C135.168 66.6936 134.485 67.7746 134.784 68.8604Z" fill="#EBB376"/>
<path d="M135.57 63.3592C135.57 63.3592 135.102 59.6433 139.427 59.0209C143.751 58.3984 147.5 57.4297 147.5 57.4297C147.5 57.4297 147.434 59.6153 146.639 60.2377C146.639 60.2377 148.192 60.3079 149.119 59.6901C149.119 59.6901 148.871 61.6042 148.314 62.2828L149.119 61.6651C149.029 62.39 148.716 63.0688 148.221 63.6066C147.727 64.1444 147.077 64.5145 146.363 64.665C143.812 65.2453 139.048 63.3592 139.048 63.3592H135.57Z" fill="#263238"/>
<path d="M143.779 72.6338C143.502 72.9755 143.25 73.3369 143.026 73.7149C142.955 73.6868 142.88 73.6635 142.81 73.6307C141.837 73.2376 141.514 72.7321 141.453 72.2922C141.429 72.0767 141.456 71.8585 141.533 71.6557C141.572 71.5396 141.627 71.4293 141.696 71.3281C142.191 71.8369 142.788 72.2356 143.447 72.4981C143.648 72.587 143.779 72.6338 143.779 72.6338Z" fill="#263238"/>
<path d="M143.447 72.4981L143.218 72.807C142.282 72.4373 141.706 72.0488 141.533 71.6557C141.573 71.5396 141.628 71.4293 141.697 71.3281C142.192 71.8369 142.788 72.2356 143.447 72.4981Z" fill="white"/>
<path d="M142.81 73.6315C141.837 73.2383 141.514 72.7329 141.453 72.293C141.822 72.4486 142.159 72.6689 142.45 72.9435C142.637 73.1313 142.762 73.3711 142.81 73.6315Z" fill="#DE5753"/>
</svg>
